<svg class="rich-terminal" viewBox="0 0 994 635.5999999999999" xmlns="http://www.w3.org/2000/svg">
    <!-- Generated with Rich https://www.textualize.io -->
    <style>

    @font-face {
        font-family: "Fira Code";
        src: local("FiraCode-Regular"),
                url("https://cdnjs.cloudflare.com/ajax/libs/firacode/6.2.0/woff2/FiraCode-Regular.woff2") format("woff2"),
                url("https://cdnjs.cloudflare.com/ajax/libs/firacode/6.2.0/woff/FiraCode-Regular.woff") format("woff");
        font-style: normal;
        font-weight: 400;
    }
    @font-face {
        font-family: "Fira Code";
        src: local("FiraCode-Bold"),
                url("https://cdnjs.cloudflare.com/ajax/libs/firacode/6.2.0/woff2/FiraCode-Bold.woff2") format("woff2"),
                url("https://cdnjs.cloudflare.com/ajax/libs/firacode/6.2.0/woff/FiraCode-Bold.woff") format("woff");
        font-style: bold;
        font-weight: 700;
    }

    .terminal-3749603721-matrix {
        font-family: Fira Code, monospace;
        font-size: 20px;
        line-height: 24.4px;
        font-variant-east-asian: full-width;
    }

    .terminal-3749603721-title {
        font-size: 18px;
        font-weight: bold;
        font-family: arial;
    }

    .terminal-3749603721-r1 { fill: #c5c8c6 }
.terminal-3749603721-r2 { fill: #e8e8e8 }
.terminal-3749603721-r3 { fill: #a5a5a6 }
.terminal-3749603721-r4 { fill: #2d2d30 }
.terminal-3749603721-r5 { fill: #191919 }
.terminal-3749603721-r6 { fill: #868688 }
.terminal-3749603721-r7 { fill: #00a4ef }
.terminal-3749603721-r8 { fill: #3e3e42 }
.terminal-3749603721-r9 { fill: #ffffff;font-weight: bold }
.terminal-3749603721-r10 { fill: #e8e8e8;font-weight: bold }
.terminal-3749603721-r11 { fill: #f2c811;font-weight: bold }
.terminal-3749603721-r12 { fill: #ffa62b;font-weight: bold }
.terminal-3749603721-r13 { fill: #e0e0e0 }
.terminal-3749603721-r14 { fill: #444444 }
    </style>

    <defs>
    <clipPath id="terminal-3749603721-clip-terminal">
      <rect x="0" y="0" width="975.0" height="584.5999999999999" />
    </clipPath>
    <clipPath id="terminal-3749603721-line-0">
    <rect x="0" y="1.5" width="976" height="24.65"/>
            </clipPath>
<clipPath id="terminal-3749603721-line-1">
    <rect x="0" y="25.9" width="976" height="24.65"/>
            </clipPath>
<clipPath id="terminal-3749603721-line-2">
    <rect x="0" y="50.3" width="976" height="24.65"/>
            </clipPath>
<clipPath id="terminal-3749603721-line-3">
    <rect x="0" y="74.7" width="976" height="24.65"/>
            </clipPath>
<clipPath id="terminal-3749603721-line-4">
    <rect x="0" y="99.1" width="976" height="24.65"/>
            </clipPath>
<clipPath id="terminal-3749603721-line-5">
    <rect x="0" y="123.5" width="976" height="24.65"/>
            </clipPath>
<clipPath id="terminal-3749603721-line-6">
    <rect x="0" y="147.9" width="976" height="24.65"/>
            </clipPath>
<clipPath id="terminal-3749603721-line-7">
    <rect x="0" y="172.3" width="976" height="24.65"/>
            </clipPath>
<clipPath id="terminal-3749603721-line-8">
    <rect x="0" y="196.7" width="976" height="24.65"/>
            </clipPath>
<clipPath id="terminal-3749603721-line-9">
    <rect x="0" y="221.1" width="976" height="24.65"/>
            </clipPath>
<clipPath id="terminal-3749603721-line-10">
    <rect x="0" y="245.5" width="976" height="24.65"/>
            </clipPath>
<clipPath id="terminal-3749603721-line-11">
    <rect x="0" y="269.9" width="976" height="24.65"/>
            </clipPath>
<clipPath id="terminal-3749603721-line-12">
    <rect x="0" y="294.3" width="976" height="24.65"/>
            </clipPath>
<clipPath id="terminal-3749603721-line-13">
    <rect x="0" y="318.7" width="976" height="24.65"/>
            </clipPath>
<clipPath id="terminal-3749603721-line-14">
    <rect x="0" y="343.1" width="976" height="24.65"/>
            </clipPath>
<clipPath id="terminal-3749603721-line-15">
    <rect x="0" y="367.5" width="976" height="24.65"/>
            </clipPath>
<clipPath id="terminal-3749603721-line-16">
    <rect x="0" y="391.9" width="976" height="24.65"/>
            </clipPath>
<clipPath id="terminal-3749603721-line-17">
    <rect x="0" y="416.3" width="976" height="24.65"/>
            </clipPath>
<clipPath id="terminal-3749603721-line-18">
    <rect x="0" y="440.7" width="976" height="24.65"/>
            </clipPath>
<clipPath id="terminal-3749603721-line-19">
    <rect x="0" y="465.1" width="976" height="24.65"/>
            </clipPath>
<clipPath id="terminal-3749603721-line-20">
    <rect x="0" y="489.5" width="976" height="24.65"/>
            </clipPath>
<clipPath id="terminal-3749603721-line-21">
    <rect x="0" y="513.9" width="976" height="24.65"/>
            </clipPath>
<clipPath id="terminal-3749603721-line-22">
    <rect x="0" y="538.3" width="976" height="24.65"/>
            </clipPath>
    </defs>

    <rect fill="#292929" stroke="rgba(255,255,255,0.35)" stroke-width="1" x="1" y="1" width="992" height="633.6" rx="8"/><text class="terminal-3749603721-title" fill="#c5c8c6" text-anchor="middle" x="496" y="27">PowerBI&#160;CLI&#160;-&#160;Interactive&#160;TUI</text>
            <g transform="translate(26,22)">
            <circle cx="0" cy="0" r="7" fill="#ff5f57"/>
            <circle cx="22" cy="0" r="7" fill="#febc2e"/>
            <circle cx="44" cy="0" r="7" fill="#28c840"/>
            </g>
        
    <g transform="translate(9, 41)" clip-path="url(#terminal-3749603721-clip-terminal)">
    <rect fill="#252526" x="0" y="1.5" width="12.2" height="24.65" shape-rendering="crispEdges"/><rect fill="#252526" x="12.2" y="1.5" width="12.2" height="24.65" shape-rendering="crispEdges"/><rect fill="#252526" x="24.4" y="1.5" width="61" height="24.65" shape-rendering="crispEdges"/><rect fill="#252526" x="85.4" y="1.5" width="12.2" height="24.65" shape-rendering="crispEdges"/><rect fill="#252526" x="97.6" y="1.5" width="85.4" height="24.65" shape-rendering="crispEdges"/><rect fill="#252526" x="183" y="1.5" width="353.8" height="24.65" shape-rendering="crispEdges"/><rect fill="#252526" x="536.8" y="1.5" width="36.6" height="24.65" shape-rendering="crispEdges"/><rect fill="#252526" x="573.4" y="1.5" width="195.2" height="24.65" shape-rendering="crispEdges"/><rect fill="#252526" x="768.6" y="1.5" width="85.4" height="24.65" shape-rendering="crispEdges"/><rect fill="#252526" x="854" y="1.5" width="12.2" height="24.65" shape-rendering="crispEdges"/><rect fill="#252526" x="866.2" y="1.5" width="0" height="24.65" shape-rendering="crispEdges"/><rect fill="#252526" x="866.2" y="1.5" width="97.6" height="24.65" shape-rendering="crispEdges"/><rect fill="#252526" x="963.8" y="1.5" width="12.2" height="24.65" shape-rendering="crispEdges"/><rect fill="#2d2d30" x="0" y="25.9" width="317.2" height="24.65" shape-rendering="crispEdges"/><rect fill="#1e1e1e" x="317.2" y="25.9" width="12.2" height="24.65" shape-rendering="crispEdges"/><rect fill="#2d2d30" x="329.4" y="25.9" width="317.2" height="24.65" shape-rendering="crispEdges"/><rect fill="#1e1e1e" x="646.6" y="25.9" width="12.2" height="24.65" shape-rendering="crispEdges"/><rect fill="#2d2d30" x="658.8" y="25.9" width="317.2" height="24.65" shape-rendering="crispEdges"/><rect fill="#2d2d30" x="0" y="50.3" width="24.4" height="24.65" shape-rendering="crispEdges"/><rect fill="#191919" x="24.4" y="50.3" width="12.2" height="24.65" shape-rendering="crispEdges"/><rect fill="#2d2d30" x="36.6" y="50.3" width="244" height="24.65" shape-rendering="crispEdges"/><rect fill="#2d2d30" x="280.6" y="50.3" width="12.2" height="24.65" shape-rendering="crispEdges"/><rect fill="#2d2d30" x="292.8" y="50.3" width="24.4" height="24.65" shape-rendering="crispEdges"/><rect fill="#1e1e1e" x="317.2" y="50.3" width="12.2" height="24.65" shape-rendering="crispEdges"/><rect fill="#2d2d30" x="329.4" y="50.3" width="24.4" height="24.65" shape-rendering="crispEdges"/><rect fill="#191919" x="353.8" y="50.3" width="12.2" height="24.65" shape-rendering="crispEdges"/><rect fill="#2d2d30" x="366" y="50.3" width="244" height="24.65" shape-rendering="crispEdges"/><rect fill="#2d2d30" x="610" y="50.3" width="12.2" height="24.65" shape-rendering="crispEdges"/><rect fill="#2d2d30" x="622.2" y="50.3" width="24.4" height="24.65" shape-rendering="crispEdges"/><rect fill="#1e1e1e" x="646.6" y="50.3" width="12.2" height="24.65" shape-rendering="crispEdges"/><rect fill="#2d2d30" x="658.8" y="50.3" width="24.4" height="24.65" shape-rendering="crispEdges"/><rect fill="#191919" x="683.2" y="50.3" width="12.2" height="24.65" shape-rendering="crispEdges"/><rect fill="#2d2d30" x="695.4" y="50.3" width="244" height="24.65" shape-rendering="crispEdges"/><rect fill="#2d2d30" x="939.4" y="50.3" width="12.2" height="24.65" shape-rendering="crispEdges"/><rect fill="#2d2d30" x="951.6" y="50.3" width="24.4" height="24.65" shape-rendering="crispEdges"/><rect fill="#2d2d30" x="0" y="74.7" width="24.4" height="24.65" shape-rendering="crispEdges"/><rect fill="#191919" x="24.4" y="74.7" width="12.2" height="24.65" shape-rendering="crispEdges"/><rect fill="#2d2d30" x="36.6" y="74.7" width="24.4" height="24.65" shape-rendering="crispEdges"/><rect fill="#2d2d30" x="61" y="74.7" width="85.4" height="24.65" shape-rendering="crispEdges"/><rect fill="#2d2d30" x="146.4" y="74.7" width="85.4" height="24.65" shape-rendering="crispEdges"/><rect fill="#2d2d30" x="231.8" y="74.7" width="12.2" height="24.65" shape-rendering="crispEdges"/><rect fill="#2d2d30" x="244" y="74.7" width="12.2" height="24.65" shape-rendering="crispEdges"/><rect fill="#2d2d30" x="256.2" y="74.7" width="24.4" height="24.65" shape-rendering="crispEdges"/><rect fill="#2d2d30" x="280.6" y="74.7" width="12.2" height="24.65" shape-rendering="crispEdges"/><rect fill="#2d2d30" x="292.8" y="74.7" width="24.4" height="24.65" shape-rendering="crispEdges"/><rect fill="#1e1e1e" x="317.2" y="74.7" width="12.2" height="24.65" shape-rendering="crispEdges"/><rect fill="#2d2d30" x="329.4" y="74.7" width="24.4" height="24.65" shape-rendering="crispEdges"/><rect fill="#191919" x="353.8" y="74.7" width="12.2" height="24.65" shape-rendering="crispEdges"/><rect fill="#2d2d30" x="366" y="74.7" width="24.4" height="24.65" shape-rendering="crispEdges"/><rect fill="#2d2d30" x="390.4" y="74.7" width="158.6" height="24.65" shape-rendering="crispEdges"/><rect fill="#2d2d30" x="549" y="74.7" width="12.2" height="24.65" shape-rendering="crispEdges"/><rect fill="#2d2d30" x="561.2" y="74.7" width="12.2" height="24.65" shape-rendering="crispEdges"/><rect fill="#2d2d30" x="573.4" y="74.7" width="12.2" height="24.65" shape-rendering="crispEdges"/><rect fill="#2d2d30" x="585.6" y="74.7" width="24.4" height="24.65" shape-rendering="crispEdges"/><rect fill="#2d2d30" x="610" y="74.7" width="12.2" height="24.65" shape-rendering="crispEdges"/><rect fill="#2d2d30" x="622.2" y="74.7" width="24.4" height="24.65" shape-rendering="crispEdges"/><rect fill="#1e1e1e" x="646.6" y="74.7" width="12.2" height="24.65" shape-rendering="crispEdges"/><rect fill="#2d2d30" x="658.8" y="74.7" width="24.4" height="24.65" shape-rendering="crispEdges"/><rect fill="#191919" x="683.2" y="74.7" width="12.2" height="24.65" shape-rendering="crispEdges"/><rect fill="#2d2d30" x="695.4" y="74.7" width="24.4" height="24.65" shape-rendering="crispEdges"/><rect fill="#2d2d30" x="719.8" y="74.7" width="73.2" height="24.65" shape-rendering="crispEdges"/><rect fill="#2d2d30" x="793" y="74.7" width="97.6" height="24.65" shape-rendering="crispEdges"/><rect fill="#2d2d30" x="890.6" y="74.7" width="12.2" height="24.65" shape-rendering="crispEdges"/><rect fill="#2d2d30" x="902.8" y="74.7" width="12.2" height="24.65" shape-rendering="crispEdges"/><rect fill="#2d2d30" x="915" y="74.7" width="24.4" height="24.65" shape-rendering="crispEdges"/><rect fill="#2d2d30" x="939.4" y="74.7" width="12.2" height="24.65" shape-rendering="crispEdges"/><rect fill="#2d2d30" x="951.6" y="74.7" width="24.4" height="24.65" shape-rendering="crispEdges"/><rect fill="#2d2d30" x="0" y="99.1" width="24.4" height="24.65" shape-rendering="crispEdges"/><rect fill="#191919" x="24.4" y="99.1" width="12.2" height="24.65" shape-rendering="crispEdges"/><rect fill="#2d2d30" x="36.6" y="99.1" width="244" height="24.65" shape-rendering="crispEdges"/><rect fill="#2d2d30" x="280.6" y="99.1" width="12.2" height="24.65" shape-rendering="crispEdges"/><rect fill="#2d2d30" x="292.8" y="99.1" width="24.4" height="24.65" shape-rendering="crispEdges"/><rect fill="#1e1e1e" x="317.2" y="99.1" width="12.2" height="24.65" shape-rendering="crispEdges"/><rect fill="#2d2d30" x="329.4" y="99.1" width="24.4" height="24.65" shape-rendering="crispEdges"/><rect fill="#191919" x="353.8" y="99.1" width="12.2" height="24.65" shape-rendering="crispEdges"/><rect fill="#2d2d30" x="366" y="99.1" width="244" height="24.65" shape-rendering="crispEdges"/><rect fill="#2d2d30" x="610" y="99.1" width="12.2" height="24.65" shape-rendering="crispEdges"/><rect fill="#2d2d30" x="622.2" y="99.1" width="24.4" height="24.65" shape-rendering="crispEdges"/><rect fill="#1e1e1e" x="646.6" y="99.1" width="12.2" height="24.65" shape-rendering="crispEdges"/><rect fill="#2d2d30" x="658.8" y="99.1" width="24.4" height="24.65" shape-rendering="crispEdges"/><rect fill="#191919" x="683.2" y="99.1" width="12.2" height="24.65" shape-rendering="crispEdges"/><rect fill="#2d2d30" x="695.4" y="99.1" width="244" height="24.65" shape-rendering="crispEdges"/><rect fill="#2d2d30" x="939.4" y="99.1" width="12.2" height="24.65" shape-rendering="crispEdges"/><rect fill="#2d2d30" x="951.6" y="99.1" width="24.4" height="24.65" shape-rendering="crispEdges"/><rect fill="#2d2d30" x="0" y="123.5" width="317.2" height="24.65" shape-rendering="crispEdges"/><rect fill="#1e1e1e" x="317.2" y="123.5" width="12.2" height="24.65" shape-rendering="crispEdges"/><rect fill="#2d2d30" x="329.4" y="123.5" width="317.2" height="24.65" shape-rendering="crispEdges"/><rect fill="#1e1e1e" x="646.6" y="123.5" width="12.2" height="24.65" shape-rendering="crispEdges"/><rect fill="#2d2d30" x="658.8" y="123.5" width="317.2" height="24.65" shape-rendering="crispEdges"/><rect fill="#1e1e1e" x="0" y="147.9" width="976" height="24.65" shape-rendering="crispEdges"/><rect fill="#0b2293" x="0" y="172.3" width="12.2" height="24.65" shape-rendering="crispEdges"/><rect fill="#0b2293" x="12.2" y="172.3" width="122" height="24.65" shape-rendering="crispEdges"/><rect fill="#0b2293" x="134.2" y="172.3" width="12.2" height="24.65" shape-rendering="crispEdges"/><rect fill="#1e1e1e" x="146.4" y="172.3" width="12.2" height="24.65" shape-rendering="crispEdges"/><rect fill="#2d2d30" x="158.6" y="172.3" width="12.2" height="24.65" shape-rendering="crispEdges"/><rect fill="#2d2d30" x="170.8" y="172.3" width="134.2" height="24.65" shape-rendering="crispEdges"/><rect fill="#2d2d30" x="305" y="172.3" width="12.2" height="24.65" shape-rendering="crispEdges"/><rect fill="#1e1e1e" x="317.2" y="172.3" width="12.2" height="24.65" shape-rendering="crispEdges"/><rect fill="#2d2d30" x="329.4" y="172.3" width="12.2" height="24.65" shape-rendering="crispEdges"/><rect fill="#2d2d30" x="341.6" y="172.3" width="122" height="24.65" shape-rendering="crispEdges"/><rect fill="#2d2d30" x="463.6" y="172.3" width="12.2" height="24.65" shape-rendering="crispEdges"/><rect fill="#1e1e1e" x="475.8" y="172.3" width="12.2" height="24.65" shape-rendering="crispEdges"/><rect fill="#2d2d30" x="488" y="172.3" width="12.2" height="24.65" shape-rendering="crispEdges"/><rect fill="#2d2d30" x="500.2" y="172.3" width="134.2" height="24.65" shape-rendering="crispEdges"/><rect fill="#2d2d30" x="634.4" y="172.3" width="12.2" height="24.65" shape-rendering="crispEdges"/><rect fill="#1e1e1e" x="646.6" y="172.3" width="12.2" height="24.65" shape-rendering="crispEdges"/><rect fill="#2d2d30" x="658.8" y="172.3" width="12.2" height="24.65" shape-rendering="crispEdges"/><rect fill="#2d2d30" x="671" y="172.3" width="122" height="24.65" shape-rendering="crispEdges"/><rect fill="#2d2d30" x="793" y="172.3" width="12.2" height="24.65" shape-rendering="crispEdges"/><rect fill="#1e1e1e" x="805.2" y="172.3" width="12.2" height="24.65" shape-rendering="crispEdges"/><rect fill="#2d2d30" x="817.4" y="172.3" width="12.2" height="24.65" shape-rendering="crispEdges"/><rect fill="#2d2d30" x="829.6" y="172.3" width="134.2" height="24.65" shape-rendering="crispEdges"/><rect fill="#2d2d30" x="963.8" y="172.3" width="12.2" height="24.65" shape-rendering="crispEdges"/><rect fill="#0b2293" x="0" y="196.7" width="12.2" height="24.65" shape-rendering="crispEdges"/><rect fill="#0b2293" x="12.2" y="196.7" width="24.4" height="24.65" shape-rendering="crispEdges"/><rect fill="#0b2293" x="36.6" y="196.7" width="61" height="24.65" shape-rendering="crispEdges"/><rect fill="#0b2293" x="97.6" y="196.7" width="36.6" height="24.65" shape-rendering="crispEdges"/><rect fill="#0b2293" x="134.2" y="196.7" width="12.2" height="24.65" shape-rendering="crispEdges"/><rect fill="#1e1e1e" x="146.4" y="196.7" width="12.2" height="24.65" shape-rendering="crispEdges"/><rect fill="#2d2d30" x="158.6" y="196.7" width="12.2" height="24.65" shape-rendering="crispEdges"/><rect fill="#2d2d30" x="170.8" y="196.7" width="36.6" height="24.65" shape-rendering="crispEdges"/><rect fill="#2d2d30" x="207.4" y="196.7" width="61" height="24.65" shape-rendering="crispEdges"/><rect fill="#2d2d30" x="268.4" y="196.7" width="36.6" height="24.65" shape-rendering="crispEdges"/><rect fill="#2d2d30" x="305" y="196.7" width="12.2" height="24.65" shape-rendering="crispEdges"/><rect fill="#1e1e1e" x="317.2" y="196.7" width="12.2" height="24.65" shape-rendering="crispEdges"/><rect fill="#2d2d30" x="329.4" y="196.7" width="12.2" height="24.65" shape-rendering="crispEdges"/><rect fill="#2d2d30" x="341.6" y="196.7" width="24.4" height="24.65" shape-rendering="crispEdges"/><rect fill="#2d2d30" x="366" y="196.7" width="61" height="24.65" shape-rendering="crispEdges"/><rect fill="#2d2d30" x="427" y="196.7" width="36.6" height="24.65" shape-rendering="crispEdges"/><rect fill="#2d2d30" x="463.6" y="196.7" width="12.2" height="24.65" shape-rendering="crispEdges"/><rect fill="#1e1e1e" x="475.8" y="196.7" width="12.2" height="24.65" shape-rendering="crispEdges"/><rect fill="#2d2d30" x="488" y="196.7" width="12.2" height="24.65" shape-rendering="crispEdges"/><rect fill="#2d2d30" x="500.2" y="196.7" width="122" height="24.65" shape-rendering="crispEdges"/><rect fill="#2d2d30" x="622.2" y="196.7" width="12.2" height="24.65" shape-rendering="crispEdges"/><rect fill="#2d2d30" x="634.4" y="196.7" width="12.2" height="24.65" shape-rendering="crispEdges"/><rect fill="#1e1e1e" x="646.6" y="196.7" width="12.2" height="24.65" shape-rendering="crispEdges"/><rect fill="#2d2d30" x="658.8" y="196.7" width="12.2" height="24.65" shape-rendering="crispEdges"/><rect fill="#2d2d30" x="671" y="196.7" width="24.4" height="24.65" shape-rendering="crispEdges"/><rect fill="#2d2d30" x="695.4" y="196.7" width="61" height="24.65" shape-rendering="crispEdges"/><rect fill="#2d2d30" x="756.4" y="196.7" width="36.6" height="24.65" shape-rendering="crispEdges"/><rect fill="#2d2d30" x="793" y="196.7" width="12.2" height="24.65" shape-rendering="crispEdges"/><rect fill="#1e1e1e" x="805.2" y="196.7" width="12.2" height="24.65" shape-rendering="crispEdges"/><rect fill="#2d2d30" x="817.4" y="196.7" width="12.2" height="24.65" shape-rendering="crispEdges"/><rect fill="#2d2d30" x="829.6" y="196.7" width="134.2" height="24.65" shape-rendering="crispEdges"/><rect fill="#2d2d30" x="963.8" y="196.7" width="12.2" height="24.65" shape-rendering="crispEdges"/><rect fill="#0b2293" x="0" y="221.1" width="12.2" height="24.65" shape-rendering="crispEdges"/><rect fill="#0b2293" x="12.2" y="221.1" width="122" height="24.65" shape-rendering="crispEdges"/><rect fill="#0b2293" x="134.2" y="221.1" width="12.2" height="24.65" shape-rendering="crispEdges"/><rect fill="#1e1e1e" x="146.4" y="221.1" width="12.2" height="24.65" shape-rendering="crispEdges"/><rect fill="#2d2d30" x="158.6" y="221.1" width="12.2" height="24.65" shape-rendering="crispEdges"/><rect fill="#2d2d30" x="170.8" y="221.1" width="134.2" height="24.65" shape-rendering="crispEdges"/><rect fill="#2d2d30" x="305" y="221.1" width="12.2" height="24.65" shape-rendering="crispEdges"/><rect fill="#1e1e1e" x="317.2" y="221.1" width="12.2" height="24.65" shape-rendering="crispEdges"/><rect fill="#2d2d30" x="329.4" y="221.1" width="12.2" height="24.65" shape-rendering="crispEdges"/><rect fill="#2d2d30" x="341.6" y="221.1" width="122" height="24.65" shape-rendering="crispEdges"/><rect fill="#2d2d30" x="463.6" y="221.1" width="12.2" height="24.65" shape-rendering="crispEdges"/><rect fill="#1e1e1e" x="475.8" y="221.1" width="12.2" height="24.65" shape-rendering="crispEdges"/><rect fill="#2d2d30" x="488" y="221.1" width="12.2" height="24.65" shape-rendering="crispEdges"/><rect fill="#2d2d30" x="500.2" y="221.1" width="134.2" height="24.65" shape-rendering="crispEdges"/><rect fill="#2d2d30" x="634.4" y="221.1" width="12.2" height="24.65" shape-rendering="crispEdges"/><rect fill="#1e1e1e" x="646.6" y="221.1" width="12.2" height="24.65" shape-rendering="crispEdges"/><rect fill="#2d2d30" x="658.8" y="221.1" width="12.2" height="24.65" shape-rendering="crispEdges"/><rect fill="#2d2d30" x="671" y="221.1" width="122" height="24.65" shape-rendering="crispEdges"/><rect fill="#2d2d30" x="793" y="221.1" width="12.2" height="24.65" shape-rendering="crispEdges"/><rect fill="#1e1e1e" x="805.2" y="221.1" width="12.2" height="24.65" shape-rendering="crispEdges"/><rect fill="#2d2d30" x="817.4" y="221.1" width="12.2" height="24.65" shape-rendering="crispEdges"/><rect fill="#2d2d30" x="829.6" y="221.1" width="134.2" height="24.65" shape-rendering="crispEdges"/><rect fill="#2d2d30" x="963.8" y="221.1" width="12.2" height="24.65" shape-rendering="crispEdges"/><rect fill="#1e1e1e" x="0" y="245.5" width="976" height="24.65" shape-rendering="crispEdges"/><rect fill="#1e1e1e" x="0" y="269.9" width="12.2" height="24.65" shape-rendering="crispEdges"/><rect fill="#1e1e1e" x="12.2" y="269.9" width="951.6" height="24.65" shape-rendering="crispEdges"/><rect fill="#1e1e1e" x="963.8" y="269.9" width="12.2" height="24.65" shape-rendering="crispEdges"/><rect fill="#1e1e1e" x="0" y="294.3" width="12.2" height="24.65" shape-rendering="crispEdges"/><rect fill="#2d2d30" x="12.2" y="294.3" width="951.6" height="24.65" shape-rendering="crispEdges"/><rect fill="#1e1e1e" x="963.8" y="294.3" width="12.2" height="24.65" shape-rendering="crispEdges"/><rect fill="#1e1e1e" x="0" y="318.7" width="12.2" height="24.65" shape-rendering="crispEdges"/><rect fill="#2d2d30" x="12.2" y="318.7" width="12.2" height="24.65" shape-rendering="crispEdges"/><rect fill="#2d2d30" x="24.4" y="318.7" width="305" height="24.65" shape-rendering="crispEdges"/><rect fill="#2d2d30" x="329.4" y="318.7" width="622.2" height="24.65" shape-rendering="crispEdges"/><rect fill="#2d2d30" x="951.6" y="318.7" width="12.2" height="24.65" shape-rendering="crispEdges"/><rect fill="#1e1e1e" x="963.8" y="318.7" width="12.2" height="24.65" shape-rendering="crispEdges"/><rect fill="#1e1e1e" x="0" y="343.1" width="12.2" height="24.65" shape-rendering="crispEdges"/><rect fill="#2d2d30" x="12.2" y="343.1" width="951.6" height="24.65" shape-rendering="crispEdges"/><rect fill="#1e1e1e" x="963.8" y="343.1" width="12.2" height="24.65" shape-rendering="crispEdges"/><rect fill="#1e1e1e" x="0" y="367.5" width="12.2" height="24.65" shape-rendering="crispEdges"/><rect fill="#2d2d30" x="12.2" y="367.5" width="951.6" height="24.65" shape-rendering="crispEdges"/><rect fill="#1e1e1e" x="963.8" y="367.5" width="12.2" height="24.65" shape-rendering="crispEdges"/><rect fill="#1e1e1e" x="0" y="391.9" width="12.2" height="24.65" shape-rendering="crispEdges"/><rect fill="#1e1e1e" x="12.2" y="391.9" width="951.6" height="24.65" shape-rendering="crispEdges"/><rect fill="#1e1e1e" x="963.8" y="391.9" width="12.2" height="24.65" shape-rendering="crispEdges"/><rect fill="#1e1e1e" x="0" y="416.3" width="976" height="24.65" shape-rendering="crispEdges"/><rect fill="#1e1e1e" x="0" y="440.7" width="12.2" height="24.65" shape-rendering="crispEdges"/><rect fill="#1e1e1e" x="12.2" y="440.7" width="951.6" height="24.65" shape-rendering="crispEdges"/><rect fill="#1e1e1e" x="963.8" y="440.7" width="12.2" height="24.65" shape-rendering="crispEdges"/><rect fill="#1e1e1e" x="0" y="465.1" width="12.2" height="24.65" shape-rendering="crispEdges"/><rect fill="#1e1e1e" x="12.2" y="465.1" width="951.6" height="24.65" shape-rendering="crispEdges"/><rect fill="#1e1e1e" x="963.8" y="465.1" width="12.2" height="24.65" shape-rendering="crispEdges"/><rect fill="#1e1e1e" x="0" y="489.5" width="12.2" height="24.65" shape-rendering="crispEdges"/><rect fill="#1e1e1e" x="12.2" y="489.5" width="12.2" height="24.65" shape-rendering="crispEdges"/><rect fill="#1e1e1e" x="24.4" y="489.5" width="36.6" height="24.65" shape-rendering="crispEdges"/><rect fill="#1e1e1e" x="61" y="489.5" width="61" height="24.65" shape-rendering="crispEdges"/><rect fill="#1e1e1e" x="122" y="489.5" width="48.8" height="24.65" shape-rendering="crispEdges"/><rect fill="#1e1e1e" x="170.8" y="489.5" width="97.6" height="24.65" shape-rendering="crispEdges"/><rect fill="#1e1e1e" x="268.4" y="489.5" width="48.8" height="24.65" shape-rendering="crispEdges"/><rect fill="#1e1e1e" x="317.2" y="489.5" width="48.8" height="24.65" shape-rendering="crispEdges"/><rect fill="#1e1e1e" x="366" y="489.5" width="439.2" height="24.65" shape-rendering="crispEdges"/><rect fill="#1e1e1e" x="805.2" y="489.5" width="12.2" height="24.65" shape-rendering="crispEdges"/><rect fill="#1e1e1e" x="817.4" y="489.5" width="24.4" height="24.65" shape-rendering="crispEdges"/><rect fill="#1e1e1e" x="841.8" y="489.5" width="97.6" height="24.65" shape-rendering="crispEdges"/><rect fill="#1e1e1e" x="939.4" y="489.5" width="12.2" height="24.65" shape-rendering="crispEdges"/><rect fill="#1e1e1e" x="951.6" y="489.5" width="12.2" height="24.65" shape-rendering="crispEdges"/><rect fill="#1e1e1e" x="963.8" y="489.5" width="12.2" height="24.65" shape-rendering="crispEdges"/><rect fill="#1e1e1e" x="0" y="513.9" width="12.2" height="24.65" shape-rendering="crispEdges"/><rect fill="#1e1e1e" x="12.2" y="513.9" width="951.6" height="24.65" shape-rendering="crispEdges"/><rect fill="#1e1e1e" x="963.8" y="513.9" width="12.2" height="24.65" shape-rendering="crispEdges"/><rect fill="#1e1e1e" x="0" y="538.3" width="12.2" height="24.65" shape-rendering="crispEdges"/><rect fill="#1e1e1e" x="12.2" y="538.3" width="951.6" height="24.65" shape-rendering="crispEdges"/><rect fill="#1e1e1e" x="963.8" y="538.3" width="12.2" height="24.65" shape-rendering="crispEdges"/><rect fill="#1e1e1e" x="0" y="562.7" width="976" height="24.65" shape-rendering="crispEdges"/>
    <g class="terminal-3749603721-matrix">
    <text class="terminal-3749603721-r2" x="12.2" y="20" textLength="12.2" clip-path="url(#terminal-3749603721-line-0)">⭘</text><text class="terminal-3749603721-r2" x="183" y="20" textLength="353.8" clip-path="url(#terminal-3749603721-line-0)">PowerBI&#160;CLI&#160;-&#160;Interactive&#160;TUI</text><text class="terminal-3749603721-r3" x="536.8" y="20" textLength="36.6" clip-path="url(#terminal-3749603721-line-0)">&#160;—&#160;</text><text class="terminal-3749603721-r3" x="573.4" y="20" textLength="195.2" clip-path="url(#terminal-3749603721-line-0)">Press&#160;?&#160;for&#160;help</text><text class="terminal-3749603721-r1" x="976" y="20" textLength="12.2" clip-path="url(#terminal-3749603721-line-0)">
</text><text class="terminal-3749603721-r1" x="976" y="44.4" textLength="12.2" clip-path="url(#terminal-3749603721-line-1)">
</text><text class="terminal-3749603721-r4" x="24.4" y="68.8" textLength="12.2" clip-path="url(#terminal-3749603721-line-2)">▊</text><text class="terminal-3749603721-r5" x="36.6" y="68.8" textLength="244" clip-path="url(#terminal-3749603721-line-2)">▔▔▔▔▔▔▔▔▔▔▔▔▔▔▔▔▔▔▔▔</text><text class="terminal-3749603721-r5" x="280.6" y="68.8" textLength="12.2" clip-path="url(#terminal-3749603721-line-2)">▎</text><text class="terminal-3749603721-r4" x="353.8" y="68.8" textLength="12.2" clip-path="url(#terminal-3749603721-line-2)">▊</text><text class="terminal-3749603721-r5" x="366" y="68.8" textLength="244" clip-path="url(#terminal-3749603721-line-2)">▔▔▔▔▔▔▔▔▔▔▔▔▔▔▔▔▔▔▔▔</text><text class="terminal-3749603721-r5" x="610" y="68.8" textLength="12.2" clip-path="url(#terminal-3749603721-line-2)">▎</text><text class="terminal-3749603721-r4" x="683.2" y="68.8" textLength="12.2" clip-path="url(#terminal-3749603721-line-2)">▊</text><text class="terminal-3749603721-r5" x="695.4" y="68.8" textLength="244" clip-path="url(#terminal-3749603721-line-2)">▔▔▔▔▔▔▔▔▔▔▔▔▔▔▔▔▔▔▔▔</text><text class="terminal-3749603721-r5" x="939.4" y="68.8" textLength="12.2" clip-path="url(#terminal-3749603721-line-2)">▎</text><text class="terminal-3749603721-r1" x="976" y="68.8" textLength="12.2" clip-path="url(#terminal-3749603721-line-2)">
</text><text class="terminal-3749603721-r4" x="24.4" y="93.2" textLength="12.2" clip-path="url(#terminal-3749603721-line-3)">▊</text><text class="terminal-3749603721-r6" x="61" y="93.2" textLength="85.4" clip-path="url(#terminal-3749603721-line-3)">Profile</text><text class="terminal-3749603721-r6" x="244" y="93.2" textLength="12.2" clip-path="url(#terminal-3749603721-line-3)">▼</text><text class="terminal-3749603721-r5" x="280.6" y="93.2" textLength="12.2" clip-path="url(#terminal-3749603721-line-3)">▎</text><text class="terminal-3749603721-r4" x="353.8" y="93.2" textLength="12.2" clip-path="url(#terminal-3749603721-line-3)">▊</text><text class="terminal-3749603721-r6" x="390.4" y="93.2" textLength="158.6" clip-path="url(#terminal-3749603721-line-3)">Output&#160;Folder</text><text class="terminal-3749603721-r6" x="573.4" y="93.2" textLength="12.2" clip-path="url(#terminal-3749603721-line-3)">▼</text><text class="terminal-3749603721-r5" x="610" y="93.2" textLength="12.2" clip-path="url(#terminal-3749603721-line-3)">▎</text><text class="terminal-3749603721-r4" x="683.2" y="93.2" textLength="12.2" clip-path="url(#terminal-3749603721-line-3)">▊</text><text class="terminal-3749603721-r6" x="719.8" y="93.2" textLength="73.2" clip-path="url(#terminal-3749603721-line-3)">Status</text><text class="terminal-3749603721-r6" x="902.8" y="93.2" textLength="12.2" clip-path="url(#terminal-3749603721-line-3)">▼</text><text class="terminal-3749603721-r5" x="939.4" y="93.2" textLength="12.2" clip-path="url(#terminal-3749603721-line-3)">▎</text><text class="terminal-3749603721-r1" x="976" y="93.2" textLength="12.2" clip-path="url(#terminal-3749603721-line-3)">
</text><text class="terminal-3749603721-r4" x="24.4" y="117.6" textLength="12.2" clip-path="url(#terminal-3749603721-line-4)">▊</text><text class="terminal-3749603721-r5" x="36.6" y="117.6" textLength="244" clip-path="url(#terminal-3749603721-line-4)">▁▁▁▁▁▁▁▁▁▁▁▁▁▁▁▁▁▁▁▁</text><text class="terminal-3749603721-r5" x="280.6" y="117.6" textLength="12.2" clip-path="url(#terminal-3749603721-line-4)">▎</text><text class="terminal-3749603721-r4" x="353.8" y="117.6" textLength="12.2" clip-path="url(#terminal-3749603721-line-4)">▊</text><text class="terminal-3749603721-r5" x="366" y="117.6" textLength="244" clip-path="url(#terminal-3749603721-line-4)">▁▁▁▁▁▁▁▁▁▁▁▁▁▁▁▁▁▁▁▁</text><text class="terminal-3749603721-r5" x="610" y="117.6" textLength="12.2" clip-path="url(#terminal-3749603721-line-4)">▎</text><text class="terminal-3749603721-r4" x="683.2" y="117.6" textLength="12.2" clip-path="url(#terminal-3749603721-line-4)">▊</text><text class="terminal-3749603721-r5" x="695.4" y="117.6" textLength="244" clip-path="url(#terminal-3749603721-line-4)">▁▁▁▁▁▁▁▁▁▁▁▁▁▁▁▁▁▁▁▁</text><text class="terminal-3749603721-r5" x="939.4" y="117.6" textLength="12.2" clip-path="url(#terminal-3749603721-line-4)">▎</text><text class="terminal-3749603721-r1" x="976" y="117.6" textLength="12.2" clip-path="url(#terminal-3749603721-line-4)">
</text><text class="terminal-3749603721-r1" x="976" y="142" textLength="12.2" clip-path="url(#terminal-3749603721-line-5)">
</text><text class="terminal-3749603721-r1" x="976" y="166.4" textLength="12.2" clip-path="url(#terminal-3749603721-line-6)">
</text><text class="terminal-3749603721-r7" x="0" y="190.8" textLength="12.2" clip-path="url(#terminal-3749603721-line-7)">╭</text><text class="terminal-3749603721-r7" x="12.2" y="190.8" textLength="122" clip-path="url(#terminal-3749603721-line-7)">──────────</text><text class="terminal-3749603721-r7" x="134.2" y="190.8" textLength="12.2" clip-path="url(#terminal-3749603721-line-7)">╮</text><text class="terminal-3749603721-r8" x="158.6" y="190.8" textLength="12.2" clip-path="url(#terminal-3749603721-line-7)">╭</text><text class="terminal-3749603721-r8" x="170.8" y="190.8" textLength="134.2" clip-path="url(#terminal-3749603721-line-7)">───────────</text><text class="terminal-3749603721-r8" x="305" y="190.8" textLength="12.2" clip-path="url(#terminal-3749603721-line-7)">╮</text><text class="terminal-3749603721-r8" x="329.4" y="190.8" textLength="12.2" clip-path="url(#terminal-3749603721-line-7)">╭</text><text class="terminal-3749603721-r8" x="341.6" y="190.8" textLength="122" clip-path="url(#terminal-3749603721-line-7)">──────────</text><text class="terminal-3749603721-r8" x="463.6" y="190.8" textLength="12.2" clip-path="url(#terminal-3749603721-line-7)">╮</text><text class="terminal-3749603721-r8" x="488" y="190.8" textLength="12.2" clip-path="url(#terminal-3749603721-line-7)">╭</text><text class="terminal-3749603721-r8" x="500.2" y="190.8" textLength="134.2" clip-path="url(#terminal-3749603721-line-7)">───────────</text><text class="terminal-3749603721-r8" x="634.4" y="190.8" textLength="12.2" clip-path="url(#terminal-3749603721-line-7)">╮</text><text class="terminal-3749603721-r8" x="658.8" y="190.8" textLength="12.2" clip-path="url(#terminal-3749603721-line-7)">╭</text><text class="terminal-3749603721-r8" x="671" y="190.8" textLength="122" clip-path="url(#terminal-3749603721-line-7)">──────────</text><text class="terminal-3749603721-r8" x="793" y="190.8" textLength="12.2" clip-path="url(#terminal-3749603721-line-7)">╮</text><text class="terminal-3749603721-r8" x="817.4" y="190.8" textLength="12.2" clip-path="url(#terminal-3749603721-line-7)">╭</text><text class="terminal-3749603721-r8" x="829.6" y="190.8" textLength="134.2" clip-path="url(#terminal-3749603721-line-7)">───────────</text><text class="terminal-3749603721-r8" x="963.8" y="190.8" textLength="12.2" clip-path="url(#terminal-3749603721-line-7)">╮</text><text class="terminal-3749603721-r1" x="976" y="190.8" textLength="12.2" clip-path="url(#terminal-3749603721-line-7)">
</text><text class="terminal-3749603721-r7" x="0" y="215.2" textLength="12.2" clip-path="url(#terminal-3749603721-line-8)">│</text><text class="terminal-3749603721-r9" x="36.6" y="215.2" textLength="61" clip-path="url(#terminal-3749603721-line-8)">&#160;[1]&#160;</text><text class="terminal-3749603721-r7" x="134.2" y="215.2" textLength="12.2" clip-path="url(#terminal-3749603721-line-8)">│</text><text class="terminal-3749603721-r8" x="158.6" y="215.2" textLength="12.2" clip-path="url(#terminal-3749603721-line-8)">│</text><text class="terminal-3749603721-r10" x="207.4" y="215.2" textLength="61" clip-path="url(#terminal-3749603721-line-8)">&#160;[2]&#160;</text><text class="terminal-3749603721-r8" x="305" y="215.2" textLength="12.2" clip-path="url(#terminal-3749603721-line-8)">│</text><text class="terminal-3749603721-r8" x="329.4" y="215.2" textLength="12.2" clip-path="url(#terminal-3749603721-line-8)">│</text><text class="terminal-3749603721-r10" x="366" y="215.2" textLength="61" clip-path="url(#terminal-3749603721-line-8)">&#160;[3]&#160;</text><text class="terminal-3749603721-r8" x="463.6" y="215.2" textLength="12.2" clip-path="url(#terminal-3749603721-line-8)">│</text><text class="terminal-3749603721-r8" x="488" y="215.2" textLength="12.2" clip-path="url(#terminal-3749603721-line-8)">│</text><text class="terminal-3749603721-r10" x="500.2" y="215.2" textLength="122" clip-path="url(#terminal-3749603721-line-8)">&#160;[4]&#160;Apps&#160;</text><text class="terminal-3749603721-r8" x="634.4" y="215.2" textLength="12.2" clip-path="url(#terminal-3749603721-line-8)">│</text><text class="terminal-3749603721-r8" x="658.8" y="215.2" textLength="12.2" clip-path="url(#terminal-3749603721-line-8)">│</text><text class="terminal-3749603721-r10" x="695.4" y="215.2" textLength="61" clip-path="url(#terminal-3749603721-line-8)">&#160;[5]&#160;</text><text class="terminal-3749603721-r8" x="793" y="215.2" textLength="12.2" clip-path="url(#terminal-3749603721-line-8)">│</text><text class="terminal-3749603721-r8" x="817.4" y="215.2" textLength="12.2" clip-path="url(#terminal-3749603721-line-8)">│</text><text class="terminal-3749603721-r10" x="829.6" y="215.2" textLength="134.2" clip-path="url(#terminal-3749603721-line-8)">&#160;[6]&#160;Users&#160;</text><text class="terminal-3749603721-r8" x="963.8" y="215.2" textLength="12.2" clip-path="url(#terminal-3749603721-line-8)">│</text><text class="terminal-3749603721-r1" x="976" y="215.2" textLength="12.2" clip-path="url(#terminal-3749603721-line-8)">
</text><text class="terminal-3749603721-r7" x="0" y="239.6" textLength="12.2" clip-path="url(#terminal-3749603721-line-9)">╰</text><text class="terminal-3749603721-r7" x="12.2" y="239.6" textLength="122" clip-path="url(#terminal-3749603721-line-9)">──────────</text><text class="terminal-3749603721-r7" x="134.2" y="239.6" textLength="12.2" clip-path="url(#terminal-3749603721-line-9)">╯</text><text class="terminal-3749603721-r8" x="158.6" y="239.6" textLength="12.2" clip-path="url(#terminal-3749603721-line-9)">╰</text><text class="terminal-3749603721-r8" x="170.8" y="239.6" textLength="134.2" clip-path="url(#terminal-3749603721-line-9)">───────────</text><text class="terminal-3749603721-r8" x="305" y="239.6" textLength="12.2" clip-path="url(#terminal-3749603721-line-9)">╯</text><text class="terminal-3749603721-r8" x="329.4" y="239.6" textLength="12.2" clip-path="url(#terminal-3749603721-line-9)">╰</text><text class="terminal-3749603721-r8" x="341.6" y="239.6" textLength="122" clip-path="url(#terminal-3749603721-line-9)">──────────</text><text class="terminal-3749603721-r8" x="463.6" y="239.6" textLength="12.2" clip-path="url(#terminal-3749603721-line-9)">╯</text><text class="terminal-3749603721-r8" x="488" y="239.6" textLength="12.2" clip-path="url(#terminal-3749603721-line-9)">╰</text><text class="terminal-3749603721-r8" x="500.2" y="239.6" textLength="134.2" clip-path="url(#terminal-3749603721-line-9)">───────────</text><text class="terminal-3749603721-r8" x="634.4" y="239.6" textLength="12.2" clip-path="url(#terminal-3749603721-line-9)">╯</text><text class="terminal-3749603721-r8" x="658.8" y="239.6" textLength="12.2" clip-path="url(#terminal-3749603721-line-9)">╰</text><text class="terminal-3749603721-r8" x="671" y="239.6" textLength="122" clip-path="url(#terminal-3749603721-line-9)">──────────</text><text class="terminal-3749603721-r8" x="793" y="239.6" textLength="12.2" clip-path="url(#terminal-3749603721-line-9)">╯</text><text class="terminal-3749603721-r8" x="817.4" y="239.6" textLength="12.2" clip-path="url(#terminal-3749603721-line-9)">╰</text><text class="terminal-3749603721-r8" x="829.6" y="239.6" textLength="134.2" clip-path="url(#terminal-3749603721-line-9)">───────────</text><text class="terminal-3749603721-r8" x="963.8" y="239.6" textLength="12.2" clip-path="url(#terminal-3749603721-line-9)">╯</text><text class="terminal-3749603721-r1" x="976" y="239.6" textLength="12.2" clip-path="url(#terminal-3749603721-line-9)">
</text><text class="terminal-3749603721-r1" x="976" y="264" textLength="12.2" clip-path="url(#terminal-3749603721-line-10)">
</text><text class="terminal-3749603721-r8" x="0" y="288.4" textLength="12.2" clip-path="url(#terminal-3749603721-line-11)">╭</text><text class="terminal-3749603721-r8" x="12.2" y="288.4" textLength="951.6" clip-path="url(#terminal-3749603721-line-11)">──────────────────────────────────────────────────────────────────────────────</text><text class="terminal-3749603721-r8" x="963.8" y="288.4" textLength="12.2" clip-path="url(#terminal-3749603721-line-11)">╮</text><text class="terminal-3749603721-r1" x="976" y="288.4" textLength="12.2" clip-path="url(#terminal-3749603721-line-11)">
</text><text class="terminal-3749603721-r8" x="0" y="312.8" textLength="12.2" clip-path="url(#terminal-3749603721-line-12)">│</text><text class="terminal-3749603721-r8" x="963.8" y="312.8" textLength="12.2" clip-path="url(#terminal-3749603721-line-12)">│</text><text class="terminal-3749603721-r1" x="976" y="312.8" textLength="12.2" clip-path="url(#terminal-3749603721-line-12)">
</text><text class="terminal-3749603721-r8" x="0" y="337.2" textLength="12.2" clip-path="url(#terminal-3749603721-line-13)">│</text><text class="terminal-3749603721-r11" x="24.4" y="337.2" textLength="305" clip-path="url(#terminal-3749603721-line-13)">Authentication&#160;-&#160;Profiles</text><text class="terminal-3749603721-r8" x="963.8" y="337.2" textLength="12.2" clip-path="url(#terminal-3749603721-line-13)">│</text><text class="terminal-3749603721-r1" x="976" y="337.2" textLength="12.2" clip-path="url(#terminal-3749603721-line-13)">
</text><text class="terminal-3749603721-r8" x="0" y="361.6" textLength="12.2" clip-path="url(#terminal-3749603721-line-14)">│</text><text class="terminal-3749603721-r8" x="963.8" y="361.6" textLength="12.2" clip-path="url(#terminal-3749603721-line-14)">│</text><text class="terminal-3749603721-r1" x="976" y="361.6" textLength="12.2" clip-path="url(#terminal-3749603721-line-14)">
</text><text class="terminal-3749603721-r8" x="0" y="386" textLength="12.2" clip-path="url(#terminal-3749603721-line-15)">│</text><text class="terminal-3749603721-r8" x="12.2" y="386" textLength="951.6" clip-path="url(#terminal-3749603721-line-15)">──────────────────────────────────────────────────────────────────────────────</text><text class="terminal-3749603721-r8" x="963.8" y="386" textLength="12.2" clip-path="url(#terminal-3749603721-line-15)">│</text><text class="terminal-3749603721-r1" x="976" y="386" textLength="12.2" clip-path="url(#terminal-3749603721-line-15)">
</text><text class="terminal-3749603721-r8" x="0" y="410.4" textLength="12.2" clip-path="url(#terminal-3749603721-line-16)">╰</text><text class="terminal-3749603721-r8" x="12.2" y="410.4" textLength="951.6" clip-path="url(#terminal-3749603721-line-16)">──────────────────────────────────────────────────────────────────────────────</text><text class="terminal-3749603721-r8" x="963.8" y="410.4" textLength="12.2" clip-path="url(#terminal-3749603721-line-16)">╯</text><text class="terminal-3749603721-r1" x="976" y="410.4" textLength="12.2" clip-path="url(#terminal-3749603721-line-16)">
</text><text class="terminal-3749603721-r1" x="976" y="434.8" textLength="12.2" clip-path="url(#terminal-3749603721-line-17)">
</text><text class="terminal-3749603721-r8" x="0" y="459.2" textLength="12.2" clip-path="url(#terminal-3749603721-line-18)">╭</text><text class="terminal-3749603721-r8" x="12.2" y="459.2" textLength="951.6" clip-path="url(#terminal-3749603721-line-18)">──────────────────────────────────────────────────────────────────────────────</text><text class="terminal-3749603721-r8" x="963.8" y="459.2" textLength="12.2" clip-path="url(#terminal-3749603721-line-18)">╮</text><text class="terminal-3749603721-r1" x="976" y="459.2" textLength="12.2" clip-path="url(#terminal-3749603721-line-18)">
</text><text class="terminal-3749603721-r8" x="0" y="483.6" textLength="12.2" clip-path="url(#terminal-3749603721-line-19)">│</text><text class="terminal-3749603721-r8" x="963.8" y="483.6" textLength="12.2" clip-path="url(#terminal-3749603721-line-19)">│</text><text class="terminal-3749603721-r1" x="976" y="483.6" textLength="12.2" clip-path="url(#terminal-3749603721-line-19)">
</text><text class="terminal-3749603721-r8" x="0" y="508" textLength="12.2" clip-path="url(#terminal-3749603721-line-20)">│</text><text class="terminal-3749603721-r12" x="24.4" y="508" textLength="36.6" clip-path="url(#terminal-3749603721-line-20)">&#160;q&#160;</text><text class="terminal-3749603721-r13" x="61" y="508" textLength="61" clip-path="url(#terminal-3749603721-line-20)">Quit&#160;</text><text class="terminal-3749603721-r12" x="122" y="508" textLength="48.8" clip-path="url(#terminal-3749603721-line-20)">&#160;^r&#160;</text><text class="terminal-3749603721-r13" x="170.8" y="508" textLength="97.6" clip-path="url(#terminal-3749603721-line-20)">Refresh&#160;</text><text class="terminal-3749603721-r12" x="268.4" y="508" textLength="48.8" clip-path="url(#terminal-3749603721-line-20)">&#160;^n&#160;</text><text class="terminal-3749603721-r13" x="317.2" y="508" textLength="48.8" clip-path="url(#terminal-3749603721-line-20)">New&#160;</text><text class="terminal-3749603721-r14" x="805.2" y="508" textLength="12.2" clip-path="url(#terminal-3749603721-line-20)">▏</text><text class="terminal-3749603721-r12" x="817.4" y="508" textLength="24.4" clip-path="url(#terminal-3749603721-line-20)">^p</text><text class="terminal-3749603721-r13" x="841.8" y="508" textLength="97.6" clip-path="url(#terminal-3749603721-line-20)">&#160;palette</text><text class="terminal-3749603721-r8" x="963.8" y="508" textLength="12.2" clip-path="url(#terminal-3749603721-line-20)">│</text><text class="terminal-3749603721-r1" x="976" y="508" textLength="12.2" clip-path="url(#terminal-3749603721-line-20)">
</text><text class="terminal-3749603721-r8" x="0" y="532.4" textLength="12.2" clip-path="url(#terminal-3749603721-line-21)">│</text><text class="terminal-3749603721-r8" x="963.8" y="532.4" textLength="12.2" clip-path="url(#terminal-3749603721-line-21)">│</text><text class="terminal-3749603721-r1" x="976" y="532.4" textLength="12.2" clip-path="url(#terminal-3749603721-line-21)">
</text><text class="terminal-3749603721-r8" x="0" y="556.8" textLength="12.2" clip-path="url(#terminal-3749603721-line-22)">╰</text><text class="terminal-3749603721-r8" x="12.2" y="556.8" textLength="951.6" clip-path="url(#terminal-3749603721-line-22)">──────────────────────────────────────────────────────────────────────────────</text><text class="terminal-3749603721-r8" x="963.8" y="556.8" textLength="12.2" clip-path="url(#terminal-3749603721-line-22)">╯</text><text class="terminal-3749603721-r1" x="976" y="556.8" textLength="12.2" clip-path="url(#terminal-3749603721-line-22)">
</text>
    </g>
    </g>
</svg>
