<svg class="rich-terminal" viewBox="0 0 994 635.5999999999999" xmlns="http://www.w3.org/2000/svg">
    <!-- Generated with Rich https://www.textualize.io -->
    <style>

    @font-face {
        font-family: "Fira Code";
        src: local("FiraCode-Regular"),
                url("https://cdnjs.cloudflare.com/ajax/libs/firacode/6.2.0/woff2/FiraCode-Regular.woff2") format("woff2"),
                url("https://cdnjs.cloudflare.com/ajax/libs/firacode/6.2.0/woff/FiraCode-Regular.woff") format("woff");
        font-style: normal;
        font-weight: 400;
    }
    @font-face {
        font-family: "Fira Code";
        src: local("FiraCode-Bold"),
                url("https://cdnjs.cloudflare.com/ajax/libs/firacode/6.2.0/woff2/FiraCode-Bold.woff2") format("woff2"),
                url("https://cdnjs.cloudflare.com/ajax/libs/firacode/6.2.0/woff/FiraCode-Bold.woff") format("woff");
        font-style: bold;
        font-weight: 700;
    }

    .terminal-312312575-matrix {
        font-family: Fira Code, monospace;
        font-size: 20px;
        line-height: 24.4px;
        font-variant-east-asian: full-width;
    }

    .terminal-312312575-title {
        font-size: 18px;
        font-weight: bold;
        font-family: arial;
    }

    .terminal-312312575-r1 { fill: #c5c8c6 }
.terminal-312312575-r2 { fill: #e0e0e0 }
.terminal-312312575-r3 { fill: #a0a3a6 }
.terminal-312312575-r4 { fill: #ffff00 }
.terminal-312312575-r5 { fill: #368ae9 }
.terminal-312312575-r6 { fill: #e0e0e0;font-weight: bold }
.terminal-312312575-r7 { fill: #7ae998 }
.terminal-312312575-r8 { fill: #6db2ff }
.terminal-312312575-r9 { fill: #e76580 }
.terminal-312312575-r10 { fill: #2d2d2d }
.terminal-312312575-r11 { fill: #0a180e;font-weight: bold }
.terminal-312312575-r12 { fill: #ddedf9;font-weight: bold }
.terminal-312312575-r13 { fill: #f5e5e9;font-weight: bold }
.terminal-312312575-r14 { fill: #008139 }
.terminal-312312575-r15 { fill: #0d0d0d }
.terminal-312312575-r16 { fill: #004295 }
.terminal-312312575-r17 { fill: #780028 }
.terminal-312312575-r18 { fill: #ffa62b;font-weight: bold }
.terminal-312312575-r19 { fill: #495259 }
    </style>

    <defs>
    <clipPath id="terminal-312312575-clip-terminal">
      <rect x="0" y="0" width="975.0" height="584.5999999999999" />
    </clipPath>
    <clipPath id="terminal-312312575-line-0">
    <rect x="0" y="1.5" width="976" height="24.65"/>
            </clipPath>
<clipPath id="terminal-312312575-line-1">
    <rect x="0" y="25.9" width="976" height="24.65"/>
            </clipPath>
<clipPath id="terminal-312312575-line-2">
    <rect x="0" y="50.3" width="976" height="24.65"/>
            </clipPath>
<clipPath id="terminal-312312575-line-3">
    <rect x="0" y="74.7" width="976" height="24.65"/>
            </clipPath>
<clipPath id="terminal-312312575-line-4">
    <rect x="0" y="99.1" width="976" height="24.65"/>
            </clipPath>
<clipPath id="terminal-312312575-line-5">
    <rect x="0" y="123.5" width="976" height="24.65"/>
            </clipPath>
<clipPath id="terminal-312312575-line-6">
    <rect x="0" y="147.9" width="976" height="24.65"/>
            </clipPath>
<clipPath id="terminal-312312575-line-7">
    <rect x="0" y="172.3" width="976" height="24.65"/>
            </clipPath>
<clipPath id="terminal-312312575-line-8">
    <rect x="0" y="196.7" width="976" height="24.65"/>
            </clipPath>
<clipPath id="terminal-312312575-line-9">
    <rect x="0" y="221.1" width="976" height="24.65"/>
            </clipPath>
<clipPath id="terminal-312312575-line-10">
    <rect x="0" y="245.5" width="976" height="24.65"/>
            </clipPath>
<clipPath id="terminal-312312575-line-11">
    <rect x="0" y="269.9" width="976" height="24.65"/>
            </clipPath>
<clipPath id="terminal-312312575-line-12">
    <rect x="0" y="294.3" width="976" height="24.65"/>
            </clipPath>
<clipPath id="terminal-312312575-line-13">
    <rect x="0" y="318.7" width="976" height="24.65"/>
            </clipPath>
<clipPath id="terminal-312312575-line-14">
    <rect x="0" y="343.1" width="976" height="24.65"/>
            </clipPath>
<clipPath id="terminal-312312575-line-15">
    <rect x="0" y="367.5" width="976" height="24.65"/>
            </clipPath>
<clipPath id="terminal-312312575-line-16">
    <rect x="0" y="391.9" width="976" height="24.65"/>
            </clipPath>
<clipPath id="terminal-312312575-line-17">
    <rect x="0" y="416.3" width="976" height="24.65"/>
            </clipPath>
<clipPath id="terminal-312312575-line-18">
    <rect x="0" y="440.7" width="976" height="24.65"/>
            </clipPath>
<clipPath id="terminal-312312575-line-19">
    <rect x="0" y="465.1" width="976" height="24.65"/>
            </clipPath>
<clipPath id="terminal-312312575-line-20">
    <rect x="0" y="489.5" width="976" height="24.65"/>
            </clipPath>
<clipPath id="terminal-312312575-line-21">
    <rect x="0" y="513.9" width="976" height="24.65"/>
            </clipPath>
<clipPath id="terminal-312312575-line-22">
    <rect x="0" y="538.3" width="976" height="24.65"/>
            </clipPath>
    </defs>

    <rect fill="#292929" stroke="rgba(255,255,255,0.35)" stroke-width="1" x="1" y="1" width="992" height="633.6" rx="8"/><text class="terminal-312312575-title" fill="#c5c8c6" text-anchor="middle" x="496" y="27">PowerBI&#160;CLI&#160;-&#160;Interactive&#160;TUI</text>
            <g transform="translate(26,22)">
            <circle cx="0" cy="0" r="7" fill="#ff5f57"/>
            <circle cx="22" cy="0" r="7" fill="#febc2e"/>
            <circle cx="44" cy="0" r="7" fill="#28c840"/>
            </g>
        
    <g transform="translate(9, 41)" clip-path="url(#terminal-312312575-clip-terminal)">
    <rect fill="#242f38" x="0" y="1.5" width="12.2" height="24.65" shape-rendering="crispEdges"/><rect fill="#242f38" x="12.2" y="1.5" width="12.2" height="24.65" shape-rendering="crispEdges"/><rect fill="#242f38" x="24.4" y="1.5" width="61" height="24.65" shape-rendering="crispEdges"/><rect fill="#242f38" x="85.4" y="1.5" width="12.2" height="24.65" shape-rendering="crispEdges"/><rect fill="#242f38" x="97.6" y="1.5" width="85.4" height="24.65" shape-rendering="crispEdges"/><rect fill="#242f38" x="183" y="1.5" width="353.8" height="24.65" shape-rendering="crispEdges"/><rect fill="#242f38" x="536.8" y="1.5" width="36.6" height="24.65" shape-rendering="crispEdges"/><rect fill="#242f38" x="573.4" y="1.5" width="195.2" height="24.65" shape-rendering="crispEdges"/><rect fill="#242f38" x="768.6" y="1.5" width="85.4" height="24.65" shape-rendering="crispEdges"/><rect fill="#242f38" x="854" y="1.5" width="12.2" height="24.65" shape-rendering="crispEdges"/><rect fill="#242f38" x="866.2" y="1.5" width="0" height="24.65" shape-rendering="crispEdges"/><rect fill="#242f38" x="866.2" y="1.5" width="97.6" height="24.65" shape-rendering="crispEdges"/><rect fill="#242f38" x="963.8" y="1.5" width="12.2" height="24.65" shape-rendering="crispEdges"/><rect fill="#121212" x="0" y="25.9" width="305" height="24.65" shape-rendering="crispEdges"/><rect fill="#121212" x="305" y="25.9" width="671" height="24.65" shape-rendering="crispEdges"/><rect fill="#121212" x="0" y="50.3" width="976" height="24.65" shape-rendering="crispEdges"/><rect fill="#121212" x="0" y="74.7" width="622.2" height="24.65" shape-rendering="crispEdges"/><rect fill="#121212" x="622.2" y="74.7" width="353.8" height="24.65" shape-rendering="crispEdges"/><rect fill="#121212" x="0" y="99.1" width="976" height="24.65" shape-rendering="crispEdges"/><rect fill="#121212" x="0" y="123.5" width="976" height="24.65" shape-rendering="crispEdges"/><rect fill="#272727" x="0" y="147.9" width="12.2" height="24.65" shape-rendering="crispEdges"/><rect fill="#272727" x="12.2" y="147.9" width="951.6" height="24.65" shape-rendering="crispEdges"/><rect fill="#272727" x="963.8" y="147.9" width="12.2" height="24.65" shape-rendering="crispEdges"/><rect fill="#272727" x="0" y="172.3" width="12.2" height="24.65" shape-rendering="crispEdges"/><rect fill="#272727" x="12.2" y="172.3" width="951.6" height="24.65" shape-rendering="crispEdges"/><rect fill="#272727" x="963.8" y="172.3" width="12.2" height="24.65" shape-rendering="crispEdges"/><rect fill="#272727" x="0" y="196.7" width="12.2" height="24.65" shape-rendering="crispEdges"/><rect fill="#272727" x="12.2" y="196.7" width="12.2" height="24.65" shape-rendering="crispEdges"/><rect fill="#2d3740" x="24.4" y="196.7" width="97.6" height="24.65" shape-rendering="crispEdges"/><rect fill="#2d3740" x="122" y="196.7" width="109.8" height="24.65" shape-rendering="crispEdges"/><rect fill="#2d3740" x="231.8" y="196.7" width="97.6" height="24.65" shape-rendering="crispEdges"/><rect fill="#2d3740" x="329.4" y="196.7" width="170.8" height="24.65" shape-rendering="crispEdges"/><rect fill="#2b3339" x="500.2" y="196.7" width="451.4" height="24.65" shape-rendering="crispEdges"/><rect fill="#272727" x="951.6" y="196.7" width="12.2" height="24.65" shape-rendering="crispEdges"/><rect fill="#272727" x="963.8" y="196.7" width="12.2" height="24.65" shape-rendering="crispEdges"/><rect fill="#272727" x="0" y="221.1" width="12.2" height="24.65" shape-rendering="crispEdges"/><rect fill="#272727" x="12.2" y="221.1" width="951.6" height="24.65" shape-rendering="crispEdges"/><rect fill="#272727" x="963.8" y="221.1" width="12.2" height="24.65" shape-rendering="crispEdges"/><rect fill="#272727" x="0" y="245.5" width="12.2" height="24.65" shape-rendering="crispEdges"/><rect fill="#272727" x="12.2" y="245.5" width="951.6" height="24.65" shape-rendering="crispEdges"/><rect fill="#272727" x="963.8" y="245.5" width="12.2" height="24.65" shape-rendering="crispEdges"/><rect fill="#121212" x="0" y="269.9" width="976" height="24.65" shape-rendering="crispEdges"/><rect fill="#121212" x="0" y="294.3" width="976" height="24.65" shape-rendering="crispEdges"/><rect fill="#4ebf71" x="0" y="318.7" width="231.8" height="24.65" shape-rendering="crispEdges"/><rect fill="#121212" x="231.8" y="318.7" width="12.2" height="24.65" shape-rendering="crispEdges"/><rect fill="#0178d4" x="244" y="318.7" width="231.8" height="24.65" shape-rendering="crispEdges"/><rect fill="#121212" x="475.8" y="318.7" width="12.2" height="24.65" shape-rendering="crispEdges"/><rect fill="#b93c5b" x="488" y="318.7" width="231.8" height="24.65" shape-rendering="crispEdges"/><rect fill="#121212" x="719.8" y="318.7" width="12.2" height="24.65" shape-rendering="crispEdges"/><rect fill="#1e1e1e" x="732" y="318.7" width="244" height="24.65" shape-rendering="crispEdges"/><rect fill="#4ebf71" x="0" y="343.1" width="12.2" height="24.65" shape-rendering="crispEdges"/><rect fill="#4ebf71" x="12.2" y="343.1" width="207.4" height="24.65" shape-rendering="crispEdges"/><rect fill="#4ebf71" x="219.6" y="343.1" width="12.2" height="24.65" shape-rendering="crispEdges"/><rect fill="#121212" x="231.8" y="343.1" width="12.2" height="24.65" shape-rendering="crispEdges"/><rect fill="#0178d4" x="244" y="343.1" width="12.2" height="24.65" shape-rendering="crispEdges"/><rect fill="#0178d4" x="256.2" y="343.1" width="195.2" height="24.65" shape-rendering="crispEdges"/><rect fill="#0178d4" x="451.4" y="343.1" width="24.4" height="24.65" shape-rendering="crispEdges"/><rect fill="#121212" x="475.8" y="343.1" width="12.2" height="24.65" shape-rendering="crispEdges"/><rect fill="#b93c5b" x="488" y="343.1" width="12.2" height="24.65" shape-rendering="crispEdges"/><rect fill="#b93c5b" x="500.2" y="343.1" width="195.2" height="24.65" shape-rendering="crispEdges"/><rect fill="#b93c5b" x="695.4" y="343.1" width="24.4" height="24.65" shape-rendering="crispEdges"/><rect fill="#121212" x="719.8" y="343.1" width="12.2" height="24.65" shape-rendering="crispEdges"/><rect fill="#1e1e1e" x="732" y="343.1" width="36.6" height="24.65" shape-rendering="crispEdges"/><rect fill="#1e1e1e" x="768.6" y="343.1" width="158.6" height="24.65" shape-rendering="crispEdges"/><rect fill="#1e1e1e" x="927.2" y="343.1" width="48.8" height="24.65" shape-rendering="crispEdges"/><rect fill="#4ebf71" x="0" y="367.5" width="231.8" height="24.65" shape-rendering="crispEdges"/><rect fill="#121212" x="231.8" y="367.5" width="12.2" height="24.65" shape-rendering="crispEdges"/><rect fill="#0178d4" x="244" y="367.5" width="85.4" height="24.65" shape-rendering="crispEdges"/><rect fill="#0178d4" x="329.4" y="367.5" width="61" height="24.65" shape-rendering="crispEdges"/><rect fill="#0178d4" x="390.4" y="367.5" width="85.4" height="24.65" shape-rendering="crispEdges"/><rect fill="#121212" x="475.8" y="367.5" width="12.2" height="24.65" shape-rendering="crispEdges"/><rect fill="#b93c5b" x="488" y="367.5" width="85.4" height="24.65" shape-rendering="crispEdges"/><rect fill="#b93c5b" x="573.4" y="367.5" width="61" height="24.65" shape-rendering="crispEdges"/><rect fill="#b93c5b" x="634.4" y="367.5" width="85.4" height="24.65" shape-rendering="crispEdges"/><rect fill="#121212" x="719.8" y="367.5" width="12.2" height="24.65" shape-rendering="crispEdges"/><rect fill="#1e1e1e" x="732" y="367.5" width="244" height="24.65" shape-rendering="crispEdges"/><rect fill="#121212" x="0" y="391.9" width="244" height="24.65" shape-rendering="crispEdges"/><rect fill="#0178d4" x="244" y="391.9" width="231.8" height="24.65" shape-rendering="crispEdges"/><rect fill="#121212" x="475.8" y="391.9" width="12.2" height="24.65" shape-rendering="crispEdges"/><rect fill="#b93c5b" x="488" y="391.9" width="231.8" height="24.65" shape-rendering="crispEdges"/><rect fill="#121212" x="719.8" y="391.9" width="256.2" height="24.65" shape-rendering="crispEdges"/><rect fill="#121212" x="0" y="416.3" width="976" height="24.65" shape-rendering="crispEdges"/><rect fill="#242f38" x="0" y="440.7" width="12.2" height="24.65" shape-rendering="crispEdges"/><rect fill="#242f38" x="12.2" y="440.7" width="951.6" height="24.65" shape-rendering="crispEdges"/><rect fill="#242f38" x="963.8" y="440.7" width="12.2" height="24.65" shape-rendering="crispEdges"/><rect fill="#242f38" x="0" y="465.1" width="12.2" height="24.65" shape-rendering="crispEdges"/><rect fill="#242f38" x="12.2" y="465.1" width="951.6" height="24.65" shape-rendering="crispEdges"/><rect fill="#242f38" x="963.8" y="465.1" width="12.2" height="24.65" shape-rendering="crispEdges"/><rect fill="#242f38" x="0" y="489.5" width="12.2" height="24.65" shape-rendering="crispEdges"/><rect fill="#242f38" x="12.2" y="489.5" width="12.2" height="24.65" shape-rendering="crispEdges"/><rect fill="#242f38" x="24.4" y="489.5" width="61" height="24.65" shape-rendering="crispEdges"/><rect fill="#242f38" x="85.4" y="489.5" width="61" height="24.65" shape-rendering="crispEdges"/><rect fill="#242f38" x="146.4" y="489.5" width="36.6" height="24.65" shape-rendering="crispEdges"/><rect fill="#242f38" x="183" y="489.5" width="146.4" height="24.65" shape-rendering="crispEdges"/><rect fill="#242f38" x="329.4" y="489.5" width="36.6" height="24.65" shape-rendering="crispEdges"/><rect fill="#242f38" x="366" y="489.5" width="85.4" height="24.65" shape-rendering="crispEdges"/><rect fill="#242f38" x="451.4" y="489.5" width="36.6" height="24.65" shape-rendering="crispEdges"/><rect fill="#242f38" x="488" y="489.5" width="85.4" height="24.65" shape-rendering="crispEdges"/><rect fill="#242f38" x="573.4" y="489.5" width="36.6" height="24.65" shape-rendering="crispEdges"/><rect fill="#242f38" x="610" y="489.5" width="97.6" height="24.65" shape-rendering="crispEdges"/><rect fill="#242f38" x="707.6" y="489.5" width="97.6" height="24.65" shape-rendering="crispEdges"/><rect fill="#242f38" x="805.2" y="489.5" width="12.2" height="24.65" shape-rendering="crispEdges"/><rect fill="#242f38" x="817.4" y="489.5" width="24.4" height="24.65" shape-rendering="crispEdges"/><rect fill="#242f38" x="841.8" y="489.5" width="97.6" height="24.65" shape-rendering="crispEdges"/><rect fill="#242f38" x="939.4" y="489.5" width="12.2" height="24.65" shape-rendering="crispEdges"/><rect fill="#242f38" x="951.6" y="489.5" width="12.2" height="24.65" shape-rendering="crispEdges"/><rect fill="#242f38" x="963.8" y="489.5" width="12.2" height="24.65" shape-rendering="crispEdges"/><rect fill="#242f38" x="0" y="513.9" width="12.2" height="24.65" shape-rendering="crispEdges"/><rect fill="#242f38" x="12.2" y="513.9" width="951.6" height="24.65" shape-rendering="crispEdges"/><rect fill="#242f38" x="963.8" y="513.9" width="12.2" height="24.65" shape-rendering="crispEdges"/><rect fill="#242f38" x="0" y="538.3" width="12.2" height="24.65" shape-rendering="crispEdges"/><rect fill="#242f38" x="12.2" y="538.3" width="951.6" height="24.65" shape-rendering="crispEdges"/><rect fill="#242f38" x="963.8" y="538.3" width="12.2" height="24.65" shape-rendering="crispEdges"/><rect fill="#121212" x="0" y="562.7" width="976" height="24.65" shape-rendering="crispEdges"/>
    <g class="terminal-312312575-matrix">
    <text class="terminal-312312575-r2" x="12.2" y="20" textLength="12.2" clip-path="url(#terminal-312312575-line-0)">⭘</text><text class="terminal-312312575-r2" x="183" y="20" textLength="353.8" clip-path="url(#terminal-312312575-line-0)">PowerBI&#160;CLI&#160;-&#160;Interactive&#160;TUI</text><text class="terminal-312312575-r3" x="536.8" y="20" textLength="36.6" clip-path="url(#terminal-312312575-line-0)">&#160;—&#160;</text><text class="terminal-312312575-r3" x="573.4" y="20" textLength="195.2" clip-path="url(#terminal-312312575-line-0)">Press&#160;?&#160;for&#160;help</text><text class="terminal-312312575-r1" x="976" y="20" textLength="12.2" clip-path="url(#terminal-312312575-line-0)">
</text><text class="terminal-312312575-r2" x="0" y="44.4" textLength="305" clip-path="url(#terminal-312312575-line-1)">Authentication&#160;Management</text><text class="terminal-312312575-r1" x="976" y="44.4" textLength="12.2" clip-path="url(#terminal-312312575-line-1)">
</text><text class="terminal-312312575-r1" x="976" y="68.8" textLength="12.2" clip-path="url(#terminal-312312575-line-2)">
</text><text class="terminal-312312575-r4" x="0" y="93.2" textLength="622.2" clip-path="url(#terminal-312312575-line-3)">No&#160;profiles&#160;found.&#160;Use&#160;&#x27;Add&#160;Profile&#x27;&#160;to&#160;create&#160;one.</text><text class="terminal-312312575-r1" x="976" y="93.2" textLength="12.2" clip-path="url(#terminal-312312575-line-3)">
</text><text class="terminal-312312575-r1" x="976" y="117.6" textLength="12.2" clip-path="url(#terminal-312312575-line-4)">
</text><text class="terminal-312312575-r1" x="976" y="142" textLength="12.2" clip-path="url(#terminal-312312575-line-5)">
</text><text class="terminal-312312575-r5" x="0" y="166.4" textLength="12.2" clip-path="url(#terminal-312312575-line-6)">┌</text><text class="terminal-312312575-r5" x="12.2" y="166.4" textLength="951.6" clip-path="url(#terminal-312312575-line-6)">──────────────────────────────────────────────────────────────────────────────</text><text class="terminal-312312575-r5" x="963.8" y="166.4" textLength="12.2" clip-path="url(#terminal-312312575-line-6)">┐</text><text class="terminal-312312575-r1" x="976" y="166.4" textLength="12.2" clip-path="url(#terminal-312312575-line-6)">
</text><text class="terminal-312312575-r5" x="0" y="190.8" textLength="12.2" clip-path="url(#terminal-312312575-line-7)">│</text><text class="terminal-312312575-r5" x="963.8" y="190.8" textLength="12.2" clip-path="url(#terminal-312312575-line-7)">│</text><text class="terminal-312312575-r1" x="976" y="190.8" textLength="12.2" clip-path="url(#terminal-312312575-line-7)">
</text><text class="terminal-312312575-r5" x="0" y="215.2" textLength="12.2" clip-path="url(#terminal-312312575-line-8)">│</text><text class="terminal-312312575-r6" x="24.4" y="215.2" textLength="97.6" clip-path="url(#terminal-312312575-line-8)">&#160;Status&#160;</text><text class="terminal-312312575-r6" x="122" y="215.2" textLength="109.8" clip-path="url(#terminal-312312575-line-8)">&#160;Profile&#160;</text><text class="terminal-312312575-r6" x="231.8" y="215.2" textLength="97.6" clip-path="url(#terminal-312312575-line-8)">&#160;Active&#160;</text><text class="terminal-312312575-r6" x="329.4" y="215.2" textLength="170.8" clip-path="url(#terminal-312312575-line-8)">&#160;Token&#160;Exists&#160;</text><text class="terminal-312312575-r5" x="963.8" y="215.2" textLength="12.2" clip-path="url(#terminal-312312575-line-8)">│</text><text class="terminal-312312575-r1" x="976" y="215.2" textLength="12.2" clip-path="url(#terminal-312312575-line-8)">
</text><text class="terminal-312312575-r5" x="0" y="239.6" textLength="12.2" clip-path="url(#terminal-312312575-line-9)">│</text><text class="terminal-312312575-r5" x="963.8" y="239.6" textLength="12.2" clip-path="url(#terminal-312312575-line-9)">│</text><text class="terminal-312312575-r1" x="976" y="239.6" textLength="12.2" clip-path="url(#terminal-312312575-line-9)">
</text><text class="terminal-312312575-r5" x="0" y="264" textLength="12.2" clip-path="url(#terminal-312312575-line-10)">└</text><text class="terminal-312312575-r5" x="12.2" y="264" textLength="951.6" clip-path="url(#terminal-312312575-line-10)">──────────────────────────────────────────────────────────────────────────────</text><text class="terminal-312312575-r5" x="963.8" y="264" textLength="12.2" clip-path="url(#terminal-312312575-line-10)">┘</text><text class="terminal-312312575-r1" x="976" y="264" textLength="12.2" clip-path="url(#terminal-312312575-line-10)">
</text><text class="terminal-312312575-r1" x="976" y="288.4" textLength="12.2" clip-path="url(#terminal-312312575-line-11)">
</text><text class="terminal-312312575-r1" x="976" y="312.8" textLength="12.2" clip-path="url(#terminal-312312575-line-12)">
</text><text class="terminal-312312575-r7" x="0" y="337.2" textLength="231.8" clip-path="url(#terminal-312312575-line-13)">▔▔▔▔▔▔▔▔▔▔▔▔▔▔▔▔▔▔▔</text><text class="terminal-312312575-r8" x="244" y="337.2" textLength="231.8" clip-path="url(#terminal-312312575-line-13)">▔▔▔▔▔▔▔▔▔▔▔▔▔▔▔▔▔▔▔</text><text class="terminal-312312575-r9" x="488" y="337.2" textLength="231.8" clip-path="url(#terminal-312312575-line-13)">▔▔▔▔▔▔▔▔▔▔▔▔▔▔▔▔▔▔▔</text><text class="terminal-312312575-r10" x="732" y="337.2" textLength="244" clip-path="url(#terminal-312312575-line-13)">▔▔▔▔▔▔▔▔▔▔▔▔▔▔▔▔▔▔▔▔</text><text class="terminal-312312575-r1" x="976" y="337.2" textLength="12.2" clip-path="url(#terminal-312312575-line-13)">
</text><text class="terminal-312312575-r11" x="12.2" y="361.6" textLength="207.4" clip-path="url(#terminal-312312575-line-14)">&#160;Add&#160;Profile&#160;(A)&#160;</text><text class="terminal-312312575-r12" x="256.2" y="361.6" textLength="195.2" clip-path="url(#terminal-312312575-line-14)">&#160;Switch&#160;Profile&#160;</text><text class="terminal-312312575-r13" x="500.2" y="361.6" textLength="195.2" clip-path="url(#terminal-312312575-line-14)">&#160;Delete&#160;Profile&#160;</text><text class="terminal-312312575-r6" x="768.6" y="361.6" textLength="158.6" clip-path="url(#terminal-312312575-line-14)">&#160;Refresh&#160;(R)&#160;</text><text class="terminal-312312575-r1" x="976" y="361.6" textLength="12.2" clip-path="url(#terminal-312312575-line-14)">
</text><text class="terminal-312312575-r14" x="0" y="386" textLength="231.8" clip-path="url(#terminal-312312575-line-15)">▁▁▁▁▁▁▁▁▁▁▁▁▁▁▁▁▁▁▁</text><text class="terminal-312312575-r12" x="329.4" y="386" textLength="61" clip-path="url(#terminal-312312575-line-15)">&#160;(S)&#160;</text><text class="terminal-312312575-r13" x="573.4" y="386" textLength="61" clip-path="url(#terminal-312312575-line-15)">&#160;(D)&#160;</text><text class="terminal-312312575-r15" x="732" y="386" textLength="244" clip-path="url(#terminal-312312575-line-15)">▁▁▁▁▁▁▁▁▁▁▁▁▁▁▁▁▁▁▁▁</text><text class="terminal-312312575-r1" x="976" y="386" textLength="12.2" clip-path="url(#terminal-312312575-line-15)">
</text><text class="terminal-312312575-r16" x="244" y="410.4" textLength="231.8" clip-path="url(#terminal-312312575-line-16)">▁▁▁▁▁▁▁▁▁▁▁▁▁▁▁▁▁▁▁</text><text class="terminal-312312575-r17" x="488" y="410.4" textLength="231.8" clip-path="url(#terminal-312312575-line-16)">▁▁▁▁▁▁▁▁▁▁▁▁▁▁▁▁▁▁▁</text><text class="terminal-312312575-r1" x="976" y="410.4" textLength="12.2" clip-path="url(#terminal-312312575-line-16)">
</text><text class="terminal-312312575-r1" x="976" y="434.8" textLength="12.2" clip-path="url(#terminal-312312575-line-17)">
</text><text class="terminal-312312575-r5" x="0" y="459.2" textLength="12.2" clip-path="url(#terminal-312312575-line-18)">┌</text><text class="terminal-312312575-r5" x="12.2" y="459.2" textLength="951.6" clip-path="url(#terminal-312312575-line-18)">──────────────────────────────────────────────────────────────────────────────</text><text class="terminal-312312575-r5" x="963.8" y="459.2" textLength="12.2" clip-path="url(#terminal-312312575-line-18)">┐</text><text class="terminal-312312575-r1" x="976" y="459.2" textLength="12.2" clip-path="url(#terminal-312312575-line-18)">
</text><text class="terminal-312312575-r5" x="0" y="483.6" textLength="12.2" clip-path="url(#terminal-312312575-line-19)">│</text><text class="terminal-312312575-r5" x="963.8" y="483.6" textLength="12.2" clip-path="url(#terminal-312312575-line-19)">│</text><text class="terminal-312312575-r1" x="976" y="483.6" textLength="12.2" clip-path="url(#terminal-312312575-line-19)">
</text><text class="terminal-312312575-r5" x="0" y="508" textLength="12.2" clip-path="url(#terminal-312312575-line-20)">│</text><text class="terminal-312312575-r18" x="24.4" y="508" textLength="61" clip-path="url(#terminal-312312575-line-20)">&#160;esc&#160;</text><text class="terminal-312312575-r2" x="85.4" y="508" textLength="61" clip-path="url(#terminal-312312575-line-20)">Back&#160;</text><text class="terminal-312312575-r18" x="146.4" y="508" textLength="36.6" clip-path="url(#terminal-312312575-line-20)">&#160;a&#160;</text><text class="terminal-312312575-r2" x="183" y="508" textLength="146.4" clip-path="url(#terminal-312312575-line-20)">Add&#160;Profile&#160;</text><text class="terminal-312312575-r18" x="329.4" y="508" textLength="36.6" clip-path="url(#terminal-312312575-line-20)">&#160;s&#160;</text><text class="terminal-312312575-r2" x="366" y="508" textLength="85.4" clip-path="url(#terminal-312312575-line-20)">Switch&#160;</text><text class="terminal-312312575-r18" x="451.4" y="508" textLength="36.6" clip-path="url(#terminal-312312575-line-20)">&#160;d&#160;</text><text class="terminal-312312575-r2" x="488" y="508" textLength="85.4" clip-path="url(#terminal-312312575-line-20)">Delete&#160;</text><text class="terminal-312312575-r18" x="573.4" y="508" textLength="36.6" clip-path="url(#terminal-312312575-line-20)">&#160;r&#160;</text><text class="terminal-312312575-r2" x="610" y="508" textLength="97.6" clip-path="url(#terminal-312312575-line-20)">Refresh&#160;</text><text class="terminal-312312575-r19" x="805.2" y="508" textLength="12.2" clip-path="url(#terminal-312312575-line-20)">▏</text><text class="terminal-312312575-r18" x="817.4" y="508" textLength="24.4" clip-path="url(#terminal-312312575-line-20)">^p</text><text class="terminal-312312575-r2" x="841.8" y="508" textLength="97.6" clip-path="url(#terminal-312312575-line-20)">&#160;palette</text><text class="terminal-312312575-r5" x="963.8" y="508" textLength="12.2" clip-path="url(#terminal-312312575-line-20)">│</text><text class="terminal-312312575-r1" x="976" y="508" textLength="12.2" clip-path="url(#terminal-312312575-line-20)">
</text><text class="terminal-312312575-r5" x="0" y="532.4" textLength="12.2" clip-path="url(#terminal-312312575-line-21)">│</text><text class="terminal-312312575-r5" x="963.8" y="532.4" textLength="12.2" clip-path="url(#terminal-312312575-line-21)">│</text><text class="terminal-312312575-r1" x="976" y="532.4" textLength="12.2" clip-path="url(#terminal-312312575-line-21)">
</text><text class="terminal-312312575-r5" x="0" y="556.8" textLength="12.2" clip-path="url(#terminal-312312575-line-22)">└</text><text class="terminal-312312575-r5" x="12.2" y="556.8" textLength="951.6" clip-path="url(#terminal-312312575-line-22)">──────────────────────────────────────────────────────────────────────────────</text><text class="terminal-312312575-r5" x="963.8" y="556.8" textLength="12.2" clip-path="url(#terminal-312312575-line-22)">┘</text><text class="terminal-312312575-r1" x="976" y="556.8" textLength="12.2" clip-path="url(#terminal-312312575-line-22)">
</text>
    </g>
    </g>
</svg>
