<svg class="rich-terminal" viewBox="0 0 994 635.5999999999999" xmlns="http://www.w3.org/2000/svg">
    <!-- Generated with Rich https://www.textualize.io -->
    <style>

    @font-face {
        font-family: "Fira Code";
        src: local("FiraCode-Regular"),
                url("https://cdnjs.cloudflare.com/ajax/libs/firacode/6.2.0/woff2/FiraCode-Regular.woff2") format("woff2"),
                url("https://cdnjs.cloudflare.com/ajax/libs/firacode/6.2.0/woff/FiraCode-Regular.woff") format("woff");
        font-style: normal;
        font-weight: 400;
    }
    @font-face {
        font-family: "Fira Code";
        src: local("FiraCode-Bold"),
                url("https://cdnjs.cloudflare.com/ajax/libs/firacode/6.2.0/woff2/FiraCode-Bold.woff2") format("woff2"),
                url("https://cdnjs.cloudflare.com/ajax/libs/firacode/6.2.0/woff/FiraCode-Bold.woff") format("woff");
        font-style: bold;
        font-weight: 700;
    }

    .terminal-4254706884-matrix {
        font-family: Fira Code, monospace;
        font-size: 20px;
        line-height: 24.4px;
        font-variant-east-asian: full-width;
    }

    .terminal-4254706884-title {
        font-size: 18px;
        font-weight: bold;
        font-family: arial;
    }

    .terminal-4254706884-r1 { fill: #c5c8c6 }
.terminal-4254706884-r2 { fill: #e0e0e0 }
.terminal-4254706884-r3 { fill: #a0a3a6 }
.terminal-4254706884-r4 { fill: #121212 }
.terminal-4254706884-r5 { fill: #0178d4 }
.terminal-4254706884-r6 { fill: #fea62b;font-weight: bold }
.terminal-4254706884-r7 { fill: #ffff00 }
.terminal-4254706884-r8 { fill: #6db2ff }
.terminal-4254706884-r9 { fill: #0c7dd4;font-weight: bold }
.terminal-4254706884-r10 { fill: #004295 }
.terminal-4254706884-r11 { fill: #000000 }
.terminal-4254706884-r12 { fill: #ddedf9;font-weight: bold }
.terminal-4254706884-r13 { fill: #368ae9 }
.terminal-4254706884-r14 { fill: #ffa62b;font-weight: bold }
.terminal-4254706884-r15 { fill: #495259 }
    </style>

    <defs>
    <clipPath id="terminal-4254706884-clip-terminal">
      <rect x="0" y="0" width="975.0" height="584.5999999999999" />
    </clipPath>
    <clipPath id="terminal-4254706884-line-0">
    <rect x="0" y="1.5" width="976" height="24.65"/>
            </clipPath>
<clipPath id="terminal-4254706884-line-1">
    <rect x="0" y="25.9" width="976" height="24.65"/>
            </clipPath>
<clipPath id="terminal-4254706884-line-2">
    <rect x="0" y="50.3" width="976" height="24.65"/>
            </clipPath>
<clipPath id="terminal-4254706884-line-3">
    <rect x="0" y="74.7" width="976" height="24.65"/>
            </clipPath>
<clipPath id="terminal-4254706884-line-4">
    <rect x="0" y="99.1" width="976" height="24.65"/>
            </clipPath>
<clipPath id="terminal-4254706884-line-5">
    <rect x="0" y="123.5" width="976" height="24.65"/>
            </clipPath>
<clipPath id="terminal-4254706884-line-6">
    <rect x="0" y="147.9" width="976" height="24.65"/>
            </clipPath>
<clipPath id="terminal-4254706884-line-7">
    <rect x="0" y="172.3" width="976" height="24.65"/>
            </clipPath>
<clipPath id="terminal-4254706884-line-8">
    <rect x="0" y="196.7" width="976" height="24.65"/>
            </clipPath>
<clipPath id="terminal-4254706884-line-9">
    <rect x="0" y="221.1" width="976" height="24.65"/>
            </clipPath>
<clipPath id="terminal-4254706884-line-10">
    <rect x="0" y="245.5" width="976" height="24.65"/>
            </clipPath>
<clipPath id="terminal-4254706884-line-11">
    <rect x="0" y="269.9" width="976" height="24.65"/>
            </clipPath>
<clipPath id="terminal-4254706884-line-12">
    <rect x="0" y="294.3" width="976" height="24.65"/>
            </clipPath>
<clipPath id="terminal-4254706884-line-13">
    <rect x="0" y="318.7" width="976" height="24.65"/>
            </clipPath>
<clipPath id="terminal-4254706884-line-14">
    <rect x="0" y="343.1" width="976" height="24.65"/>
            </clipPath>
<clipPath id="terminal-4254706884-line-15">
    <rect x="0" y="367.5" width="976" height="24.65"/>
            </clipPath>
<clipPath id="terminal-4254706884-line-16">
    <rect x="0" y="391.9" width="976" height="24.65"/>
            </clipPath>
<clipPath id="terminal-4254706884-line-17">
    <rect x="0" y="416.3" width="976" height="24.65"/>
            </clipPath>
<clipPath id="terminal-4254706884-line-18">
    <rect x="0" y="440.7" width="976" height="24.65"/>
            </clipPath>
<clipPath id="terminal-4254706884-line-19">
    <rect x="0" y="465.1" width="976" height="24.65"/>
            </clipPath>
<clipPath id="terminal-4254706884-line-20">
    <rect x="0" y="489.5" width="976" height="24.65"/>
            </clipPath>
<clipPath id="terminal-4254706884-line-21">
    <rect x="0" y="513.9" width="976" height="24.65"/>
            </clipPath>
<clipPath id="terminal-4254706884-line-22">
    <rect x="0" y="538.3" width="976" height="24.65"/>
            </clipPath>
    </defs>

    <rect fill="#292929" stroke="rgba(255,255,255,0.35)" stroke-width="1" x="1" y="1" width="992" height="633.6" rx="8"/><text class="terminal-4254706884-title" fill="#c5c8c6" text-anchor="middle" x="496" y="27">PowerBI&#160;CLI&#160;-&#160;Interactive&#160;TUI</text>
            <g transform="translate(26,22)">
            <circle cx="0" cy="0" r="7" fill="#ff5f57"/>
            <circle cx="22" cy="0" r="7" fill="#febc2e"/>
            <circle cx="44" cy="0" r="7" fill="#28c840"/>
            </g>
        
    <g transform="translate(9, 41)" clip-path="url(#terminal-4254706884-clip-terminal)">
    <rect fill="#242f38" x="0" y="1.5" width="12.2" height="24.65" shape-rendering="crispEdges"/><rect fill="#242f38" x="12.2" y="1.5" width="12.2" height="24.65" shape-rendering="crispEdges"/><rect fill="#242f38" x="24.4" y="1.5" width="61" height="24.65" shape-rendering="crispEdges"/><rect fill="#242f38" x="85.4" y="1.5" width="12.2" height="24.65" shape-rendering="crispEdges"/><rect fill="#242f38" x="97.6" y="1.5" width="73.2" height="24.65" shape-rendering="crispEdges"/><rect fill="#242f38" x="170.8" y="1.5" width="353.8" height="24.65" shape-rendering="crispEdges"/><rect fill="#242f38" x="524.6" y="1.5" width="36.6" height="24.65" shape-rendering="crispEdges"/><rect fill="#242f38" x="561.2" y="1.5" width="195.2" height="24.65" shape-rendering="crispEdges"/><rect fill="#242f38" x="756.4" y="1.5" width="73.2" height="24.65" shape-rendering="crispEdges"/><rect fill="#242f38" x="829.6" y="1.5" width="12.2" height="24.65" shape-rendering="crispEdges"/><rect fill="#242f38" x="841.8" y="1.5" width="0" height="24.65" shape-rendering="crispEdges"/><rect fill="#242f38" x="841.8" y="1.5" width="97.6" height="24.65" shape-rendering="crispEdges"/><rect fill="#242f38" x="939.4" y="1.5" width="12.2" height="24.65" shape-rendering="crispEdges"/><rect fill="#003054" x="951.6" y="1.5" width="24.4" height="24.65" shape-rendering="crispEdges"/><rect fill="#121212" x="0" y="25.9" width="109.8" height="24.65" shape-rendering="crispEdges"/><rect fill="#1e1e1e" x="109.8" y="25.9" width="12.2" height="24.65" shape-rendering="crispEdges"/><rect fill="#1e1e1e" x="122" y="25.9" width="707.6" height="24.65" shape-rendering="crispEdges"/><rect fill="#1e1e1e" x="829.6" y="25.9" width="12.2" height="24.65" shape-rendering="crispEdges"/><rect fill="#121212" x="841.8" y="25.9" width="109.8" height="24.65" shape-rendering="crispEdges"/><rect fill="#003054" x="951.6" y="25.9" width="24.4" height="24.65" shape-rendering="crispEdges"/><rect fill="#121212" x="0" y="50.3" width="109.8" height="24.65" shape-rendering="crispEdges"/><rect fill="#1e1e1e" x="109.8" y="50.3" width="12.2" height="24.65" shape-rendering="crispEdges"/><rect fill="#1e1e1e" x="122" y="50.3" width="707.6" height="24.65" shape-rendering="crispEdges"/><rect fill="#1e1e1e" x="829.6" y="50.3" width="12.2" height="24.65" shape-rendering="crispEdges"/><rect fill="#121212" x="841.8" y="50.3" width="109.8" height="24.65" shape-rendering="crispEdges"/><rect fill="#003054" x="951.6" y="50.3" width="24.4" height="24.65" shape-rendering="crispEdges"/><rect fill="#121212" x="0" y="74.7" width="109.8" height="24.65" shape-rendering="crispEdges"/><rect fill="#1e1e1e" x="109.8" y="74.7" width="12.2" height="24.65" shape-rendering="crispEdges"/><rect fill="#1e1e1e" x="122" y="74.7" width="12.2" height="24.65" shape-rendering="crispEdges"/><rect fill="#1e1e1e" x="134.2" y="74.7" width="683.2" height="24.65" shape-rendering="crispEdges"/><rect fill="#1e1e1e" x="817.4" y="74.7" width="12.2" height="24.65" shape-rendering="crispEdges"/><rect fill="#1e1e1e" x="829.6" y="74.7" width="12.2" height="24.65" shape-rendering="crispEdges"/><rect fill="#121212" x="841.8" y="74.7" width="109.8" height="24.65" shape-rendering="crispEdges"/><rect fill="#003054" x="951.6" y="74.7" width="24.4" height="24.65" shape-rendering="crispEdges"/><rect fill="#121212" x="0" y="99.1" width="109.8" height="24.65" shape-rendering="crispEdges"/><rect fill="#1e1e1e" x="109.8" y="99.1" width="12.2" height="24.65" shape-rendering="crispEdges"/><rect fill="#1e1e1e" x="122" y="99.1" width="12.2" height="24.65" shape-rendering="crispEdges"/><rect fill="#1e1e1e" x="134.2" y="99.1" width="12.2" height="24.65" shape-rendering="crispEdges"/><rect fill="#1e1e1e" x="146.4" y="99.1" width="97.6" height="24.65" shape-rendering="crispEdges"/><rect fill="#1e1e1e" x="244" y="99.1" width="451.4" height="24.65" shape-rendering="crispEdges"/><rect fill="#1e1e1e" x="695.4" y="99.1" width="109.8" height="24.65" shape-rendering="crispEdges"/><rect fill="#1e1e1e" x="805.2" y="99.1" width="12.2" height="24.65" shape-rendering="crispEdges"/><rect fill="#1e1e1e" x="817.4" y="99.1" width="12.2" height="24.65" shape-rendering="crispEdges"/><rect fill="#1e1e1e" x="829.6" y="99.1" width="12.2" height="24.65" shape-rendering="crispEdges"/><rect fill="#121212" x="841.8" y="99.1" width="109.8" height="24.65" shape-rendering="crispEdges"/><rect fill="#003054" x="951.6" y="99.1" width="24.4" height="24.65" shape-rendering="crispEdges"/><rect fill="#121212" x="0" y="123.5" width="109.8" height="24.65" shape-rendering="crispEdges"/><rect fill="#1e1e1e" x="109.8" y="123.5" width="12.2" height="24.65" shape-rendering="crispEdges"/><rect fill="#1e1e1e" x="122" y="123.5" width="12.2" height="24.65" shape-rendering="crispEdges"/><rect fill="#1e1e1e" x="134.2" y="123.5" width="683.2" height="24.65" shape-rendering="crispEdges"/><rect fill="#1e1e1e" x="817.4" y="123.5" width="12.2" height="24.65" shape-rendering="crispEdges"/><rect fill="#1e1e1e" x="829.6" y="123.5" width="12.2" height="24.65" shape-rendering="crispEdges"/><rect fill="#121212" x="841.8" y="123.5" width="109.8" height="24.65" shape-rendering="crispEdges"/><rect fill="#003054" x="951.6" y="123.5" width="24.4" height="24.65" shape-rendering="crispEdges"/><rect fill="#121212" x="0" y="147.9" width="109.8" height="24.65" shape-rendering="crispEdges"/><rect fill="#1e1e1e" x="109.8" y="147.9" width="12.2" height="24.65" shape-rendering="crispEdges"/><rect fill="#1e1e1e" x="122" y="147.9" width="12.2" height="24.65" shape-rendering="crispEdges"/><rect fill="#1e1e1e" x="134.2" y="147.9" width="207.4" height="24.65" shape-rendering="crispEdges"/><rect fill="#1e1e1e" x="341.6" y="147.9" width="256.2" height="24.65" shape-rendering="crispEdges"/><rect fill="#1e1e1e" x="597.8" y="147.9" width="219.6" height="24.65" shape-rendering="crispEdges"/><rect fill="#1e1e1e" x="817.4" y="147.9" width="12.2" height="24.65" shape-rendering="crispEdges"/><rect fill="#1e1e1e" x="829.6" y="147.9" width="12.2" height="24.65" shape-rendering="crispEdges"/><rect fill="#121212" x="841.8" y="147.9" width="109.8" height="24.65" shape-rendering="crispEdges"/><rect fill="#003054" x="951.6" y="147.9" width="24.4" height="24.65" shape-rendering="crispEdges"/><rect fill="#121212" x="0" y="172.3" width="109.8" height="24.65" shape-rendering="crispEdges"/><rect fill="#1e1e1e" x="109.8" y="172.3" width="12.2" height="24.65" shape-rendering="crispEdges"/><rect fill="#1e1e1e" x="122" y="172.3" width="12.2" height="24.65" shape-rendering="crispEdges"/><rect fill="#1e1e1e" x="134.2" y="172.3" width="683.2" height="24.65" shape-rendering="crispEdges"/><rect fill="#1e1e1e" x="817.4" y="172.3" width="12.2" height="24.65" shape-rendering="crispEdges"/><rect fill="#1e1e1e" x="829.6" y="172.3" width="12.2" height="24.65" shape-rendering="crispEdges"/><rect fill="#121212" x="841.8" y="172.3" width="109.8" height="24.65" shape-rendering="crispEdges"/><rect fill="#003054" x="951.6" y="172.3" width="24.4" height="24.65" shape-rendering="crispEdges"/><rect fill="#121212" x="0" y="196.7" width="109.8" height="24.65" shape-rendering="crispEdges"/><rect fill="#1e1e1e" x="109.8" y="196.7" width="12.2" height="24.65" shape-rendering="crispEdges"/><rect fill="#1e1e1e" x="122" y="196.7" width="12.2" height="24.65" shape-rendering="crispEdges"/><rect fill="#0c7dd4" x="134.2" y="196.7" width="683.2" height="24.65" shape-rendering="crispEdges"/><rect fill="#1e1e1e" x="817.4" y="196.7" width="12.2" height="24.65" shape-rendering="crispEdges"/><rect fill="#1e1e1e" x="829.6" y="196.7" width="12.2" height="24.65" shape-rendering="crispEdges"/><rect fill="#121212" x="841.8" y="196.7" width="109.8" height="24.65" shape-rendering="crispEdges"/><rect fill="#003054" x="951.6" y="196.7" width="24.4" height="24.65" shape-rendering="crispEdges"/><rect fill="#121212" x="0" y="221.1" width="109.8" height="24.65" shape-rendering="crispEdges"/><rect fill="#1e1e1e" x="109.8" y="221.1" width="12.2" height="24.65" shape-rendering="crispEdges"/><rect fill="#1e1e1e" x="122" y="221.1" width="12.2" height="24.65" shape-rendering="crispEdges"/><rect fill="#0c7dd4" x="134.2" y="221.1" width="158.6" height="24.65" shape-rendering="crispEdges"/><rect fill="#dfeef9" x="292.8" y="221.1" width="366" height="24.65" shape-rendering="crispEdges"/><rect fill="#0c7dd4" x="658.8" y="221.1" width="158.6" height="24.65" shape-rendering="crispEdges"/><rect fill="#1e1e1e" x="817.4" y="221.1" width="12.2" height="24.65" shape-rendering="crispEdges"/><rect fill="#1e1e1e" x="829.6" y="221.1" width="12.2" height="24.65" shape-rendering="crispEdges"/><rect fill="#121212" x="841.8" y="221.1" width="109.8" height="24.65" shape-rendering="crispEdges"/><rect fill="#003054" x="951.6" y="221.1" width="24.4" height="24.65" shape-rendering="crispEdges"/><rect fill="#121212" x="0" y="245.5" width="109.8" height="24.65" shape-rendering="crispEdges"/><rect fill="#1e1e1e" x="109.8" y="245.5" width="12.2" height="24.65" shape-rendering="crispEdges"/><rect fill="#1e1e1e" x="122" y="245.5" width="12.2" height="24.65" shape-rendering="crispEdges"/><rect fill="#0c7dd4" x="134.2" y="245.5" width="683.2" height="24.65" shape-rendering="crispEdges"/><rect fill="#1e1e1e" x="817.4" y="245.5" width="12.2" height="24.65" shape-rendering="crispEdges"/><rect fill="#1e1e1e" x="829.6" y="245.5" width="12.2" height="24.65" shape-rendering="crispEdges"/><rect fill="#121212" x="841.8" y="245.5" width="109.8" height="24.65" shape-rendering="crispEdges"/><rect fill="#003054" x="951.6" y="245.5" width="24.4" height="24.65" shape-rendering="crispEdges"/><rect fill="#121212" x="0" y="269.9" width="109.8" height="24.65" shape-rendering="crispEdges"/><rect fill="#1e1e1e" x="109.8" y="269.9" width="12.2" height="24.65" shape-rendering="crispEdges"/><rect fill="#1e1e1e" x="122" y="269.9" width="12.2" height="24.65" shape-rendering="crispEdges"/><rect fill="#1e1e1e" x="134.2" y="269.9" width="683.2" height="24.65" shape-rendering="crispEdges"/><rect fill="#1e1e1e" x="817.4" y="269.9" width="12.2" height="24.65" shape-rendering="crispEdges"/><rect fill="#1e1e1e" x="829.6" y="269.9" width="12.2" height="24.65" shape-rendering="crispEdges"/><rect fill="#121212" x="841.8" y="269.9" width="109.8" height="24.65" shape-rendering="crispEdges"/><rect fill="#003054" x="951.6" y="269.9" width="24.4" height="24.65" shape-rendering="crispEdges"/><rect fill="#121212" x="0" y="294.3" width="109.8" height="24.65" shape-rendering="crispEdges"/><rect fill="#1e1e1e" x="109.8" y="294.3" width="12.2" height="24.65" shape-rendering="crispEdges"/><rect fill="#1e1e1e" x="122" y="294.3" width="12.2" height="24.65" shape-rendering="crispEdges"/><rect fill="#0178d4" x="134.2" y="294.3" width="683.2" height="24.65" shape-rendering="crispEdges"/><rect fill="#1e1e1e" x="817.4" y="294.3" width="12.2" height="24.65" shape-rendering="crispEdges"/><rect fill="#1e1e1e" x="829.6" y="294.3" width="12.2" height="24.65" shape-rendering="crispEdges"/><rect fill="#121212" x="841.8" y="294.3" width="109.8" height="24.65" shape-rendering="crispEdges"/><rect fill="#003054" x="951.6" y="294.3" width="24.4" height="24.65" shape-rendering="crispEdges"/><rect fill="#121212" x="0" y="318.7" width="109.8" height="24.65" shape-rendering="crispEdges"/><rect fill="#1e1e1e" x="109.8" y="318.7" width="12.2" height="24.65" shape-rendering="crispEdges"/><rect fill="#1e1e1e" x="122" y="318.7" width="12.2" height="24.65" shape-rendering="crispEdges"/><rect fill="#0178d4" x="134.2" y="318.7" width="231.8" height="24.65" shape-rendering="crispEdges"/><rect fill="#0178d4" x="366" y="318.7" width="219.6" height="24.65" shape-rendering="crispEdges"/><rect fill="#0178d4" x="585.6" y="318.7" width="231.8" height="24.65" shape-rendering="crispEdges"/><rect fill="#1e1e1e" x="817.4" y="318.7" width="12.2" height="24.65" shape-rendering="crispEdges"/><rect fill="#1e1e1e" x="829.6" y="318.7" width="12.2" height="24.65" shape-rendering="crispEdges"/><rect fill="#121212" x="841.8" y="318.7" width="109.8" height="24.65" shape-rendering="crispEdges"/><rect fill="#000000" x="951.6" y="318.7" width="24.4" height="24.65" shape-rendering="crispEdges"/><rect fill="#121212" x="0" y="343.1" width="109.8" height="24.65" shape-rendering="crispEdges"/><rect fill="#1e1e1e" x="109.8" y="343.1" width="12.2" height="24.65" shape-rendering="crispEdges"/><rect fill="#1e1e1e" x="122" y="343.1" width="12.2" height="24.65" shape-rendering="crispEdges"/><rect fill="#0178d4" x="134.2" y="343.1" width="683.2" height="24.65" shape-rendering="crispEdges"/><rect fill="#1e1e1e" x="817.4" y="343.1" width="12.2" height="24.65" shape-rendering="crispEdges"/><rect fill="#1e1e1e" x="829.6" y="343.1" width="12.2" height="24.65" shape-rendering="crispEdges"/><rect fill="#121212" x="841.8" y="343.1" width="109.8" height="24.65" shape-rendering="crispEdges"/><rect fill="#000000" x="951.6" y="343.1" width="24.4" height="24.65" shape-rendering="crispEdges"/><rect fill="#121212" x="0" y="367.5" width="109.8" height="24.65" shape-rendering="crispEdges"/><rect fill="#1e1e1e" x="109.8" y="367.5" width="12.2" height="24.65" shape-rendering="crispEdges"/><rect fill="#1e1e1e" x="122" y="367.5" width="12.2" height="24.65" shape-rendering="crispEdges"/><rect fill="#1e1e1e" x="134.2" y="367.5" width="683.2" height="24.65" shape-rendering="crispEdges"/><rect fill="#1e1e1e" x="817.4" y="367.5" width="12.2" height="24.65" shape-rendering="crispEdges"/><rect fill="#1e1e1e" x="829.6" y="367.5" width="12.2" height="24.65" shape-rendering="crispEdges"/><rect fill="#121212" x="841.8" y="367.5" width="109.8" height="24.65" shape-rendering="crispEdges"/><rect fill="#000000" x="951.6" y="367.5" width="24.4" height="24.65" shape-rendering="crispEdges"/><rect fill="#121212" x="0" y="391.9" width="109.8" height="24.65" shape-rendering="crispEdges"/><rect fill="#1e1e1e" x="109.8" y="391.9" width="12.2" height="24.65" shape-rendering="crispEdges"/><rect fill="#1e1e1e" x="122" y="391.9" width="12.2" height="24.65" shape-rendering="crispEdges"/><rect fill="#0178d4" x="134.2" y="391.9" width="683.2" height="24.65" shape-rendering="crispEdges"/><rect fill="#1e1e1e" x="817.4" y="391.9" width="12.2" height="24.65" shape-rendering="crispEdges"/><rect fill="#1e1e1e" x="829.6" y="391.9" width="12.2" height="24.65" shape-rendering="crispEdges"/><rect fill="#121212" x="841.8" y="391.9" width="109.8" height="24.65" shape-rendering="crispEdges"/><rect fill="#000000" x="951.6" y="391.9" width="24.4" height="24.65" shape-rendering="crispEdges"/><rect fill="#121212" x="0" y="416.3" width="109.8" height="24.65" shape-rendering="crispEdges"/><rect fill="#1e1e1e" x="109.8" y="416.3" width="12.2" height="24.65" shape-rendering="crispEdges"/><rect fill="#1e1e1e" x="122" y="416.3" width="12.2" height="24.65" shape-rendering="crispEdges"/><rect fill="#0178d4" x="134.2" y="416.3" width="244" height="24.65" shape-rendering="crispEdges"/><rect fill="#0178d4" x="378.2" y="416.3" width="183" height="24.65" shape-rendering="crispEdges"/><rect fill="#0178d4" x="561.2" y="416.3" width="256.2" height="24.65" shape-rendering="crispEdges"/><rect fill="#1e1e1e" x="817.4" y="416.3" width="12.2" height="24.65" shape-rendering="crispEdges"/><rect fill="#1e1e1e" x="829.6" y="416.3" width="12.2" height="24.65" shape-rendering="crispEdges"/><rect fill="#121212" x="841.8" y="416.3" width="109.8" height="24.65" shape-rendering="crispEdges"/><rect fill="#000000" x="951.6" y="416.3" width="24.4" height="24.65" shape-rendering="crispEdges"/><rect fill="#242f38" x="0" y="440.7" width="12.2" height="24.65" shape-rendering="crispEdges"/><rect fill="#242f38" x="12.2" y="440.7" width="97.6" height="24.65" shape-rendering="crispEdges"/><rect fill="#242f38" x="109.8" y="440.7" width="24.4" height="24.65" shape-rendering="crispEdges"/><rect fill="#242f38" x="134.2" y="440.7" width="683.2" height="24.65" shape-rendering="crispEdges"/><rect fill="#242f38" x="817.4" y="440.7" width="24.4" height="24.65" shape-rendering="crispEdges"/><rect fill="#242f38" x="841.8" y="440.7" width="97.6" height="24.65" shape-rendering="crispEdges"/><rect fill="#242f38" x="939.4" y="440.7" width="12.2" height="24.65" shape-rendering="crispEdges"/><rect fill="#000000" x="951.6" y="440.7" width="24.4" height="24.65" shape-rendering="crispEdges"/><rect fill="#242f38" x="0" y="465.1" width="12.2" height="24.65" shape-rendering="crispEdges"/><rect fill="#242f38" x="12.2" y="465.1" width="97.6" height="24.65" shape-rendering="crispEdges"/><rect fill="#242f38" x="109.8" y="465.1" width="24.4" height="24.65" shape-rendering="crispEdges"/><rect fill="#242f38" x="134.2" y="465.1" width="683.2" height="24.65" shape-rendering="crispEdges"/><rect fill="#242f38" x="817.4" y="465.1" width="24.4" height="24.65" shape-rendering="crispEdges"/><rect fill="#242f38" x="841.8" y="465.1" width="97.6" height="24.65" shape-rendering="crispEdges"/><rect fill="#242f38" x="939.4" y="465.1" width="12.2" height="24.65" shape-rendering="crispEdges"/><rect fill="#000000" x="951.6" y="465.1" width="24.4" height="24.65" shape-rendering="crispEdges"/><rect fill="#242f38" x="0" y="489.5" width="12.2" height="24.65" shape-rendering="crispEdges"/><rect fill="#242f38" x="12.2" y="489.5" width="12.2" height="24.65" shape-rendering="crispEdges"/><rect fill="#242f38" x="24.4" y="489.5" width="36.6" height="24.65" shape-rendering="crispEdges"/><rect fill="#242f38" x="61" y="489.5" width="48.8" height="24.65" shape-rendering="crispEdges"/><rect fill="#242f38" x="109.8" y="489.5" width="12.2" height="24.65" shape-rendering="crispEdges"/><rect fill="#242f38" x="122" y="489.5" width="12.2" height="24.65" shape-rendering="crispEdges"/><rect fill="#242f38" x="134.2" y="489.5" width="24.4" height="24.65" shape-rendering="crispEdges"/><rect fill="#242f38" x="158.6" y="489.5" width="61" height="24.65" shape-rendering="crispEdges"/><rect fill="#242f38" x="219.6" y="489.5" width="36.6" height="24.65" shape-rendering="crispEdges"/><rect fill="#242f38" x="256.2" y="489.5" width="85.4" height="24.65" shape-rendering="crispEdges"/><rect fill="#242f38" x="341.6" y="489.5" width="36.6" height="24.65" shape-rendering="crispEdges"/><rect fill="#242f38" x="378.2" y="489.5" width="134.2" height="24.65" shape-rendering="crispEdges"/><rect fill="#242f38" x="512.4" y="489.5" width="36.6" height="24.65" shape-rendering="crispEdges"/><rect fill="#242f38" x="549" y="489.5" width="61" height="24.65" shape-rendering="crispEdges"/><rect fill="#242f38" x="610" y="489.5" width="36.6" height="24.65" shape-rendering="crispEdges"/><rect fill="#242f38" x="646.6" y="489.5" width="97.6" height="24.65" shape-rendering="crispEdges"/><rect fill="#242f38" x="744.2" y="489.5" width="36.6" height="24.65" shape-rendering="crispEdges"/><rect fill="#242f38" x="780.8" y="489.5" width="12.2" height="24.65" shape-rendering="crispEdges"/><rect fill="#242f38" x="793" y="489.5" width="24.4" height="24.65" shape-rendering="crispEdges"/><rect fill="#242f38" x="817.4" y="489.5" width="24.4" height="24.65" shape-rendering="crispEdges"/><rect fill="#242f38" x="841.8" y="489.5" width="12.2" height="24.65" shape-rendering="crispEdges"/><rect fill="#242f38" x="854" y="489.5" width="61" height="24.65" shape-rendering="crispEdges"/><rect fill="#242f38" x="915" y="489.5" width="12.2" height="24.65" shape-rendering="crispEdges"/><rect fill="#242f38" x="927.2" y="489.5" width="12.2" height="24.65" shape-rendering="crispEdges"/><rect fill="#242f38" x="939.4" y="489.5" width="12.2" height="24.65" shape-rendering="crispEdges"/><rect fill="#000000" x="951.6" y="489.5" width="24.4" height="24.65" shape-rendering="crispEdges"/><rect fill="#242f38" x="0" y="513.9" width="12.2" height="24.65" shape-rendering="crispEdges"/><rect fill="#242f38" x="12.2" y="513.9" width="97.6" height="24.65" shape-rendering="crispEdges"/><rect fill="#242f38" x="109.8" y="513.9" width="24.4" height="24.65" shape-rendering="crispEdges"/><rect fill="#242f38" x="134.2" y="513.9" width="683.2" height="24.65" shape-rendering="crispEdges"/><rect fill="#242f38" x="817.4" y="513.9" width="24.4" height="24.65" shape-rendering="crispEdges"/><rect fill="#242f38" x="841.8" y="513.9" width="97.6" height="24.65" shape-rendering="crispEdges"/><rect fill="#242f38" x="939.4" y="513.9" width="12.2" height="24.65" shape-rendering="crispEdges"/><rect fill="#000000" x="951.6" y="513.9" width="24.4" height="24.65" shape-rendering="crispEdges"/><rect fill="#242f38" x="0" y="538.3" width="12.2" height="24.65" shape-rendering="crispEdges"/><rect fill="#242f38" x="12.2" y="538.3" width="97.6" height="24.65" shape-rendering="crispEdges"/><rect fill="#242f38" x="109.8" y="538.3" width="24.4" height="24.65" shape-rendering="crispEdges"/><rect fill="#242f38" x="134.2" y="538.3" width="683.2" height="24.65" shape-rendering="crispEdges"/><rect fill="#242f38" x="817.4" y="538.3" width="24.4" height="24.65" shape-rendering="crispEdges"/><rect fill="#242f38" x="841.8" y="538.3" width="97.6" height="24.65" shape-rendering="crispEdges"/><rect fill="#242f38" x="939.4" y="538.3" width="12.2" height="24.65" shape-rendering="crispEdges"/><rect fill="#000000" x="951.6" y="538.3" width="24.4" height="24.65" shape-rendering="crispEdges"/><rect fill="#121212" x="0" y="562.7" width="109.8" height="24.65" shape-rendering="crispEdges"/><rect fill="#1e1e1e" x="109.8" y="562.7" width="12.2" height="24.65" shape-rendering="crispEdges"/><rect fill="#1e1e1e" x="122" y="562.7" width="12.2" height="24.65" shape-rendering="crispEdges"/><rect fill="#1e1e1e" x="134.2" y="562.7" width="683.2" height="24.65" shape-rendering="crispEdges"/><rect fill="#1e1e1e" x="817.4" y="562.7" width="12.2" height="24.65" shape-rendering="crispEdges"/><rect fill="#1e1e1e" x="829.6" y="562.7" width="12.2" height="24.65" shape-rendering="crispEdges"/><rect fill="#121212" x="841.8" y="562.7" width="109.8" height="24.65" shape-rendering="crispEdges"/><rect fill="#000000" x="951.6" y="562.7" width="24.4" height="24.65" shape-rendering="crispEdges"/>
    <g class="terminal-4254706884-matrix">
    <text class="terminal-4254706884-r2" x="12.2" y="20" textLength="12.2" clip-path="url(#terminal-4254706884-line-0)">⭘</text><text class="terminal-4254706884-r2" x="170.8" y="20" textLength="353.8" clip-path="url(#terminal-4254706884-line-0)">PowerBI&#160;CLI&#160;-&#160;Interactive&#160;TUI</text><text class="terminal-4254706884-r3" x="524.6" y="20" textLength="36.6" clip-path="url(#terminal-4254706884-line-0)">&#160;—&#160;</text><text class="terminal-4254706884-r3" x="561.2" y="20" textLength="195.2" clip-path="url(#terminal-4254706884-line-0)">Press&#160;?&#160;for&#160;help</text><text class="terminal-4254706884-r1" x="976" y="20" textLength="12.2" clip-path="url(#terminal-4254706884-line-0)">
</text><text class="terminal-4254706884-r5" x="109.8" y="44.4" textLength="12.2" clip-path="url(#terminal-4254706884-line-1)">┌</text><text class="terminal-4254706884-r5" x="122" y="44.4" textLength="707.6" clip-path="url(#terminal-4254706884-line-1)">──────────────────────────────────────────────────────────</text><text class="terminal-4254706884-r5" x="829.6" y="44.4" textLength="12.2" clip-path="url(#terminal-4254706884-line-1)">┐</text><text class="terminal-4254706884-r1" x="976" y="44.4" textLength="12.2" clip-path="url(#terminal-4254706884-line-1)">
</text><text class="terminal-4254706884-r5" x="109.8" y="68.8" textLength="12.2" clip-path="url(#terminal-4254706884-line-2)">│</text><text class="terminal-4254706884-r5" x="829.6" y="68.8" textLength="12.2" clip-path="url(#terminal-4254706884-line-2)">│</text><text class="terminal-4254706884-r1" x="976" y="68.8" textLength="12.2" clip-path="url(#terminal-4254706884-line-2)">
</text><text class="terminal-4254706884-r5" x="109.8" y="93.2" textLength="12.2" clip-path="url(#terminal-4254706884-line-3)">│</text><text class="terminal-4254706884-r5" x="829.6" y="93.2" textLength="12.2" clip-path="url(#terminal-4254706884-line-3)">│</text><text class="terminal-4254706884-r1" x="976" y="93.2" textLength="12.2" clip-path="url(#terminal-4254706884-line-3)">
</text><text class="terminal-4254706884-r5" x="109.8" y="117.6" textLength="12.2" clip-path="url(#terminal-4254706884-line-4)">│</text><text class="terminal-4254706884-r6" x="244" y="117.6" textLength="451.4" clip-path="url(#terminal-4254706884-line-4)">PowerBI&#160;CLI&#160;-&#160;Interactive&#160;Terminal&#160;UI</text><text class="terminal-4254706884-r5" x="829.6" y="117.6" textLength="12.2" clip-path="url(#terminal-4254706884-line-4)">│</text><text class="terminal-4254706884-r1" x="976" y="117.6" textLength="12.2" clip-path="url(#terminal-4254706884-line-4)">
</text><text class="terminal-4254706884-r5" x="109.8" y="142" textLength="12.2" clip-path="url(#terminal-4254706884-line-5)">│</text><text class="terminal-4254706884-r5" x="829.6" y="142" textLength="12.2" clip-path="url(#terminal-4254706884-line-5)">│</text><text class="terminal-4254706884-r1" x="976" y="142" textLength="12.2" clip-path="url(#terminal-4254706884-line-5)">
</text><text class="terminal-4254706884-r5" x="109.8" y="166.4" textLength="12.2" clip-path="url(#terminal-4254706884-line-6)">│</text><text class="terminal-4254706884-r7" x="341.6" y="166.4" textLength="256.2" clip-path="url(#terminal-4254706884-line-6)">No&#160;active&#160;profile&#160;set</text><text class="terminal-4254706884-r5" x="829.6" y="166.4" textLength="12.2" clip-path="url(#terminal-4254706884-line-6)">│</text><text class="terminal-4254706884-r1" x="976" y="166.4" textLength="12.2" clip-path="url(#terminal-4254706884-line-6)">
</text><text class="terminal-4254706884-r5" x="109.8" y="190.8" textLength="12.2" clip-path="url(#terminal-4254706884-line-7)">│</text><text class="terminal-4254706884-r5" x="829.6" y="190.8" textLength="12.2" clip-path="url(#terminal-4254706884-line-7)">│</text><text class="terminal-4254706884-r1" x="976" y="190.8" textLength="12.2" clip-path="url(#terminal-4254706884-line-7)">
</text><text class="terminal-4254706884-r5" x="109.8" y="215.2" textLength="12.2" clip-path="url(#terminal-4254706884-line-8)">│</text><text class="terminal-4254706884-r8" x="134.2" y="215.2" textLength="683.2" clip-path="url(#terminal-4254706884-line-8)">▔▔▔▔▔▔▔▔▔▔▔▔▔▔▔▔▔▔▔▔▔▔▔▔▔▔▔▔▔▔▔▔▔▔▔▔▔▔▔▔▔▔▔▔▔▔▔▔▔▔▔▔▔▔▔▔</text><text class="terminal-4254706884-r5" x="829.6" y="215.2" textLength="12.2" clip-path="url(#terminal-4254706884-line-8)">│</text><text class="terminal-4254706884-r1" x="976" y="215.2" textLength="12.2" clip-path="url(#terminal-4254706884-line-8)">
</text><text class="terminal-4254706884-r5" x="109.8" y="239.6" textLength="12.2" clip-path="url(#terminal-4254706884-line-9)">│</text><text class="terminal-4254706884-r9" x="292.8" y="239.6" textLength="366" clip-path="url(#terminal-4254706884-line-9)">&#160;1.&#160;Authentication&#160;Management&#160;</text><text class="terminal-4254706884-r5" x="829.6" y="239.6" textLength="12.2" clip-path="url(#terminal-4254706884-line-9)">│</text><text class="terminal-4254706884-r1" x="976" y="239.6" textLength="12.2" clip-path="url(#terminal-4254706884-line-9)">
</text><text class="terminal-4254706884-r5" x="109.8" y="264" textLength="12.2" clip-path="url(#terminal-4254706884-line-10)">│</text><text class="terminal-4254706884-r10" x="134.2" y="264" textLength="683.2" clip-path="url(#terminal-4254706884-line-10)">▁▁▁▁▁▁▁▁▁▁▁▁▁▁▁▁▁▁▁▁▁▁▁▁▁▁▁▁▁▁▁▁▁▁▁▁▁▁▁▁▁▁▁▁▁▁▁▁▁▁▁▁▁▁▁▁</text><text class="terminal-4254706884-r5" x="829.6" y="264" textLength="12.2" clip-path="url(#terminal-4254706884-line-10)">│</text><text class="terminal-4254706884-r1" x="976" y="264" textLength="12.2" clip-path="url(#terminal-4254706884-line-10)">
</text><text class="terminal-4254706884-r5" x="109.8" y="288.4" textLength="12.2" clip-path="url(#terminal-4254706884-line-11)">│</text><text class="terminal-4254706884-r5" x="829.6" y="288.4" textLength="12.2" clip-path="url(#terminal-4254706884-line-11)">│</text><text class="terminal-4254706884-r1" x="976" y="288.4" textLength="12.2" clip-path="url(#terminal-4254706884-line-11)">
</text><text class="terminal-4254706884-r5" x="109.8" y="312.8" textLength="12.2" clip-path="url(#terminal-4254706884-line-12)">│</text><text class="terminal-4254706884-r8" x="134.2" y="312.8" textLength="683.2" clip-path="url(#terminal-4254706884-line-12)">▔▔▔▔▔▔▔▔▔▔▔▔▔▔▔▔▔▔▔▔▔▔▔▔▔▔▔▔▔▔▔▔▔▔▔▔▔▔▔▔▔▔▔▔▔▔▔▔▔▔▔▔▔▔▔▔</text><text class="terminal-4254706884-r5" x="829.6" y="312.8" textLength="12.2" clip-path="url(#terminal-4254706884-line-12)">│</text><text class="terminal-4254706884-r11" x="951.6" y="312.8" textLength="24.4" clip-path="url(#terminal-4254706884-line-12)">▁▁</text><text class="terminal-4254706884-r1" x="976" y="312.8" textLength="12.2" clip-path="url(#terminal-4254706884-line-12)">
</text><text class="terminal-4254706884-r5" x="109.8" y="337.2" textLength="12.2" clip-path="url(#terminal-4254706884-line-13)">│</text><text class="terminal-4254706884-r12" x="366" y="337.2" textLength="219.6" clip-path="url(#terminal-4254706884-line-13)">&#160;2.&#160;Configuration&#160;</text><text class="terminal-4254706884-r5" x="829.6" y="337.2" textLength="12.2" clip-path="url(#terminal-4254706884-line-13)">│</text><text class="terminal-4254706884-r1" x="976" y="337.2" textLength="12.2" clip-path="url(#terminal-4254706884-line-13)">
</text><text class="terminal-4254706884-r5" x="109.8" y="361.6" textLength="12.2" clip-path="url(#terminal-4254706884-line-14)">│</text><text class="terminal-4254706884-r10" x="134.2" y="361.6" textLength="683.2" clip-path="url(#terminal-4254706884-line-14)">▁▁▁▁▁▁▁▁▁▁▁▁▁▁▁▁▁▁▁▁▁▁▁▁▁▁▁▁▁▁▁▁▁▁▁▁▁▁▁▁▁▁▁▁▁▁▁▁▁▁▁▁▁▁▁▁</text><text class="terminal-4254706884-r5" x="829.6" y="361.6" textLength="12.2" clip-path="url(#terminal-4254706884-line-14)">│</text><text class="terminal-4254706884-r1" x="976" y="361.6" textLength="12.2" clip-path="url(#terminal-4254706884-line-14)">
</text><text class="terminal-4254706884-r5" x="109.8" y="386" textLength="12.2" clip-path="url(#terminal-4254706884-line-15)">│</text><text class="terminal-4254706884-r5" x="829.6" y="386" textLength="12.2" clip-path="url(#terminal-4254706884-line-15)">│</text><text class="terminal-4254706884-r1" x="976" y="386" textLength="12.2" clip-path="url(#terminal-4254706884-line-15)">
</text><text class="terminal-4254706884-r5" x="109.8" y="410.4" textLength="12.2" clip-path="url(#terminal-4254706884-line-16)">│</text><text class="terminal-4254706884-r8" x="134.2" y="410.4" textLength="683.2" clip-path="url(#terminal-4254706884-line-16)">▔▔▔▔▔▔▔▔▔▔▔▔▔▔▔▔▔▔▔▔▔▔▔▔▔▔▔▔▔▔▔▔▔▔▔▔▔▔▔▔▔▔▔▔▔▔▔▔▔▔▔▔▔▔▔▔</text><text class="terminal-4254706884-r5" x="829.6" y="410.4" textLength="12.2" clip-path="url(#terminal-4254706884-line-16)">│</text><text class="terminal-4254706884-r1" x="976" y="410.4" textLength="12.2" clip-path="url(#terminal-4254706884-line-16)">
</text><text class="terminal-4254706884-r5" x="109.8" y="434.8" textLength="12.2" clip-path="url(#terminal-4254706884-line-17)">│</text><text class="terminal-4254706884-r12" x="378.2" y="434.8" textLength="183" clip-path="url(#terminal-4254706884-line-17)">&#160;3.&#160;Workspaces&#160;</text><text class="terminal-4254706884-r5" x="829.6" y="434.8" textLength="12.2" clip-path="url(#terminal-4254706884-line-17)">│</text><text class="terminal-4254706884-r1" x="976" y="434.8" textLength="12.2" clip-path="url(#terminal-4254706884-line-17)">
</text><text class="terminal-4254706884-r13" x="0" y="459.2" textLength="12.2" clip-path="url(#terminal-4254706884-line-18)">┌</text><text class="terminal-4254706884-r13" x="12.2" y="459.2" textLength="97.6" clip-path="url(#terminal-4254706884-line-18)">────────</text><text class="terminal-4254706884-r13" x="109.8" y="459.2" textLength="24.4" clip-path="url(#terminal-4254706884-line-18)">──</text><text class="terminal-4254706884-r13" x="134.2" y="459.2" textLength="683.2" clip-path="url(#terminal-4254706884-line-18)">────────────────────────────────────────────────────────</text><text class="terminal-4254706884-r13" x="817.4" y="459.2" textLength="24.4" clip-path="url(#terminal-4254706884-line-18)">──</text><text class="terminal-4254706884-r13" x="841.8" y="459.2" textLength="97.6" clip-path="url(#terminal-4254706884-line-18)">────────</text><text class="terminal-4254706884-r13" x="939.4" y="459.2" textLength="12.2" clip-path="url(#terminal-4254706884-line-18)">┐</text><text class="terminal-4254706884-r1" x="976" y="459.2" textLength="12.2" clip-path="url(#terminal-4254706884-line-18)">
</text><text class="terminal-4254706884-r13" x="0" y="483.6" textLength="12.2" clip-path="url(#terminal-4254706884-line-19)">│</text><text class="terminal-4254706884-r13" x="939.4" y="483.6" textLength="12.2" clip-path="url(#terminal-4254706884-line-19)">│</text><text class="terminal-4254706884-r1" x="976" y="483.6" textLength="12.2" clip-path="url(#terminal-4254706884-line-19)">
</text><text class="terminal-4254706884-r13" x="0" y="508" textLength="12.2" clip-path="url(#terminal-4254706884-line-20)">│</text><text class="terminal-4254706884-r14" x="24.4" y="508" textLength="36.6" clip-path="url(#terminal-4254706884-line-20)">&#160;q&#160;</text><text class="terminal-4254706884-r2" x="61" y="508" textLength="48.8" clip-path="url(#terminal-4254706884-line-20)">Quit</text><text class="terminal-4254706884-r14" x="134.2" y="508" textLength="24.4" clip-path="url(#terminal-4254706884-line-20)">1&#160;</text><text class="terminal-4254706884-r2" x="158.6" y="508" textLength="61" clip-path="url(#terminal-4254706884-line-20)">Auth&#160;</text><text class="terminal-4254706884-r14" x="219.6" y="508" textLength="36.6" clip-path="url(#terminal-4254706884-line-20)">&#160;2&#160;</text><text class="terminal-4254706884-r2" x="256.2" y="508" textLength="85.4" clip-path="url(#terminal-4254706884-line-20)">Config&#160;</text><text class="terminal-4254706884-r14" x="341.6" y="508" textLength="36.6" clip-path="url(#terminal-4254706884-line-20)">&#160;3&#160;</text><text class="terminal-4254706884-r2" x="378.2" y="508" textLength="134.2" clip-path="url(#terminal-4254706884-line-20)">Workspaces&#160;</text><text class="terminal-4254706884-r14" x="512.4" y="508" textLength="36.6" clip-path="url(#terminal-4254706884-line-20)">&#160;4&#160;</text><text class="terminal-4254706884-r2" x="549" y="508" textLength="61" clip-path="url(#terminal-4254706884-line-20)">Apps&#160;</text><text class="terminal-4254706884-r14" x="610" y="508" textLength="36.6" clip-path="url(#terminal-4254706884-line-20)">&#160;5&#160;</text><text class="terminal-4254706884-r2" x="646.6" y="508" textLength="97.6" clip-path="url(#terminal-4254706884-line-20)">Reports&#160;</text><text class="terminal-4254706884-r14" x="744.2" y="508" textLength="36.6" clip-path="url(#terminal-4254706884-line-20)">&#160;6&#160;</text><text class="terminal-4254706884-r15" x="780.8" y="508" textLength="12.2" clip-path="url(#terminal-4254706884-line-20)">▏</text><text class="terminal-4254706884-r14" x="793" y="508" textLength="24.4" clip-path="url(#terminal-4254706884-line-20)">^p</text><text class="terminal-4254706884-r2" x="817.4" y="508" textLength="24.4" clip-path="url(#terminal-4254706884-line-20)">&#160;p</text><text class="terminal-4254706884-r2" x="841.8" y="508" textLength="12.2" clip-path="url(#terminal-4254706884-line-20)">a</text><text class="terminal-4254706884-r2" x="854" y="508" textLength="61" clip-path="url(#terminal-4254706884-line-20)">lette</text><text class="terminal-4254706884-r13" x="939.4" y="508" textLength="12.2" clip-path="url(#terminal-4254706884-line-20)">│</text><text class="terminal-4254706884-r1" x="976" y="508" textLength="12.2" clip-path="url(#terminal-4254706884-line-20)">
</text><text class="terminal-4254706884-r13" x="0" y="532.4" textLength="12.2" clip-path="url(#terminal-4254706884-line-21)">│</text><text class="terminal-4254706884-r13" x="939.4" y="532.4" textLength="12.2" clip-path="url(#terminal-4254706884-line-21)">│</text><text class="terminal-4254706884-r1" x="976" y="532.4" textLength="12.2" clip-path="url(#terminal-4254706884-line-21)">
</text><text class="terminal-4254706884-r13" x="0" y="556.8" textLength="12.2" clip-path="url(#terminal-4254706884-line-22)">└</text><text class="terminal-4254706884-r13" x="12.2" y="556.8" textLength="97.6" clip-path="url(#terminal-4254706884-line-22)">────────</text><text class="terminal-4254706884-r13" x="109.8" y="556.8" textLength="24.4" clip-path="url(#terminal-4254706884-line-22)">──</text><text class="terminal-4254706884-r13" x="134.2" y="556.8" textLength="683.2" clip-path="url(#terminal-4254706884-line-22)">────────────────────────────────────────────────────────</text><text class="terminal-4254706884-r13" x="817.4" y="556.8" textLength="24.4" clip-path="url(#terminal-4254706884-line-22)">──</text><text class="terminal-4254706884-r13" x="841.8" y="556.8" textLength="97.6" clip-path="url(#terminal-4254706884-line-22)">────────</text><text class="terminal-4254706884-r13" x="939.4" y="556.8" textLength="12.2" clip-path="url(#terminal-4254706884-line-22)">┘</text><text class="terminal-4254706884-r1" x="976" y="556.8" textLength="12.2" clip-path="url(#terminal-4254706884-line-22)">
</text><text class="terminal-4254706884-r5" x="109.8" y="581.2" textLength="12.2" clip-path="url(#terminal-4254706884-line-23)">│</text><text class="terminal-4254706884-r5" x="829.6" y="581.2" textLength="12.2" clip-path="url(#terminal-4254706884-line-23)">│</text>
    </g>
    </g>
</svg>
