<svg class="rich-terminal" viewBox="0 0 994 635.5999999999999" xmlns="http://www.w3.org/2000/svg">
    <!-- Generated with Rich https://www.textualize.io -->
    <style>

    @font-face {
        font-family: "Fira Code";
        src: local("FiraCode-Regular"),
                url("https://cdnjs.cloudflare.com/ajax/libs/firacode/6.2.0/woff2/FiraCode-Regular.woff2") format("woff2"),
                url("https://cdnjs.cloudflare.com/ajax/libs/firacode/6.2.0/woff/FiraCode-Regular.woff") format("woff");
        font-style: normal;
        font-weight: 400;
    }
    @font-face {
        font-family: "Fira Code";
        src: local("FiraCode-Bold"),
                url("https://cdnjs.cloudflare.com/ajax/libs/firacode/6.2.0/woff2/FiraCode-Bold.woff2") format("woff2"),
                url("https://cdnjs.cloudflare.com/ajax/libs/firacode/6.2.0/woff/FiraCode-Bold.woff") format("woff");
        font-style: bold;
        font-weight: 700;
    }

    .terminal-2439684673-matrix {
        font-family: Fira Code, monospace;
        font-size: 20px;
        line-height: 24.4px;
        font-variant-east-asian: full-width;
    }

    .terminal-2439684673-title {
        font-size: 18px;
        font-weight: bold;
        font-family: arial;
    }

    .terminal-2439684673-r1 { fill: #c5c8c6 }
.terminal-2439684673-r2 { fill: #8b95a8 }
.terminal-2439684673-r3 { fill: #687082 }
.terminal-2439684673-r4 { fill: #e0e0e0 }
.terminal-2439684673-r5 { fill: #00ffff }
.terminal-2439684673-r6 { fill: #4a6580 }
.terminal-2439684673-r7 { fill: #121212 }
.terminal-2439684673-r8 { fill: #767982 }
.terminal-2439684673-r9 { fill: #a3b5cc }
.terminal-2439684673-r10 { fill: #3d4859 }
.terminal-2439684673-r11 { fill: #a3d5b5;font-weight: bold }
.terminal-2439684673-r12 { fill: #8b95a8;font-weight: bold }
.terminal-2439684673-r13 { fill: #ffa62b;font-weight: bold }
.terminal-2439684673-r14 { fill: #414551 }
    </style>

    <defs>
    <clipPath id="terminal-2439684673-clip-terminal">
      <rect x="0" y="0" width="975.0" height="584.5999999999999" />
    </clipPath>
    <clipPath id="terminal-2439684673-line-0">
    <rect x="0" y="1.5" width="976" height="24.65"/>
            </clipPath>
<clipPath id="terminal-2439684673-line-1">
    <rect x="0" y="25.9" width="976" height="24.65"/>
            </clipPath>
<clipPath id="terminal-2439684673-line-2">
    <rect x="0" y="50.3" width="976" height="24.65"/>
            </clipPath>
<clipPath id="terminal-2439684673-line-3">
    <rect x="0" y="74.7" width="976" height="24.65"/>
            </clipPath>
<clipPath id="terminal-2439684673-line-4">
    <rect x="0" y="99.1" width="976" height="24.65"/>
            </clipPath>
<clipPath id="terminal-2439684673-line-5">
    <rect x="0" y="123.5" width="976" height="24.65"/>
            </clipPath>
<clipPath id="terminal-2439684673-line-6">
    <rect x="0" y="147.9" width="976" height="24.65"/>
            </clipPath>
<clipPath id="terminal-2439684673-line-7">
    <rect x="0" y="172.3" width="976" height="24.65"/>
            </clipPath>
<clipPath id="terminal-2439684673-line-8">
    <rect x="0" y="196.7" width="976" height="24.65"/>
            </clipPath>
<clipPath id="terminal-2439684673-line-9">
    <rect x="0" y="221.1" width="976" height="24.65"/>
            </clipPath>
<clipPath id="terminal-2439684673-line-10">
    <rect x="0" y="245.5" width="976" height="24.65"/>
            </clipPath>
<clipPath id="terminal-2439684673-line-11">
    <rect x="0" y="269.9" width="976" height="24.65"/>
            </clipPath>
<clipPath id="terminal-2439684673-line-12">
    <rect x="0" y="294.3" width="976" height="24.65"/>
            </clipPath>
<clipPath id="terminal-2439684673-line-13">
    <rect x="0" y="318.7" width="976" height="24.65"/>
            </clipPath>
<clipPath id="terminal-2439684673-line-14">
    <rect x="0" y="343.1" width="976" height="24.65"/>
            </clipPath>
<clipPath id="terminal-2439684673-line-15">
    <rect x="0" y="367.5" width="976" height="24.65"/>
            </clipPath>
<clipPath id="terminal-2439684673-line-16">
    <rect x="0" y="391.9" width="976" height="24.65"/>
            </clipPath>
<clipPath id="terminal-2439684673-line-17">
    <rect x="0" y="416.3" width="976" height="24.65"/>
            </clipPath>
<clipPath id="terminal-2439684673-line-18">
    <rect x="0" y="440.7" width="976" height="24.65"/>
            </clipPath>
<clipPath id="terminal-2439684673-line-19">
    <rect x="0" y="465.1" width="976" height="24.65"/>
            </clipPath>
<clipPath id="terminal-2439684673-line-20">
    <rect x="0" y="489.5" width="976" height="24.65"/>
            </clipPath>
<clipPath id="terminal-2439684673-line-21">
    <rect x="0" y="513.9" width="976" height="24.65"/>
            </clipPath>
<clipPath id="terminal-2439684673-line-22">
    <rect x="0" y="538.3" width="976" height="24.65"/>
            </clipPath>
    </defs>

    <rect fill="#292929" stroke="rgba(255,255,255,0.35)" stroke-width="1" x="1" y="1" width="992" height="633.6" rx="8"/><text class="terminal-2439684673-title" fill="#c5c8c6" text-anchor="middle" x="496" y="27">PowerBI&#160;CLI&#160;-&#160;Interactive&#160;TUI</text>
            <g transform="translate(26,22)">
            <circle cx="0" cy="0" r="7" fill="#ff5f57"/>
            <circle cx="22" cy="0" r="7" fill="#febc2e"/>
            <circle cx="44" cy="0" r="7" fill="#28c840"/>
            </g>
        
    <g transform="translate(9, 41)" clip-path="url(#terminal-2439684673-clip-terminal)">
    <rect fill="#252b3b" x="0" y="1.5" width="12.2" height="24.65" shape-rendering="crispEdges"/><rect fill="#252b3b" x="12.2" y="1.5" width="12.2" height="24.65" shape-rendering="crispEdges"/><rect fill="#252b3b" x="24.4" y="1.5" width="61" height="24.65" shape-rendering="crispEdges"/><rect fill="#252b3b" x="85.4" y="1.5" width="12.2" height="24.65" shape-rendering="crispEdges"/><rect fill="#252b3b" x="97.6" y="1.5" width="85.4" height="24.65" shape-rendering="crispEdges"/><rect fill="#252b3b" x="183" y="1.5" width="353.8" height="24.65" shape-rendering="crispEdges"/><rect fill="#252b3b" x="536.8" y="1.5" width="36.6" height="24.65" shape-rendering="crispEdges"/><rect fill="#252b3b" x="573.4" y="1.5" width="195.2" height="24.65" shape-rendering="crispEdges"/><rect fill="#252b3b" x="768.6" y="1.5" width="85.4" height="24.65" shape-rendering="crispEdges"/><rect fill="#252b3b" x="854" y="1.5" width="12.2" height="24.65" shape-rendering="crispEdges"/><rect fill="#252b3b" x="866.2" y="1.5" width="0" height="24.65" shape-rendering="crispEdges"/><rect fill="#252b3b" x="866.2" y="1.5" width="97.6" height="24.65" shape-rendering="crispEdges"/><rect fill="#252b3b" x="963.8" y="1.5" width="12.2" height="24.65" shape-rendering="crispEdges"/><rect fill="#1a1f2e" x="0" y="25.9" width="268.4" height="24.65" shape-rendering="crispEdges"/><rect fill="#1a1f2e" x="268.4" y="25.9" width="707.6" height="24.65" shape-rendering="crispEdges"/><rect fill="#1a1f2e" x="0" y="50.3" width="280.6" height="24.65" shape-rendering="crispEdges"/><rect fill="#1a1f2e" x="280.6" y="50.3" width="85.4" height="24.65" shape-rendering="crispEdges"/><rect fill="#1a1f2e" x="366" y="50.3" width="610" height="24.65" shape-rendering="crispEdges"/><rect fill="#1a1f2e" x="0" y="74.7" width="317.2" height="24.65" shape-rendering="crispEdges"/><rect fill="#1a1f2e" x="317.2" y="74.7" width="658.8" height="24.65" shape-rendering="crispEdges"/><rect fill="#1a1f2e" x="0" y="99.1" width="317.2" height="24.65" shape-rendering="crispEdges"/><rect fill="#1a1f2e" x="317.2" y="99.1" width="658.8" height="24.65" shape-rendering="crispEdges"/><rect fill="#1a1f2e" x="0" y="123.5" width="976" height="24.65" shape-rendering="crispEdges"/><rect fill="#232836" x="0" y="147.9" width="12.2" height="24.65" shape-rendering="crispEdges"/><rect fill="#232836" x="12.2" y="147.9" width="951.6" height="24.65" shape-rendering="crispEdges"/><rect fill="#232836" x="963.8" y="147.9" width="12.2" height="24.65" shape-rendering="crispEdges"/><rect fill="#232836" x="0" y="172.3" width="12.2" height="24.65" shape-rendering="crispEdges"/><rect fill="#232836" x="12.2" y="172.3" width="951.6" height="24.65" shape-rendering="crispEdges"/><rect fill="#232836" x="963.8" y="172.3" width="12.2" height="24.65" shape-rendering="crispEdges"/><rect fill="#232836" x="0" y="196.7" width="12.2" height="24.65" shape-rendering="crispEdges"/><rect fill="#232836" x="12.2" y="196.7" width="12.2" height="24.65" shape-rendering="crispEdges"/><rect fill="#e0e0e0" x="24.4" y="196.7" width="12.2" height="24.65" shape-rendering="crispEdges"/><rect fill="#232836" x="36.6" y="196.7" width="268.4" height="24.65" shape-rendering="crispEdges"/><rect fill="#232836" x="305" y="196.7" width="646.6" height="24.65" shape-rendering="crispEdges"/><rect fill="#232836" x="951.6" y="196.7" width="12.2" height="24.65" shape-rendering="crispEdges"/><rect fill="#232836" x="963.8" y="196.7" width="12.2" height="24.65" shape-rendering="crispEdges"/><rect fill="#232836" x="0" y="221.1" width="12.2" height="24.65" shape-rendering="crispEdges"/><rect fill="#232836" x="12.2" y="221.1" width="951.6" height="24.65" shape-rendering="crispEdges"/><rect fill="#232836" x="963.8" y="221.1" width="12.2" height="24.65" shape-rendering="crispEdges"/><rect fill="#232836" x="0" y="245.5" width="12.2" height="24.65" shape-rendering="crispEdges"/><rect fill="#232836" x="12.2" y="245.5" width="951.6" height="24.65" shape-rendering="crispEdges"/><rect fill="#232836" x="963.8" y="245.5" width="12.2" height="24.65" shape-rendering="crispEdges"/><rect fill="#1a1f2e" x="0" y="269.9" width="976" height="24.65" shape-rendering="crispEdges"/><rect fill="#1a1f2e" x="0" y="294.3" width="976" height="24.65" shape-rendering="crispEdges"/><rect fill="#3d5a4a" x="0" y="318.7" width="12.2" height="24.65" shape-rendering="crispEdges"/><rect fill="#3d5a4a" x="12.2" y="318.7" width="451.4" height="24.65" shape-rendering="crispEdges"/><rect fill="#3d5a4a" x="463.6" y="318.7" width="12.2" height="24.65" shape-rendering="crispEdges"/><rect fill="#1a1f2e" x="475.8" y="318.7" width="12.2" height="24.65" shape-rendering="crispEdges"/><rect fill="#3d4859" x="488" y="318.7" width="12.2" height="24.65" shape-rendering="crispEdges"/><rect fill="#3d4859" x="500.2" y="318.7" width="463.6" height="24.65" shape-rendering="crispEdges"/><rect fill="#3d4859" x="963.8" y="318.7" width="12.2" height="24.65" shape-rendering="crispEdges"/><rect fill="#3d5a4a" x="0" y="343.1" width="12.2" height="24.65" shape-rendering="crispEdges"/><rect fill="#3d5a4a" x="12.2" y="343.1" width="183" height="24.65" shape-rendering="crispEdges"/><rect fill="#3d5a4a" x="195.2" y="343.1" width="73.2" height="24.65" shape-rendering="crispEdges"/><rect fill="#3d5a4a" x="268.4" y="343.1" width="195.2" height="24.65" shape-rendering="crispEdges"/><rect fill="#3d5a4a" x="463.6" y="343.1" width="12.2" height="24.65" shape-rendering="crispEdges"/><rect fill="#1a1f2e" x="475.8" y="343.1" width="12.2" height="24.65" shape-rendering="crispEdges"/><rect fill="#3d4859" x="488" y="343.1" width="12.2" height="24.65" shape-rendering="crispEdges"/><rect fill="#3d4859" x="500.2" y="343.1" width="183" height="24.65" shape-rendering="crispEdges"/><rect fill="#3d4859" x="683.2" y="343.1" width="85.4" height="24.65" shape-rendering="crispEdges"/><rect fill="#3d4859" x="768.6" y="343.1" width="195.2" height="24.65" shape-rendering="crispEdges"/><rect fill="#3d4859" x="963.8" y="343.1" width="12.2" height="24.65" shape-rendering="crispEdges"/><rect fill="#3d5a4a" x="0" y="367.5" width="12.2" height="24.65" shape-rendering="crispEdges"/><rect fill="#3d5a4a" x="12.2" y="367.5" width="451.4" height="24.65" shape-rendering="crispEdges"/><rect fill="#3d5a4a" x="463.6" y="367.5" width="12.2" height="24.65" shape-rendering="crispEdges"/><rect fill="#1a1f2e" x="475.8" y="367.5" width="12.2" height="24.65" shape-rendering="crispEdges"/><rect fill="#3d4859" x="488" y="367.5" width="12.2" height="24.65" shape-rendering="crispEdges"/><rect fill="#3d4859" x="500.2" y="367.5" width="463.6" height="24.65" shape-rendering="crispEdges"/><rect fill="#3d4859" x="963.8" y="367.5" width="12.2" height="24.65" shape-rendering="crispEdges"/><rect fill="#1a1f2e" x="0" y="391.9" width="976" height="24.65" shape-rendering="crispEdges"/><rect fill="#1a1f2e" x="0" y="416.3" width="976" height="24.65" shape-rendering="crispEdges"/><rect fill="#1a1f2e" x="0" y="440.7" width="12.2" height="24.65" shape-rendering="crispEdges"/><rect fill="#1a1f2e" x="12.2" y="440.7" width="951.6" height="24.65" shape-rendering="crispEdges"/><rect fill="#1a1f2e" x="963.8" y="440.7" width="12.2" height="24.65" shape-rendering="crispEdges"/><rect fill="#1a1f2e" x="0" y="465.1" width="12.2" height="24.65" shape-rendering="crispEdges"/><rect fill="#1a1f2e" x="12.2" y="465.1" width="951.6" height="24.65" shape-rendering="crispEdges"/><rect fill="#1a1f2e" x="963.8" y="465.1" width="12.2" height="24.65" shape-rendering="crispEdges"/><rect fill="#1a1f2e" x="0" y="489.5" width="12.2" height="24.65" shape-rendering="crispEdges"/><rect fill="#1a1f2e" x="12.2" y="489.5" width="12.2" height="24.65" shape-rendering="crispEdges"/><rect fill="#1a1f2e" x="24.4" y="489.5" width="61" height="24.65" shape-rendering="crispEdges"/><rect fill="#1a1f2e" x="85.4" y="489.5" width="61" height="24.65" shape-rendering="crispEdges"/><rect fill="#1a1f2e" x="146.4" y="489.5" width="658.8" height="24.65" shape-rendering="crispEdges"/><rect fill="#1a1f2e" x="805.2" y="489.5" width="12.2" height="24.65" shape-rendering="crispEdges"/><rect fill="#1a1f2e" x="817.4" y="489.5" width="24.4" height="24.65" shape-rendering="crispEdges"/><rect fill="#1a1f2e" x="841.8" y="489.5" width="97.6" height="24.65" shape-rendering="crispEdges"/><rect fill="#1a1f2e" x="939.4" y="489.5" width="12.2" height="24.65" shape-rendering="crispEdges"/><rect fill="#1a1f2e" x="951.6" y="489.5" width="12.2" height="24.65" shape-rendering="crispEdges"/><rect fill="#1a1f2e" x="963.8" y="489.5" width="12.2" height="24.65" shape-rendering="crispEdges"/><rect fill="#1a1f2e" x="0" y="513.9" width="12.2" height="24.65" shape-rendering="crispEdges"/><rect fill="#1a1f2e" x="12.2" y="513.9" width="951.6" height="24.65" shape-rendering="crispEdges"/><rect fill="#1a1f2e" x="963.8" y="513.9" width="12.2" height="24.65" shape-rendering="crispEdges"/><rect fill="#1a1f2e" x="0" y="538.3" width="12.2" height="24.65" shape-rendering="crispEdges"/><rect fill="#1a1f2e" x="12.2" y="538.3" width="951.6" height="24.65" shape-rendering="crispEdges"/><rect fill="#1a1f2e" x="963.8" y="538.3" width="12.2" height="24.65" shape-rendering="crispEdges"/><rect fill="#1a1f2e" x="0" y="562.7" width="976" height="24.65" shape-rendering="crispEdges"/>
    <g class="terminal-2439684673-matrix">
    <text class="terminal-2439684673-r2" x="12.2" y="20" textLength="12.2" clip-path="url(#terminal-2439684673-line-0)">⭘</text><text class="terminal-2439684673-r2" x="183" y="20" textLength="353.8" clip-path="url(#terminal-2439684673-line-0)">PowerBI&#160;CLI&#160;-&#160;Interactive&#160;TUI</text><text class="terminal-2439684673-r3" x="536.8" y="20" textLength="36.6" clip-path="url(#terminal-2439684673-line-0)">&#160;—&#160;</text><text class="terminal-2439684673-r3" x="573.4" y="20" textLength="195.2" clip-path="url(#terminal-2439684673-line-0)">Press&#160;?&#160;for&#160;help</text><text class="terminal-2439684673-r1" x="976" y="20" textLength="12.2" clip-path="url(#terminal-2439684673-line-0)">
</text><text class="terminal-2439684673-r4" x="0" y="44.4" textLength="268.4" clip-path="url(#terminal-2439684673-line-1)">Configuration&#160;Settings</text><text class="terminal-2439684673-r1" x="976" y="44.4" textLength="12.2" clip-path="url(#terminal-2439684673-line-1)">
</text><text class="terminal-2439684673-r4" x="0" y="68.8" textLength="280.6" clip-path="url(#terminal-2439684673-line-2)">Current&#160;output&#160;folder:&#160;</text><text class="terminal-2439684673-r5" x="280.6" y="68.8" textLength="85.4" clip-path="url(#terminal-2439684673-line-2)">Not&#160;set</text><text class="terminal-2439684673-r1" x="976" y="68.8" textLength="12.2" clip-path="url(#terminal-2439684673-line-2)">
</text><text class="terminal-2439684673-r1" x="976" y="93.2" textLength="12.2" clip-path="url(#terminal-2439684673-line-3)">
</text><text class="terminal-2439684673-r2" x="0" y="117.6" textLength="317.2" clip-path="url(#terminal-2439684673-line-4)">Set&#160;Default&#160;Output&#160;Folder:</text><text class="terminal-2439684673-r1" x="976" y="117.6" textLength="12.2" clip-path="url(#terminal-2439684673-line-4)">
</text><text class="terminal-2439684673-r1" x="976" y="142" textLength="12.2" clip-path="url(#terminal-2439684673-line-5)">
</text><text class="terminal-2439684673-r6" x="0" y="166.4" textLength="12.2" clip-path="url(#terminal-2439684673-line-6)">╭</text><text class="terminal-2439684673-r6" x="12.2" y="166.4" textLength="951.6" clip-path="url(#terminal-2439684673-line-6)">──────────────────────────────────────────────────────────────────────────────</text><text class="terminal-2439684673-r6" x="963.8" y="166.4" textLength="12.2" clip-path="url(#terminal-2439684673-line-6)">╮</text><text class="terminal-2439684673-r1" x="976" y="166.4" textLength="12.2" clip-path="url(#terminal-2439684673-line-6)">
</text><text class="terminal-2439684673-r6" x="0" y="190.8" textLength="12.2" clip-path="url(#terminal-2439684673-line-7)">│</text><text class="terminal-2439684673-r6" x="963.8" y="190.8" textLength="12.2" clip-path="url(#terminal-2439684673-line-7)">│</text><text class="terminal-2439684673-r1" x="976" y="190.8" textLength="12.2" clip-path="url(#terminal-2439684673-line-7)">
</text><text class="terminal-2439684673-r6" x="0" y="215.2" textLength="12.2" clip-path="url(#terminal-2439684673-line-8)">│</text><text class="terminal-2439684673-r7" x="24.4" y="215.2" textLength="12.2" clip-path="url(#terminal-2439684673-line-8)">e</text><text class="terminal-2439684673-r8" x="36.6" y="215.2" textLength="268.4" clip-path="url(#terminal-2439684673-line-8)">.g.,&#160;~/PowerBI/backups</text><text class="terminal-2439684673-r6" x="963.8" y="215.2" textLength="12.2" clip-path="url(#terminal-2439684673-line-8)">│</text><text class="terminal-2439684673-r1" x="976" y="215.2" textLength="12.2" clip-path="url(#terminal-2439684673-line-8)">
</text><text class="terminal-2439684673-r6" x="0" y="239.6" textLength="12.2" clip-path="url(#terminal-2439684673-line-9)">│</text><text class="terminal-2439684673-r6" x="963.8" y="239.6" textLength="12.2" clip-path="url(#terminal-2439684673-line-9)">│</text><text class="terminal-2439684673-r1" x="976" y="239.6" textLength="12.2" clip-path="url(#terminal-2439684673-line-9)">
</text><text class="terminal-2439684673-r6" x="0" y="264" textLength="12.2" clip-path="url(#terminal-2439684673-line-10)">╰</text><text class="terminal-2439684673-r6" x="12.2" y="264" textLength="951.6" clip-path="url(#terminal-2439684673-line-10)">──────────────────────────────────────────────────────────────────────────────</text><text class="terminal-2439684673-r6" x="963.8" y="264" textLength="12.2" clip-path="url(#terminal-2439684673-line-10)">╯</text><text class="terminal-2439684673-r1" x="976" y="264" textLength="12.2" clip-path="url(#terminal-2439684673-line-10)">
</text><text class="terminal-2439684673-r1" x="976" y="288.4" textLength="12.2" clip-path="url(#terminal-2439684673-line-11)">
</text><text class="terminal-2439684673-r1" x="976" y="312.8" textLength="12.2" clip-path="url(#terminal-2439684673-line-12)">
</text><text class="terminal-2439684673-r10" x="0" y="337.2" textLength="12.2" clip-path="url(#terminal-2439684673-line-13)">╭</text><text class="terminal-2439684673-r10" x="12.2" y="337.2" textLength="451.4" clip-path="url(#terminal-2439684673-line-13)">─────────────────────────────────────</text><text class="terminal-2439684673-r10" x="463.6" y="337.2" textLength="12.2" clip-path="url(#terminal-2439684673-line-13)">╮</text><text class="terminal-2439684673-r10" x="488" y="337.2" textLength="12.2" clip-path="url(#terminal-2439684673-line-13)">╭</text><text class="terminal-2439684673-r10" x="500.2" y="337.2" textLength="463.6" clip-path="url(#terminal-2439684673-line-13)">──────────────────────────────────────</text><text class="terminal-2439684673-r10" x="963.8" y="337.2" textLength="12.2" clip-path="url(#terminal-2439684673-line-13)">╮</text><text class="terminal-2439684673-r1" x="976" y="337.2" textLength="12.2" clip-path="url(#terminal-2439684673-line-13)">
</text><text class="terminal-2439684673-r10" x="0" y="361.6" textLength="12.2" clip-path="url(#terminal-2439684673-line-14)">│</text><text class="terminal-2439684673-r11" x="195.2" y="361.6" textLength="73.2" clip-path="url(#terminal-2439684673-line-14)">&#160;Save&#160;</text><text class="terminal-2439684673-r10" x="463.6" y="361.6" textLength="12.2" clip-path="url(#terminal-2439684673-line-14)">│</text><text class="terminal-2439684673-r10" x="488" y="361.6" textLength="12.2" clip-path="url(#terminal-2439684673-line-14)">│</text><text class="terminal-2439684673-r12" x="683.2" y="361.6" textLength="85.4" clip-path="url(#terminal-2439684673-line-14)">&#160;Clear&#160;</text><text class="terminal-2439684673-r10" x="963.8" y="361.6" textLength="12.2" clip-path="url(#terminal-2439684673-line-14)">│</text><text class="terminal-2439684673-r1" x="976" y="361.6" textLength="12.2" clip-path="url(#terminal-2439684673-line-14)">
</text><text class="terminal-2439684673-r10" x="0" y="386" textLength="12.2" clip-path="url(#terminal-2439684673-line-15)">╰</text><text class="terminal-2439684673-r10" x="12.2" y="386" textLength="451.4" clip-path="url(#terminal-2439684673-line-15)">─────────────────────────────────────</text><text class="terminal-2439684673-r10" x="463.6" y="386" textLength="12.2" clip-path="url(#terminal-2439684673-line-15)">╯</text><text class="terminal-2439684673-r10" x="488" y="386" textLength="12.2" clip-path="url(#terminal-2439684673-line-15)">╰</text><text class="terminal-2439684673-r10" x="500.2" y="386" textLength="463.6" clip-path="url(#terminal-2439684673-line-15)">──────────────────────────────────────</text><text class="terminal-2439684673-r10" x="963.8" y="386" textLength="12.2" clip-path="url(#terminal-2439684673-line-15)">╯</text><text class="terminal-2439684673-r1" x="976" y="386" textLength="12.2" clip-path="url(#terminal-2439684673-line-15)">
</text><text class="terminal-2439684673-r1" x="976" y="410.4" textLength="12.2" clip-path="url(#terminal-2439684673-line-16)">
</text><text class="terminal-2439684673-r1" x="976" y="434.8" textLength="12.2" clip-path="url(#terminal-2439684673-line-17)">
</text><text class="terminal-2439684673-r10" x="0" y="459.2" textLength="12.2" clip-path="url(#terminal-2439684673-line-18)">╭</text><text class="terminal-2439684673-r10" x="12.2" y="459.2" textLength="951.6" clip-path="url(#terminal-2439684673-line-18)">──────────────────────────────────────────────────────────────────────────────</text><text class="terminal-2439684673-r10" x="963.8" y="459.2" textLength="12.2" clip-path="url(#terminal-2439684673-line-18)">╮</text><text class="terminal-2439684673-r1" x="976" y="459.2" textLength="12.2" clip-path="url(#terminal-2439684673-line-18)">
</text><text class="terminal-2439684673-r10" x="0" y="483.6" textLength="12.2" clip-path="url(#terminal-2439684673-line-19)">│</text><text class="terminal-2439684673-r10" x="963.8" y="483.6" textLength="12.2" clip-path="url(#terminal-2439684673-line-19)">│</text><text class="terminal-2439684673-r1" x="976" y="483.6" textLength="12.2" clip-path="url(#terminal-2439684673-line-19)">
</text><text class="terminal-2439684673-r10" x="0" y="508" textLength="12.2" clip-path="url(#terminal-2439684673-line-20)">│</text><text class="terminal-2439684673-r13" x="24.4" y="508" textLength="61" clip-path="url(#terminal-2439684673-line-20)">&#160;esc&#160;</text><text class="terminal-2439684673-r4" x="85.4" y="508" textLength="61" clip-path="url(#terminal-2439684673-line-20)">Back&#160;</text><text class="terminal-2439684673-r14" x="805.2" y="508" textLength="12.2" clip-path="url(#terminal-2439684673-line-20)">▏</text><text class="terminal-2439684673-r13" x="817.4" y="508" textLength="24.4" clip-path="url(#terminal-2439684673-line-20)">^p</text><text class="terminal-2439684673-r4" x="841.8" y="508" textLength="97.6" clip-path="url(#terminal-2439684673-line-20)">&#160;palette</text><text class="terminal-2439684673-r10" x="963.8" y="508" textLength="12.2" clip-path="url(#terminal-2439684673-line-20)">│</text><text class="terminal-2439684673-r1" x="976" y="508" textLength="12.2" clip-path="url(#terminal-2439684673-line-20)">
</text><text class="terminal-2439684673-r10" x="0" y="532.4" textLength="12.2" clip-path="url(#terminal-2439684673-line-21)">│</text><text class="terminal-2439684673-r10" x="963.8" y="532.4" textLength="12.2" clip-path="url(#terminal-2439684673-line-21)">│</text><text class="terminal-2439684673-r1" x="976" y="532.4" textLength="12.2" clip-path="url(#terminal-2439684673-line-21)">
</text><text class="terminal-2439684673-r10" x="0" y="556.8" textLength="12.2" clip-path="url(#terminal-2439684673-line-22)">╰</text><text class="terminal-2439684673-r10" x="12.2" y="556.8" textLength="951.6" clip-path="url(#terminal-2439684673-line-22)">──────────────────────────────────────────────────────────────────────────────</text><text class="terminal-2439684673-r10" x="963.8" y="556.8" textLength="12.2" clip-path="url(#terminal-2439684673-line-22)">╯</text><text class="terminal-2439684673-r1" x="976" y="556.8" textLength="12.2" clip-path="url(#terminal-2439684673-line-22)">
</text>
    </g>
    </g>
</svg>
