<svg class="rich-terminal" viewBox="0 0 994 635.5999999999999" xmlns="http://www.w3.org/2000/svg">
    <!-- Generated with Rich https://www.textualize.io -->
    <style>

    @font-face {
        font-family: "Fira Code";
        src: local("FiraCode-Regular"),
                url("https://cdnjs.cloudflare.com/ajax/libs/firacode/6.2.0/woff2/FiraCode-Regular.woff2") format("woff2"),
                url("https://cdnjs.cloudflare.com/ajax/libs/firacode/6.2.0/woff/FiraCode-Regular.woff") format("woff");
        font-style: normal;
        font-weight: 400;
    }
    @font-face {
        font-family: "Fira Code";
        src: local("FiraCode-Bold"),
                url("https://cdnjs.cloudflare.com/ajax/libs/firacode/6.2.0/woff2/FiraCode-Bold.woff2") format("woff2"),
                url("https://cdnjs.cloudflare.com/ajax/libs/firacode/6.2.0/woff/FiraCode-Bold.woff") format("woff");
        font-style: bold;
        font-weight: 700;
    }

    .terminal-871428029-matrix {
        font-family: Fira Code, monospace;
        font-size: 20px;
        line-height: 24.4px;
        font-variant-east-asian: full-width;
    }

    .terminal-871428029-title {
        font-size: 18px;
        font-weight: bold;
        font-family: arial;
    }

    .terminal-871428029-r1 { fill: #c5c8c6 }
.terminal-871428029-r2 { fill: #a0a0a0 }
.terminal-871428029-r3 { fill: #737475 }
.terminal-871428029-r4 { fill: #3c3f41 }
.terminal-871428029-r5 { fill: #6897bb;font-weight: bold }
.terminal-871428029-r6 { fill: #a9b7c6 }
.terminal-871428029-r7 { fill: #ffa62b;font-weight: bold }
.terminal-871428029-r8 { fill: #e0e0e0 }
.terminal-871428029-r9 { fill: #4f4f4f }
    </style>

    <defs>
    <clipPath id="terminal-871428029-clip-terminal">
      <rect x="0" y="0" width="975.0" height="584.5999999999999" />
    </clipPath>
    <clipPath id="terminal-871428029-line-0">
    <rect x="0" y="1.5" width="976" height="24.65"/>
            </clipPath>
<clipPath id="terminal-871428029-line-1">
    <rect x="0" y="25.9" width="976" height="24.65"/>
            </clipPath>
<clipPath id="terminal-871428029-line-2">
    <rect x="0" y="50.3" width="976" height="24.65"/>
            </clipPath>
<clipPath id="terminal-871428029-line-3">
    <rect x="0" y="74.7" width="976" height="24.65"/>
            </clipPath>
<clipPath id="terminal-871428029-line-4">
    <rect x="0" y="99.1" width="976" height="24.65"/>
            </clipPath>
<clipPath id="terminal-871428029-line-5">
    <rect x="0" y="123.5" width="976" height="24.65"/>
            </clipPath>
<clipPath id="terminal-871428029-line-6">
    <rect x="0" y="147.9" width="976" height="24.65"/>
            </clipPath>
<clipPath id="terminal-871428029-line-7">
    <rect x="0" y="172.3" width="976" height="24.65"/>
            </clipPath>
<clipPath id="terminal-871428029-line-8">
    <rect x="0" y="196.7" width="976" height="24.65"/>
            </clipPath>
<clipPath id="terminal-871428029-line-9">
    <rect x="0" y="221.1" width="976" height="24.65"/>
            </clipPath>
<clipPath id="terminal-871428029-line-10">
    <rect x="0" y="245.5" width="976" height="24.65"/>
            </clipPath>
<clipPath id="terminal-871428029-line-11">
    <rect x="0" y="269.9" width="976" height="24.65"/>
            </clipPath>
<clipPath id="terminal-871428029-line-12">
    <rect x="0" y="294.3" width="976" height="24.65"/>
            </clipPath>
<clipPath id="terminal-871428029-line-13">
    <rect x="0" y="318.7" width="976" height="24.65"/>
            </clipPath>
<clipPath id="terminal-871428029-line-14">
    <rect x="0" y="343.1" width="976" height="24.65"/>
            </clipPath>
<clipPath id="terminal-871428029-line-15">
    <rect x="0" y="367.5" width="976" height="24.65"/>
            </clipPath>
<clipPath id="terminal-871428029-line-16">
    <rect x="0" y="391.9" width="976" height="24.65"/>
            </clipPath>
<clipPath id="terminal-871428029-line-17">
    <rect x="0" y="416.3" width="976" height="24.65"/>
            </clipPath>
<clipPath id="terminal-871428029-line-18">
    <rect x="0" y="440.7" width="976" height="24.65"/>
            </clipPath>
<clipPath id="terminal-871428029-line-19">
    <rect x="0" y="465.1" width="976" height="24.65"/>
            </clipPath>
<clipPath id="terminal-871428029-line-20">
    <rect x="0" y="489.5" width="976" height="24.65"/>
            </clipPath>
<clipPath id="terminal-871428029-line-21">
    <rect x="0" y="513.9" width="976" height="24.65"/>
            </clipPath>
<clipPath id="terminal-871428029-line-22">
    <rect x="0" y="538.3" width="976" height="24.65"/>
            </clipPath>
    </defs>

    <rect fill="#292929" stroke="rgba(255,255,255,0.35)" stroke-width="1" x="1" y="1" width="992" height="633.6" rx="8"/><text class="terminal-871428029-title" fill="#c5c8c6" text-anchor="middle" x="496" y="27">PowerBI&#160;CLI&#160;-&#160;Interactive&#160;TUI</text>
            <g transform="translate(26,22)">
            <circle cx="0" cy="0" r="7" fill="#ff5f57"/>
            <circle cx="22" cy="0" r="7" fill="#febc2e"/>
            <circle cx="44" cy="0" r="7" fill="#28c840"/>
            </g>
        
    <g transform="translate(9, 41)" clip-path="url(#terminal-871428029-clip-terminal)">
    <rect fill="#1e2124" x="0" y="1.5" width="12.2" height="24.65" shape-rendering="crispEdges"/><rect fill="#1e2124" x="12.2" y="1.5" width="12.2" height="24.65" shape-rendering="crispEdges"/><rect fill="#1e2124" x="24.4" y="1.5" width="61" height="24.65" shape-rendering="crispEdges"/><rect fill="#1e2124" x="85.4" y="1.5" width="12.2" height="24.65" shape-rendering="crispEdges"/><rect fill="#1e2124" x="97.6" y="1.5" width="85.4" height="24.65" shape-rendering="crispEdges"/><rect fill="#1e2124" x="183" y="1.5" width="353.8" height="24.65" shape-rendering="crispEdges"/><rect fill="#1e2124" x="536.8" y="1.5" width="36.6" height="24.65" shape-rendering="crispEdges"/><rect fill="#1e2124" x="573.4" y="1.5" width="195.2" height="24.65" shape-rendering="crispEdges"/><rect fill="#1e2124" x="768.6" y="1.5" width="85.4" height="24.65" shape-rendering="crispEdges"/><rect fill="#1e2124" x="854" y="1.5" width="12.2" height="24.65" shape-rendering="crispEdges"/><rect fill="#1e2124" x="866.2" y="1.5" width="0" height="24.65" shape-rendering="crispEdges"/><rect fill="#1e2124" x="866.2" y="1.5" width="97.6" height="24.65" shape-rendering="crispEdges"/><rect fill="#1e2124" x="963.8" y="1.5" width="12.2" height="24.65" shape-rendering="crispEdges"/><rect fill="#1e2124" x="0" y="25.9" width="12.2" height="24.65" shape-rendering="crispEdges"/><rect fill="#1e2124" x="12.2" y="25.9" width="951.6" height="24.65" shape-rendering="crispEdges"/><rect fill="#1e2124" x="963.8" y="25.9" width="12.2" height="24.65" shape-rendering="crispEdges"/><rect fill="#1e2124" x="0" y="50.3" width="12.2" height="24.65" shape-rendering="crispEdges"/><rect fill="#1e2124" x="12.2" y="50.3" width="951.6" height="24.65" shape-rendering="crispEdges"/><rect fill="#1e2124" x="963.8" y="50.3" width="12.2" height="24.65" shape-rendering="crispEdges"/><rect fill="#1e2124" x="0" y="74.7" width="12.2" height="24.65" shape-rendering="crispEdges"/><rect fill="#1e2124" x="12.2" y="74.7" width="12.2" height="24.65" shape-rendering="crispEdges"/><rect fill="#313335" x="24.4" y="74.7" width="12.2" height="24.65" shape-rendering="crispEdges"/><rect fill="#313335" x="36.6" y="74.7" width="268.4" height="24.65" shape-rendering="crispEdges"/><rect fill="#313335" x="305" y="74.7" width="12.2" height="24.65" shape-rendering="crispEdges"/><rect fill="#1e2124" x="317.2" y="74.7" width="12.2" height="24.65" shape-rendering="crispEdges"/><rect fill="#313335" x="329.4" y="74.7" width="12.2" height="24.65" shape-rendering="crispEdges"/><rect fill="#313335" x="341.6" y="74.7" width="280.6" height="24.65" shape-rendering="crispEdges"/><rect fill="#313335" x="622.2" y="74.7" width="12.2" height="24.65" shape-rendering="crispEdges"/><rect fill="#1e2124" x="634.4" y="74.7" width="12.2" height="24.65" shape-rendering="crispEdges"/><rect fill="#313335" x="646.6" y="74.7" width="12.2" height="24.65" shape-rendering="crispEdges"/><rect fill="#313335" x="658.8" y="74.7" width="280.6" height="24.65" shape-rendering="crispEdges"/><rect fill="#313335" x="939.4" y="74.7" width="12.2" height="24.65" shape-rendering="crispEdges"/><rect fill="#1e2124" x="951.6" y="74.7" width="12.2" height="24.65" shape-rendering="crispEdges"/><rect fill="#1e2124" x="963.8" y="74.7" width="12.2" height="24.65" shape-rendering="crispEdges"/><rect fill="#1e2124" x="0" y="99.1" width="12.2" height="24.65" shape-rendering="crispEdges"/><rect fill="#1e2124" x="12.2" y="99.1" width="12.2" height="24.65" shape-rendering="crispEdges"/><rect fill="#313335" x="24.4" y="99.1" width="12.2" height="24.65" shape-rendering="crispEdges"/><rect fill="#313335" x="36.6" y="99.1" width="268.4" height="24.65" shape-rendering="crispEdges"/><rect fill="#313335" x="305" y="99.1" width="12.2" height="24.65" shape-rendering="crispEdges"/><rect fill="#1e2124" x="317.2" y="99.1" width="12.2" height="24.65" shape-rendering="crispEdges"/><rect fill="#313335" x="329.4" y="99.1" width="12.2" height="24.65" shape-rendering="crispEdges"/><rect fill="#313335" x="341.6" y="99.1" width="280.6" height="24.65" shape-rendering="crispEdges"/><rect fill="#313335" x="622.2" y="99.1" width="12.2" height="24.65" shape-rendering="crispEdges"/><rect fill="#1e2124" x="634.4" y="99.1" width="12.2" height="24.65" shape-rendering="crispEdges"/><rect fill="#313335" x="646.6" y="99.1" width="12.2" height="24.65" shape-rendering="crispEdges"/><rect fill="#313335" x="658.8" y="99.1" width="280.6" height="24.65" shape-rendering="crispEdges"/><rect fill="#313335" x="939.4" y="99.1" width="12.2" height="24.65" shape-rendering="crispEdges"/><rect fill="#1e2124" x="951.6" y="99.1" width="12.2" height="24.65" shape-rendering="crispEdges"/><rect fill="#1e2124" x="963.8" y="99.1" width="12.2" height="24.65" shape-rendering="crispEdges"/><rect fill="#1e2124" x="0" y="123.5" width="12.2" height="24.65" shape-rendering="crispEdges"/><rect fill="#1e2124" x="12.2" y="123.5" width="12.2" height="24.65" shape-rendering="crispEdges"/><rect fill="#313335" x="24.4" y="123.5" width="12.2" height="24.65" shape-rendering="crispEdges"/><rect fill="#313335" x="36.6" y="123.5" width="12.2" height="24.65" shape-rendering="crispEdges"/><rect fill="#313335" x="48.8" y="123.5" width="85.4" height="24.65" shape-rendering="crispEdges"/><rect fill="#313335" x="134.2" y="123.5" width="158.6" height="24.65" shape-rendering="crispEdges"/><rect fill="#313335" x="292.8" y="123.5" width="12.2" height="24.65" shape-rendering="crispEdges"/><rect fill="#313335" x="305" y="123.5" width="12.2" height="24.65" shape-rendering="crispEdges"/><rect fill="#1e2124" x="317.2" y="123.5" width="12.2" height="24.65" shape-rendering="crispEdges"/><rect fill="#313335" x="329.4" y="123.5" width="12.2" height="24.65" shape-rendering="crispEdges"/><rect fill="#313335" x="341.6" y="123.5" width="12.2" height="24.65" shape-rendering="crispEdges"/><rect fill="#313335" x="353.8" y="123.5" width="158.6" height="24.65" shape-rendering="crispEdges"/><rect fill="#313335" x="512.4" y="123.5" width="97.6" height="24.65" shape-rendering="crispEdges"/><rect fill="#313335" x="610" y="123.5" width="12.2" height="24.65" shape-rendering="crispEdges"/><rect fill="#313335" x="622.2" y="123.5" width="12.2" height="24.65" shape-rendering="crispEdges"/><rect fill="#1e2124" x="634.4" y="123.5" width="12.2" height="24.65" shape-rendering="crispEdges"/><rect fill="#313335" x="646.6" y="123.5" width="12.2" height="24.65" shape-rendering="crispEdges"/><rect fill="#313335" x="658.8" y="123.5" width="12.2" height="24.65" shape-rendering="crispEdges"/><rect fill="#313335" x="671" y="123.5" width="73.2" height="24.65" shape-rendering="crispEdges"/><rect fill="#313335" x="744.2" y="123.5" width="183" height="24.65" shape-rendering="crispEdges"/><rect fill="#313335" x="927.2" y="123.5" width="12.2" height="24.65" shape-rendering="crispEdges"/><rect fill="#313335" x="939.4" y="123.5" width="12.2" height="24.65" shape-rendering="crispEdges"/><rect fill="#1e2124" x="951.6" y="123.5" width="12.2" height="24.65" shape-rendering="crispEdges"/><rect fill="#1e2124" x="963.8" y="123.5" width="12.2" height="24.65" shape-rendering="crispEdges"/><rect fill="#1e2124" x="0" y="147.9" width="12.2" height="24.65" shape-rendering="crispEdges"/><rect fill="#1e2124" x="12.2" y="147.9" width="12.2" height="24.65" shape-rendering="crispEdges"/><rect fill="#313335" x="24.4" y="147.9" width="12.2" height="24.65" shape-rendering="crispEdges"/><rect fill="#313335" x="36.6" y="147.9" width="12.2" height="24.65" shape-rendering="crispEdges"/><rect fill="#313335" x="48.8" y="147.9" width="12.2" height="24.65" shape-rendering="crispEdges"/><rect fill="#313335" x="61" y="147.9" width="48.8" height="24.65" shape-rendering="crispEdges"/><rect fill="#313335" x="109.8" y="147.9" width="183" height="24.65" shape-rendering="crispEdges"/><rect fill="#313335" x="292.8" y="147.9" width="12.2" height="24.65" shape-rendering="crispEdges"/><rect fill="#313335" x="305" y="147.9" width="12.2" height="24.65" shape-rendering="crispEdges"/><rect fill="#1e2124" x="317.2" y="147.9" width="12.2" height="24.65" shape-rendering="crispEdges"/><rect fill="#313335" x="329.4" y="147.9" width="12.2" height="24.65" shape-rendering="crispEdges"/><rect fill="#313335" x="341.6" y="147.9" width="12.2" height="24.65" shape-rendering="crispEdges"/><rect fill="#313335" x="353.8" y="147.9" width="12.2" height="24.65" shape-rendering="crispEdges"/><rect fill="#313335" x="366" y="147.9" width="85.4" height="24.65" shape-rendering="crispEdges"/><rect fill="#313335" x="451.4" y="147.9" width="158.6" height="24.65" shape-rendering="crispEdges"/><rect fill="#313335" x="610" y="147.9" width="12.2" height="24.65" shape-rendering="crispEdges"/><rect fill="#313335" x="622.2" y="147.9" width="12.2" height="24.65" shape-rendering="crispEdges"/><rect fill="#1e2124" x="634.4" y="147.9" width="12.2" height="24.65" shape-rendering="crispEdges"/><rect fill="#313335" x="646.6" y="147.9" width="12.2" height="24.65" shape-rendering="crispEdges"/><rect fill="#313335" x="658.8" y="147.9" width="12.2" height="24.65" shape-rendering="crispEdges"/><rect fill="#313335" x="671" y="147.9" width="12.2" height="24.65" shape-rendering="crispEdges"/><rect fill="#313335" x="683.2" y="147.9" width="195.2" height="24.65" shape-rendering="crispEdges"/><rect fill="#313335" x="878.4" y="147.9" width="48.8" height="24.65" shape-rendering="crispEdges"/><rect fill="#313335" x="927.2" y="147.9" width="12.2" height="24.65" shape-rendering="crispEdges"/><rect fill="#313335" x="939.4" y="147.9" width="12.2" height="24.65" shape-rendering="crispEdges"/><rect fill="#1e2124" x="951.6" y="147.9" width="12.2" height="24.65" shape-rendering="crispEdges"/><rect fill="#1e2124" x="963.8" y="147.9" width="12.2" height="24.65" shape-rendering="crispEdges"/><rect fill="#1e2124" x="0" y="172.3" width="12.2" height="24.65" shape-rendering="crispEdges"/><rect fill="#1e2124" x="12.2" y="172.3" width="12.2" height="24.65" shape-rendering="crispEdges"/><rect fill="#313335" x="24.4" y="172.3" width="12.2" height="24.65" shape-rendering="crispEdges"/><rect fill="#313335" x="36.6" y="172.3" width="268.4" height="24.65" shape-rendering="crispEdges"/><rect fill="#313335" x="305" y="172.3" width="12.2" height="24.65" shape-rendering="crispEdges"/><rect fill="#1e2124" x="317.2" y="172.3" width="12.2" height="24.65" shape-rendering="crispEdges"/><rect fill="#313335" x="329.4" y="172.3" width="12.2" height="24.65" shape-rendering="crispEdges"/><rect fill="#313335" x="341.6" y="172.3" width="280.6" height="24.65" shape-rendering="crispEdges"/><rect fill="#313335" x="622.2" y="172.3" width="12.2" height="24.65" shape-rendering="crispEdges"/><rect fill="#1e2124" x="634.4" y="172.3" width="12.2" height="24.65" shape-rendering="crispEdges"/><rect fill="#313335" x="646.6" y="172.3" width="12.2" height="24.65" shape-rendering="crispEdges"/><rect fill="#313335" x="658.8" y="172.3" width="280.6" height="24.65" shape-rendering="crispEdges"/><rect fill="#313335" x="939.4" y="172.3" width="12.2" height="24.65" shape-rendering="crispEdges"/><rect fill="#1e2124" x="951.6" y="172.3" width="12.2" height="24.65" shape-rendering="crispEdges"/><rect fill="#1e2124" x="963.8" y="172.3" width="12.2" height="24.65" shape-rendering="crispEdges"/><rect fill="#1e2124" x="0" y="196.7" width="12.2" height="24.65" shape-rendering="crispEdges"/><rect fill="#1e2124" x="12.2" y="196.7" width="12.2" height="24.65" shape-rendering="crispEdges"/><rect fill="#313335" x="24.4" y="196.7" width="12.2" height="24.65" shape-rendering="crispEdges"/><rect fill="#313335" x="36.6" y="196.7" width="268.4" height="24.65" shape-rendering="crispEdges"/><rect fill="#313335" x="305" y="196.7" width="12.2" height="24.65" shape-rendering="crispEdges"/><rect fill="#1e2124" x="317.2" y="196.7" width="12.2" height="24.65" shape-rendering="crispEdges"/><rect fill="#313335" x="329.4" y="196.7" width="12.2" height="24.65" shape-rendering="crispEdges"/><rect fill="#313335" x="341.6" y="196.7" width="280.6" height="24.65" shape-rendering="crispEdges"/><rect fill="#313335" x="622.2" y="196.7" width="12.2" height="24.65" shape-rendering="crispEdges"/><rect fill="#1e2124" x="634.4" y="196.7" width="12.2" height="24.65" shape-rendering="crispEdges"/><rect fill="#313335" x="646.6" y="196.7" width="12.2" height="24.65" shape-rendering="crispEdges"/><rect fill="#313335" x="658.8" y="196.7" width="280.6" height="24.65" shape-rendering="crispEdges"/><rect fill="#313335" x="939.4" y="196.7" width="12.2" height="24.65" shape-rendering="crispEdges"/><rect fill="#1e2124" x="951.6" y="196.7" width="12.2" height="24.65" shape-rendering="crispEdges"/><rect fill="#1e2124" x="963.8" y="196.7" width="12.2" height="24.65" shape-rendering="crispEdges"/><rect fill="#1e2124" x="0" y="221.1" width="12.2" height="24.65" shape-rendering="crispEdges"/><rect fill="#1e2124" x="12.2" y="221.1" width="951.6" height="24.65" shape-rendering="crispEdges"/><rect fill="#1e2124" x="963.8" y="221.1" width="12.2" height="24.65" shape-rendering="crispEdges"/><rect fill="#1e2124" x="0" y="245.5" width="12.2" height="24.65" shape-rendering="crispEdges"/><rect fill="#1e2124" x="12.2" y="245.5" width="951.6" height="24.65" shape-rendering="crispEdges"/><rect fill="#1e2124" x="963.8" y="245.5" width="12.2" height="24.65" shape-rendering="crispEdges"/><rect fill="#2b2b2b" x="0" y="269.9" width="976" height="24.65" shape-rendering="crispEdges"/><rect fill="#313335" x="0" y="294.3" width="12.2" height="24.65" shape-rendering="crispEdges"/><rect fill="#313335" x="12.2" y="294.3" width="549" height="24.65" shape-rendering="crispEdges"/><rect fill="#313335" x="561.2" y="294.3" width="12.2" height="24.65" shape-rendering="crispEdges"/><rect fill="#2b2b2b" x="573.4" y="294.3" width="12.2" height="24.65" shape-rendering="crispEdges"/><rect fill="#313335" x="585.6" y="294.3" width="12.2" height="24.65" shape-rendering="crispEdges"/><rect fill="#313335" x="597.8" y="294.3" width="366" height="24.65" shape-rendering="crispEdges"/><rect fill="#313335" x="963.8" y="294.3" width="12.2" height="24.65" shape-rendering="crispEdges"/><rect fill="#313335" x="0" y="318.7" width="12.2" height="24.65" shape-rendering="crispEdges"/><rect fill="#1e2124" x="12.2" y="318.7" width="549" height="24.65" shape-rendering="crispEdges"/><rect fill="#313335" x="561.2" y="318.7" width="12.2" height="24.65" shape-rendering="crispEdges"/><rect fill="#2b2b2b" x="573.4" y="318.7" width="12.2" height="24.65" shape-rendering="crispEdges"/><rect fill="#313335" x="585.6" y="318.7" width="12.2" height="24.65" shape-rendering="crispEdges"/><rect fill="#1e2124" x="597.8" y="318.7" width="366" height="24.65" shape-rendering="crispEdges"/><rect fill="#313335" x="963.8" y="318.7" width="12.2" height="24.65" shape-rendering="crispEdges"/><rect fill="#313335" x="0" y="343.1" width="12.2" height="24.65" shape-rendering="crispEdges"/><rect fill="#1e2124" x="12.2" y="343.1" width="12.2" height="24.65" shape-rendering="crispEdges"/><rect fill="#1e2124" x="24.4" y="343.1" width="85.4" height="24.65" shape-rendering="crispEdges"/><rect fill="#1e2124" x="109.8" y="343.1" width="439.2" height="24.65" shape-rendering="crispEdges"/><rect fill="#1e2124" x="549" y="343.1" width="12.2" height="24.65" shape-rendering="crispEdges"/><rect fill="#313335" x="561.2" y="343.1" width="12.2" height="24.65" shape-rendering="crispEdges"/><rect fill="#2b2b2b" x="573.4" y="343.1" width="12.2" height="24.65" shape-rendering="crispEdges"/><rect fill="#313335" x="585.6" y="343.1" width="12.2" height="24.65" shape-rendering="crispEdges"/><rect fill="#1e2124" x="597.8" y="343.1" width="12.2" height="24.65" shape-rendering="crispEdges"/><rect fill="#1e2124" x="610" y="343.1" width="85.4" height="24.65" shape-rendering="crispEdges"/><rect fill="#1e2124" x="695.4" y="343.1" width="256.2" height="24.65" shape-rendering="crispEdges"/><rect fill="#1e2124" x="951.6" y="343.1" width="12.2" height="24.65" shape-rendering="crispEdges"/><rect fill="#313335" x="963.8" y="343.1" width="12.2" height="24.65" shape-rendering="crispEdges"/><rect fill="#313335" x="0" y="367.5" width="12.2" height="24.65" shape-rendering="crispEdges"/><rect fill="#1e2124" x="12.2" y="367.5" width="549" height="24.65" shape-rendering="crispEdges"/><rect fill="#313335" x="561.2" y="367.5" width="12.2" height="24.65" shape-rendering="crispEdges"/><rect fill="#2b2b2b" x="573.4" y="367.5" width="12.2" height="24.65" shape-rendering="crispEdges"/><rect fill="#313335" x="585.6" y="367.5" width="12.2" height="24.65" shape-rendering="crispEdges"/><rect fill="#1e2124" x="597.8" y="367.5" width="366" height="24.65" shape-rendering="crispEdges"/><rect fill="#313335" x="963.8" y="367.5" width="12.2" height="24.65" shape-rendering="crispEdges"/><rect fill="#313335" x="0" y="391.9" width="12.2" height="24.65" shape-rendering="crispEdges"/><rect fill="#313335" x="12.2" y="391.9" width="549" height="24.65" shape-rendering="crispEdges"/><rect fill="#313335" x="561.2" y="391.9" width="12.2" height="24.65" shape-rendering="crispEdges"/><rect fill="#2b2b2b" x="573.4" y="391.9" width="12.2" height="24.65" shape-rendering="crispEdges"/><rect fill="#313335" x="585.6" y="391.9" width="12.2" height="24.65" shape-rendering="crispEdges"/><rect fill="#313335" x="597.8" y="391.9" width="366" height="24.65" shape-rendering="crispEdges"/><rect fill="#313335" x="963.8" y="391.9" width="12.2" height="24.65" shape-rendering="crispEdges"/><rect fill="#2b2b2b" x="0" y="416.3" width="976" height="24.65" shape-rendering="crispEdges"/><rect fill="#2b2b2b" x="0" y="440.7" width="12.2" height="24.65" shape-rendering="crispEdges"/><rect fill="#2b2b2b" x="12.2" y="440.7" width="951.6" height="24.65" shape-rendering="crispEdges"/><rect fill="#2b2b2b" x="963.8" y="440.7" width="12.2" height="24.65" shape-rendering="crispEdges"/><rect fill="#2b2b2b" x="0" y="465.1" width="12.2" height="24.65" shape-rendering="crispEdges"/><rect fill="#2b2b2b" x="12.2" y="465.1" width="951.6" height="24.65" shape-rendering="crispEdges"/><rect fill="#2b2b2b" x="963.8" y="465.1" width="12.2" height="24.65" shape-rendering="crispEdges"/><rect fill="#2b2b2b" x="0" y="489.5" width="12.2" height="24.65" shape-rendering="crispEdges"/><rect fill="#2b2b2b" x="12.2" y="489.5" width="12.2" height="24.65" shape-rendering="crispEdges"/><rect fill="#2b2b2b" x="24.4" y="489.5" width="36.6" height="24.65" shape-rendering="crispEdges"/><rect fill="#2b2b2b" x="61" y="489.5" width="61" height="24.65" shape-rendering="crispEdges"/><rect fill="#2b2b2b" x="122" y="489.5" width="36.6" height="24.65" shape-rendering="crispEdges"/><rect fill="#2b2b2b" x="158.6" y="489.5" width="85.4" height="24.65" shape-rendering="crispEdges"/><rect fill="#2b2b2b" x="244" y="489.5" width="36.6" height="24.65" shape-rendering="crispEdges"/><rect fill="#2b2b2b" x="280.6" y="489.5" width="61" height="24.65" shape-rendering="crispEdges"/><rect fill="#2b2b2b" x="341.6" y="489.5" width="36.6" height="24.65" shape-rendering="crispEdges"/><rect fill="#2b2b2b" x="378.2" y="489.5" width="85.4" height="24.65" shape-rendering="crispEdges"/><rect fill="#2b2b2b" x="463.6" y="489.5" width="36.6" height="24.65" shape-rendering="crispEdges"/><rect fill="#2b2b2b" x="500.2" y="489.5" width="48.8" height="24.65" shape-rendering="crispEdges"/><rect fill="#2b2b2b" x="549" y="489.5" width="36.6" height="24.65" shape-rendering="crispEdges"/><rect fill="#2b2b2b" x="585.6" y="489.5" width="85.4" height="24.65" shape-rendering="crispEdges"/><rect fill="#2b2b2b" x="671" y="489.5" width="36.6" height="24.65" shape-rendering="crispEdges"/><rect fill="#2b2b2b" x="707.6" y="489.5" width="61" height="24.65" shape-rendering="crispEdges"/><rect fill="#2b2b2b" x="768.6" y="489.5" width="36.6" height="24.65" shape-rendering="crispEdges"/><rect fill="#2b2b2b" x="805.2" y="489.5" width="12.2" height="24.65" shape-rendering="crispEdges"/><rect fill="#2b2b2b" x="817.4" y="489.5" width="24.4" height="24.65" shape-rendering="crispEdges"/><rect fill="#2b2b2b" x="841.8" y="489.5" width="97.6" height="24.65" shape-rendering="crispEdges"/><rect fill="#2b2b2b" x="939.4" y="489.5" width="12.2" height="24.65" shape-rendering="crispEdges"/><rect fill="#2b2b2b" x="951.6" y="489.5" width="12.2" height="24.65" shape-rendering="crispEdges"/><rect fill="#2b2b2b" x="963.8" y="489.5" width="12.2" height="24.65" shape-rendering="crispEdges"/><rect fill="#2b2b2b" x="0" y="513.9" width="12.2" height="24.65" shape-rendering="crispEdges"/><rect fill="#2b2b2b" x="12.2" y="513.9" width="951.6" height="24.65" shape-rendering="crispEdges"/><rect fill="#2b2b2b" x="963.8" y="513.9" width="12.2" height="24.65" shape-rendering="crispEdges"/><rect fill="#2b2b2b" x="0" y="538.3" width="12.2" height="24.65" shape-rendering="crispEdges"/><rect fill="#2b2b2b" x="12.2" y="538.3" width="951.6" height="24.65" shape-rendering="crispEdges"/><rect fill="#2b2b2b" x="963.8" y="538.3" width="12.2" height="24.65" shape-rendering="crispEdges"/><rect fill="#2b2b2b" x="0" y="562.7" width="976" height="24.65" shape-rendering="crispEdges"/>
    <g class="terminal-871428029-matrix">
    <text class="terminal-871428029-r2" x="12.2" y="20" textLength="12.2" clip-path="url(#terminal-871428029-line-0)">⭘</text><text class="terminal-871428029-r2" x="183" y="20" textLength="353.8" clip-path="url(#terminal-871428029-line-0)">PowerBI&#160;CLI&#160;-&#160;Interactive&#160;TUI</text><text class="terminal-871428029-r3" x="536.8" y="20" textLength="36.6" clip-path="url(#terminal-871428029-line-0)">&#160;—&#160;</text><text class="terminal-871428029-r3" x="573.4" y="20" textLength="195.2" clip-path="url(#terminal-871428029-line-0)">Press&#160;?&#160;for&#160;help</text><text class="terminal-871428029-r1" x="976" y="20" textLength="12.2" clip-path="url(#terminal-871428029-line-0)">
</text><text class="terminal-871428029-r4" x="0" y="44.4" textLength="12.2" clip-path="url(#terminal-871428029-line-1)">╭</text><text class="terminal-871428029-r4" x="12.2" y="44.4" textLength="951.6" clip-path="url(#terminal-871428029-line-1)">──────────────────────────────────────────────────────────────────────────────</text><text class="terminal-871428029-r4" x="963.8" y="44.4" textLength="12.2" clip-path="url(#terminal-871428029-line-1)">╮</text><text class="terminal-871428029-r1" x="976" y="44.4" textLength="12.2" clip-path="url(#terminal-871428029-line-1)">
</text><text class="terminal-871428029-r4" x="0" y="68.8" textLength="12.2" clip-path="url(#terminal-871428029-line-2)">│</text><text class="terminal-871428029-r4" x="963.8" y="68.8" textLength="12.2" clip-path="url(#terminal-871428029-line-2)">│</text><text class="terminal-871428029-r1" x="976" y="68.8" textLength="12.2" clip-path="url(#terminal-871428029-line-2)">
</text><text class="terminal-871428029-r4" x="0" y="93.2" textLength="12.2" clip-path="url(#terminal-871428029-line-3)">│</text><text class="terminal-871428029-r4" x="24.4" y="93.2" textLength="12.2" clip-path="url(#terminal-871428029-line-3)">╭</text><text class="terminal-871428029-r4" x="36.6" y="93.2" textLength="268.4" clip-path="url(#terminal-871428029-line-3)">──────────────────────</text><text class="terminal-871428029-r4" x="305" y="93.2" textLength="12.2" clip-path="url(#terminal-871428029-line-3)">╮</text><text class="terminal-871428029-r4" x="329.4" y="93.2" textLength="12.2" clip-path="url(#terminal-871428029-line-3)">╭</text><text class="terminal-871428029-r4" x="341.6" y="93.2" textLength="280.6" clip-path="url(#terminal-871428029-line-3)">───────────────────────</text><text class="terminal-871428029-r4" x="622.2" y="93.2" textLength="12.2" clip-path="url(#terminal-871428029-line-3)">╮</text><text class="terminal-871428029-r4" x="646.6" y="93.2" textLength="12.2" clip-path="url(#terminal-871428029-line-3)">╭</text><text class="terminal-871428029-r4" x="658.8" y="93.2" textLength="280.6" clip-path="url(#terminal-871428029-line-3)">───────────────────────</text><text class="terminal-871428029-r4" x="939.4" y="93.2" textLength="12.2" clip-path="url(#terminal-871428029-line-3)">╮</text><text class="terminal-871428029-r4" x="963.8" y="93.2" textLength="12.2" clip-path="url(#terminal-871428029-line-3)">│</text><text class="terminal-871428029-r1" x="976" y="93.2" textLength="12.2" clip-path="url(#terminal-871428029-line-3)">
</text><text class="terminal-871428029-r4" x="0" y="117.6" textLength="12.2" clip-path="url(#terminal-871428029-line-4)">│</text><text class="terminal-871428029-r4" x="24.4" y="117.6" textLength="12.2" clip-path="url(#terminal-871428029-line-4)">│</text><text class="terminal-871428029-r4" x="305" y="117.6" textLength="12.2" clip-path="url(#terminal-871428029-line-4)">│</text><text class="terminal-871428029-r4" x="329.4" y="117.6" textLength="12.2" clip-path="url(#terminal-871428029-line-4)">│</text><text class="terminal-871428029-r4" x="622.2" y="117.6" textLength="12.2" clip-path="url(#terminal-871428029-line-4)">│</text><text class="terminal-871428029-r4" x="646.6" y="117.6" textLength="12.2" clip-path="url(#terminal-871428029-line-4)">│</text><text class="terminal-871428029-r4" x="939.4" y="117.6" textLength="12.2" clip-path="url(#terminal-871428029-line-4)">│</text><text class="terminal-871428029-r4" x="963.8" y="117.6" textLength="12.2" clip-path="url(#terminal-871428029-line-4)">│</text><text class="terminal-871428029-r1" x="976" y="117.6" textLength="12.2" clip-path="url(#terminal-871428029-line-4)">
</text><text class="terminal-871428029-r4" x="0" y="142" textLength="12.2" clip-path="url(#terminal-871428029-line-5)">│</text><text class="terminal-871428029-r4" x="24.4" y="142" textLength="12.2" clip-path="url(#terminal-871428029-line-5)">│</text><text class="terminal-871428029-r5" x="48.8" y="142" textLength="85.4" clip-path="url(#terminal-871428029-line-5)">Profile</text><text class="terminal-871428029-r4" x="305" y="142" textLength="12.2" clip-path="url(#terminal-871428029-line-5)">│</text><text class="terminal-871428029-r4" x="329.4" y="142" textLength="12.2" clip-path="url(#terminal-871428029-line-5)">│</text><text class="terminal-871428029-r5" x="353.8" y="142" textLength="158.6" clip-path="url(#terminal-871428029-line-5)">Output&#160;Folder</text><text class="terminal-871428029-r4" x="622.2" y="142" textLength="12.2" clip-path="url(#terminal-871428029-line-5)">│</text><text class="terminal-871428029-r4" x="646.6" y="142" textLength="12.2" clip-path="url(#terminal-871428029-line-5)">│</text><text class="terminal-871428029-r5" x="671" y="142" textLength="73.2" clip-path="url(#terminal-871428029-line-5)">Action</text><text class="terminal-871428029-r4" x="939.4" y="142" textLength="12.2" clip-path="url(#terminal-871428029-line-5)">│</text><text class="terminal-871428029-r4" x="963.8" y="142" textLength="12.2" clip-path="url(#terminal-871428029-line-5)">│</text><text class="terminal-871428029-r1" x="976" y="142" textLength="12.2" clip-path="url(#terminal-871428029-line-5)">
</text><text class="terminal-871428029-r4" x="0" y="166.4" textLength="12.2" clip-path="url(#terminal-871428029-line-6)">│</text><text class="terminal-871428029-r4" x="24.4" y="166.4" textLength="12.2" clip-path="url(#terminal-871428029-line-6)">│</text><text class="terminal-871428029-r6" x="61" y="166.4" textLength="48.8" clip-path="url(#terminal-871428029-line-6)">None</text><text class="terminal-871428029-r4" x="305" y="166.4" textLength="12.2" clip-path="url(#terminal-871428029-line-6)">│</text><text class="terminal-871428029-r4" x="329.4" y="166.4" textLength="12.2" clip-path="url(#terminal-871428029-line-6)">│</text><text class="terminal-871428029-r6" x="366" y="166.4" textLength="85.4" clip-path="url(#terminal-871428029-line-6)">Not&#160;set</text><text class="terminal-871428029-r4" x="622.2" y="166.4" textLength="12.2" clip-path="url(#terminal-871428029-line-6)">│</text><text class="terminal-871428029-r4" x="646.6" y="166.4" textLength="12.2" clip-path="url(#terminal-871428029-line-6)">│</text><text class="terminal-871428029-r6" x="683.2" y="166.4" textLength="195.2" clip-path="url(#terminal-871428029-line-6)">Select&#160;an&#160;action</text><text class="terminal-871428029-r4" x="939.4" y="166.4" textLength="12.2" clip-path="url(#terminal-871428029-line-6)">│</text><text class="terminal-871428029-r4" x="963.8" y="166.4" textLength="12.2" clip-path="url(#terminal-871428029-line-6)">│</text><text class="terminal-871428029-r1" x="976" y="166.4" textLength="12.2" clip-path="url(#terminal-871428029-line-6)">
</text><text class="terminal-871428029-r4" x="0" y="190.8" textLength="12.2" clip-path="url(#terminal-871428029-line-7)">│</text><text class="terminal-871428029-r4" x="24.4" y="190.8" textLength="12.2" clip-path="url(#terminal-871428029-line-7)">│</text><text class="terminal-871428029-r4" x="305" y="190.8" textLength="12.2" clip-path="url(#terminal-871428029-line-7)">│</text><text class="terminal-871428029-r4" x="329.4" y="190.8" textLength="12.2" clip-path="url(#terminal-871428029-line-7)">│</text><text class="terminal-871428029-r4" x="622.2" y="190.8" textLength="12.2" clip-path="url(#terminal-871428029-line-7)">│</text><text class="terminal-871428029-r4" x="646.6" y="190.8" textLength="12.2" clip-path="url(#terminal-871428029-line-7)">│</text><text class="terminal-871428029-r4" x="939.4" y="190.8" textLength="12.2" clip-path="url(#terminal-871428029-line-7)">│</text><text class="terminal-871428029-r4" x="963.8" y="190.8" textLength="12.2" clip-path="url(#terminal-871428029-line-7)">│</text><text class="terminal-871428029-r1" x="976" y="190.8" textLength="12.2" clip-path="url(#terminal-871428029-line-7)">
</text><text class="terminal-871428029-r4" x="0" y="215.2" textLength="12.2" clip-path="url(#terminal-871428029-line-8)">│</text><text class="terminal-871428029-r4" x="24.4" y="215.2" textLength="12.2" clip-path="url(#terminal-871428029-line-8)">╰</text><text class="terminal-871428029-r4" x="36.6" y="215.2" textLength="268.4" clip-path="url(#terminal-871428029-line-8)">──────────────────────</text><text class="terminal-871428029-r4" x="305" y="215.2" textLength="12.2" clip-path="url(#terminal-871428029-line-8)">╯</text><text class="terminal-871428029-r4" x="329.4" y="215.2" textLength="12.2" clip-path="url(#terminal-871428029-line-8)">╰</text><text class="terminal-871428029-r4" x="341.6" y="215.2" textLength="280.6" clip-path="url(#terminal-871428029-line-8)">───────────────────────</text><text class="terminal-871428029-r4" x="622.2" y="215.2" textLength="12.2" clip-path="url(#terminal-871428029-line-8)">╯</text><text class="terminal-871428029-r4" x="646.6" y="215.2" textLength="12.2" clip-path="url(#terminal-871428029-line-8)">╰</text><text class="terminal-871428029-r4" x="658.8" y="215.2" textLength="280.6" clip-path="url(#terminal-871428029-line-8)">───────────────────────</text><text class="terminal-871428029-r4" x="939.4" y="215.2" textLength="12.2" clip-path="url(#terminal-871428029-line-8)">╯</text><text class="terminal-871428029-r4" x="963.8" y="215.2" textLength="12.2" clip-path="url(#terminal-871428029-line-8)">│</text><text class="terminal-871428029-r1" x="976" y="215.2" textLength="12.2" clip-path="url(#terminal-871428029-line-8)">
</text><text class="terminal-871428029-r4" x="0" y="239.6" textLength="12.2" clip-path="url(#terminal-871428029-line-9)">│</text><text class="terminal-871428029-r4" x="963.8" y="239.6" textLength="12.2" clip-path="url(#terminal-871428029-line-9)">│</text><text class="terminal-871428029-r1" x="976" y="239.6" textLength="12.2" clip-path="url(#terminal-871428029-line-9)">
</text><text class="terminal-871428029-r4" x="0" y="264" textLength="12.2" clip-path="url(#terminal-871428029-line-10)">╰</text><text class="terminal-871428029-r4" x="12.2" y="264" textLength="951.6" clip-path="url(#terminal-871428029-line-10)">──────────────────────────────────────────────────────────────────────────────</text><text class="terminal-871428029-r4" x="963.8" y="264" textLength="12.2" clip-path="url(#terminal-871428029-line-10)">╯</text><text class="terminal-871428029-r1" x="976" y="264" textLength="12.2" clip-path="url(#terminal-871428029-line-10)">
</text><text class="terminal-871428029-r1" x="976" y="288.4" textLength="12.2" clip-path="url(#terminal-871428029-line-11)">
</text><text class="terminal-871428029-r4" x="0" y="312.8" textLength="12.2" clip-path="url(#terminal-871428029-line-12)">╭</text><text class="terminal-871428029-r4" x="12.2" y="312.8" textLength="549" clip-path="url(#terminal-871428029-line-12)">─────────────────────────────────────────────</text><text class="terminal-871428029-r4" x="561.2" y="312.8" textLength="12.2" clip-path="url(#terminal-871428029-line-12)">╮</text><text class="terminal-871428029-r4" x="585.6" y="312.8" textLength="12.2" clip-path="url(#terminal-871428029-line-12)">╭</text><text class="terminal-871428029-r4" x="597.8" y="312.8" textLength="366" clip-path="url(#terminal-871428029-line-12)">──────────────────────────────</text><text class="terminal-871428029-r4" x="963.8" y="312.8" textLength="12.2" clip-path="url(#terminal-871428029-line-12)">╮</text><text class="terminal-871428029-r1" x="976" y="312.8" textLength="12.2" clip-path="url(#terminal-871428029-line-12)">
</text><text class="terminal-871428029-r4" x="0" y="337.2" textLength="12.2" clip-path="url(#terminal-871428029-line-13)">│</text><text class="terminal-871428029-r4" x="561.2" y="337.2" textLength="12.2" clip-path="url(#terminal-871428029-line-13)">│</text><text class="terminal-871428029-r4" x="585.6" y="337.2" textLength="12.2" clip-path="url(#terminal-871428029-line-13)">│</text><text class="terminal-871428029-r4" x="963.8" y="337.2" textLength="12.2" clip-path="url(#terminal-871428029-line-13)">│</text><text class="terminal-871428029-r1" x="976" y="337.2" textLength="12.2" clip-path="url(#terminal-871428029-line-13)">
</text><text class="terminal-871428029-r4" x="0" y="361.6" textLength="12.2" clip-path="url(#terminal-871428029-line-14)">│</text><text class="terminal-871428029-r5" x="24.4" y="361.6" textLength="85.4" clip-path="url(#terminal-871428029-line-14)">Actions</text><text class="terminal-871428029-r4" x="561.2" y="361.6" textLength="12.2" clip-path="url(#terminal-871428029-line-14)">│</text><text class="terminal-871428029-r4" x="585.6" y="361.6" textLength="12.2" clip-path="url(#terminal-871428029-line-14)">│</text><text class="terminal-871428029-r5" x="610" y="361.6" textLength="85.4" clip-path="url(#terminal-871428029-line-14)">Details</text><text class="terminal-871428029-r4" x="963.8" y="361.6" textLength="12.2" clip-path="url(#terminal-871428029-line-14)">│</text><text class="terminal-871428029-r1" x="976" y="361.6" textLength="12.2" clip-path="url(#terminal-871428029-line-14)">
</text><text class="terminal-871428029-r4" x="0" y="386" textLength="12.2" clip-path="url(#terminal-871428029-line-15)">│</text><text class="terminal-871428029-r4" x="561.2" y="386" textLength="12.2" clip-path="url(#terminal-871428029-line-15)">│</text><text class="terminal-871428029-r4" x="585.6" y="386" textLength="12.2" clip-path="url(#terminal-871428029-line-15)">│</text><text class="terminal-871428029-r4" x="963.8" y="386" textLength="12.2" clip-path="url(#terminal-871428029-line-15)">│</text><text class="terminal-871428029-r1" x="976" y="386" textLength="12.2" clip-path="url(#terminal-871428029-line-15)">
</text><text class="terminal-871428029-r4" x="0" y="410.4" textLength="12.2" clip-path="url(#terminal-871428029-line-16)">╰</text><text class="terminal-871428029-r4" x="12.2" y="410.4" textLength="549" clip-path="url(#terminal-871428029-line-16)">─────────────────────────────────────────────</text><text class="terminal-871428029-r4" x="561.2" y="410.4" textLength="12.2" clip-path="url(#terminal-871428029-line-16)">╯</text><text class="terminal-871428029-r4" x="585.6" y="410.4" textLength="12.2" clip-path="url(#terminal-871428029-line-16)">╰</text><text class="terminal-871428029-r4" x="597.8" y="410.4" textLength="366" clip-path="url(#terminal-871428029-line-16)">──────────────────────────────</text><text class="terminal-871428029-r4" x="963.8" y="410.4" textLength="12.2" clip-path="url(#terminal-871428029-line-16)">╯</text><text class="terminal-871428029-r1" x="976" y="410.4" textLength="12.2" clip-path="url(#terminal-871428029-line-16)">
</text><text class="terminal-871428029-r1" x="976" y="434.8" textLength="12.2" clip-path="url(#terminal-871428029-line-17)">
</text><text class="terminal-871428029-r4" x="0" y="459.2" textLength="12.2" clip-path="url(#terminal-871428029-line-18)">╭</text><text class="terminal-871428029-r4" x="12.2" y="459.2" textLength="951.6" clip-path="url(#terminal-871428029-line-18)">──────────────────────────────────────────────────────────────────────────────</text><text class="terminal-871428029-r4" x="963.8" y="459.2" textLength="12.2" clip-path="url(#terminal-871428029-line-18)">╮</text><text class="terminal-871428029-r1" x="976" y="459.2" textLength="12.2" clip-path="url(#terminal-871428029-line-18)">
</text><text class="terminal-871428029-r4" x="0" y="483.6" textLength="12.2" clip-path="url(#terminal-871428029-line-19)">│</text><text class="terminal-871428029-r4" x="963.8" y="483.6" textLength="12.2" clip-path="url(#terminal-871428029-line-19)">│</text><text class="terminal-871428029-r1" x="976" y="483.6" textLength="12.2" clip-path="url(#terminal-871428029-line-19)">
</text><text class="terminal-871428029-r4" x="0" y="508" textLength="12.2" clip-path="url(#terminal-871428029-line-20)">│</text><text class="terminal-871428029-r7" x="24.4" y="508" textLength="36.6" clip-path="url(#terminal-871428029-line-20)">&#160;q&#160;</text><text class="terminal-871428029-r8" x="61" y="508" textLength="61" clip-path="url(#terminal-871428029-line-20)">Quit&#160;</text><text class="terminal-871428029-r7" x="122" y="508" textLength="36.6" clip-path="url(#terminal-871428029-line-20)">&#160;f&#160;</text><text class="terminal-871428029-r8" x="158.6" y="508" textLength="85.4" clip-path="url(#terminal-871428029-line-20)">Filter&#160;</text><text class="terminal-871428029-r7" x="244" y="508" textLength="36.6" clip-path="url(#terminal-871428029-line-20)">&#160;o&#160;</text><text class="terminal-871428029-r8" x="280.6" y="508" textLength="61" clip-path="url(#terminal-871428029-line-20)">Open&#160;</text><text class="terminal-871428029-r7" x="341.6" y="508" textLength="36.6" clip-path="url(#terminal-871428029-line-20)">&#160;s&#160;</text><text class="terminal-871428029-r8" x="378.2" y="508" textLength="85.4" clip-path="url(#terminal-871428029-line-20)">Search&#160;</text><text class="terminal-871428029-r7" x="463.6" y="508" textLength="36.6" clip-path="url(#terminal-871428029-line-20)">&#160;n&#160;</text><text class="terminal-871428029-r8" x="500.2" y="508" textLength="48.8" clip-path="url(#terminal-871428029-line-20)">New&#160;</text><text class="terminal-871428029-r7" x="549" y="508" textLength="36.6" clip-path="url(#terminal-871428029-line-20)">&#160;c&#160;</text><text class="terminal-871428029-r8" x="585.6" y="508" textLength="85.4" clip-path="url(#terminal-871428029-line-20)">Config&#160;</text><text class="terminal-871428029-r7" x="671" y="508" textLength="36.6" clip-path="url(#terminal-871428029-line-20)">&#160;h&#160;</text><text class="terminal-871428029-r8" x="707.6" y="508" textLength="61" clip-path="url(#terminal-871428029-line-20)">Help&#160;</text><text class="terminal-871428029-r9" x="805.2" y="508" textLength="12.2" clip-path="url(#terminal-871428029-line-20)">▏</text><text class="terminal-871428029-r7" x="817.4" y="508" textLength="24.4" clip-path="url(#terminal-871428029-line-20)">^p</text><text class="terminal-871428029-r8" x="841.8" y="508" textLength="97.6" clip-path="url(#terminal-871428029-line-20)">&#160;palette</text><text class="terminal-871428029-r4" x="963.8" y="508" textLength="12.2" clip-path="url(#terminal-871428029-line-20)">│</text><text class="terminal-871428029-r1" x="976" y="508" textLength="12.2" clip-path="url(#terminal-871428029-line-20)">
</text><text class="terminal-871428029-r4" x="0" y="532.4" textLength="12.2" clip-path="url(#terminal-871428029-line-21)">│</text><text class="terminal-871428029-r4" x="963.8" y="532.4" textLength="12.2" clip-path="url(#terminal-871428029-line-21)">│</text><text class="terminal-871428029-r1" x="976" y="532.4" textLength="12.2" clip-path="url(#terminal-871428029-line-21)">
</text><text class="terminal-871428029-r4" x="0" y="556.8" textLength="12.2" clip-path="url(#terminal-871428029-line-22)">╰</text><text class="terminal-871428029-r4" x="12.2" y="556.8" textLength="951.6" clip-path="url(#terminal-871428029-line-22)">──────────────────────────────────────────────────────────────────────────────</text><text class="terminal-871428029-r4" x="963.8" y="556.8" textLength="12.2" clip-path="url(#terminal-871428029-line-22)">╯</text><text class="terminal-871428029-r1" x="976" y="556.8" textLength="12.2" clip-path="url(#terminal-871428029-line-22)">
</text>
    </g>
    </g>
</svg>
